*
G04 Mass Parameters ***
*
G04 Image ***
*
%INC:\MEUS DOCUMENTOS\PROJETOS\TESTE PAN.AST*%
%ICAS*%
%MOIN*%
%IPPOS*%
%ASAXBY*%
G74*%FSLAN2X34Y34*%
*
G04 Aperture Definitions ***
*
%ADD10C,0.0550*%
%ADD11C,0.0520*%
%ADD12C,0.0620*%
%ADD13R,0.0620X0.0620*%
%ADD14R,0.0550X0.0550*%
%ADD15C,0.0490*%
%ADD16R,0.0490X0.0490*%
%ADD17C,0.0080*%
%ADD18C,0.0500*%
*
G04 Plot Data ***
*
G54D17*
G01X-0032705Y0000130D02*
Y0000019D01*
Y0000075D02*
X-0033038D01*
X-0032982Y0000019D01*
X0002811Y0001034D02*
Y0001145D01*
Y0001089D02*
X0003145D01*
X0003089Y0001145D01*
X0002978Y0001610D02*
Y0001444D01*
X0003034Y0001388D01*
X0003089D01*
X0003145Y0001444D01*
Y0001610D01*
X0002811D01*
Y0001909D02*
X0003145D01*
Y0001798D02*
Y0002020D01*
X0001511Y0000034D02*
X0001845D01*
X0001511Y0000062D02*
Y-0000105D01*
X0001567Y-0000160D01*
X0001622D01*
X0001678Y-0000133D01*
Y0000034D02*
Y-0000133D01*
X0001734Y-0000160D01*
X0001789D01*
X0001845Y-0000105D01*
Y0000062D01*
X0001678Y0001007D02*
Y0000840D01*
X0001734Y0000785D01*
X0001789D01*
X0001845Y0000840D01*
Y0001007D01*
X0001511D01*
Y0001195D02*
X0001845D01*
X0001789Y0001250D01*
X0001678Y0001306D01*
X0001789Y0001361D01*
X0001845Y0001417D01*
X0001511D01*
X0001622Y0001605D02*
Y0001827D01*
X0001511Y0001605D02*
X0001678D01*
X0001845Y0001688D01*
Y0001744D01*
X0001678Y0001827D01*
X0001511D01*
Y0002015D02*
Y0002209D01*
X0001845D01*
X0001911Y0002848D02*
Y0002959D01*
Y0002904D02*
X0002245D01*
X0002189Y0002959D01*
X-0023780Y-0009585D02*
X-0023836Y-0009529D01*
X-0023947D01*
X-0024003Y-0009585D01*
Y-0009640D01*
X-0023892Y-0009751D01*
X-0024003Y-0009862D01*
X-0023780D01*
X-0023398Y-0009529D02*
Y-0009862D01*
X-0023370Y-0009529D02*
X-0023537D01*
X-0023593Y-0009640D01*
Y-0009751D01*
X-0023537Y-0009862D01*
X-0023370D01*
X-0025243Y-0007798D02*
X-0025409Y-0008131D01*
X-0025187D01*
X-0024860Y-0007798D02*
X-0024805Y-0007854D01*
X-0024777Y-0007909D01*
Y-0008020D01*
X-0024805Y-0008076D01*
X-0024860Y-0008131D01*
X-0024916D01*
X-0024971Y-0008076D01*
X-0024999Y-0008020D01*
Y-0007909D01*
X-0024971Y-0007854D01*
X-0024916Y-0007798D01*
X-0024860D01*
X-0024450D02*
X-0024395Y-0007854D01*
X-0024367Y-0007909D01*
Y-0008020D01*
X-0024395Y-0008076D01*
X-0024450Y-0008131D01*
X-0024506D01*
X-0024561Y-0008076D01*
X-0024589Y-0008020D01*
Y-0007909D01*
X-0024561Y-0007854D01*
X-0024506Y-0007798D01*
X-0024450D01*
X-0024179Y-0007909D02*
X-0023957D01*
X-0024068Y-0008131D01*
X-0024124D01*
Y-0007798D01*
X-0023769Y-0008131D02*
Y-0007798D01*
X-0023714Y-0007854D01*
X-0023603Y-0008076D01*
X-0023547Y-0008131D01*
Y-0007798D01*
X-0023359D02*
X-0023248D01*
X-0023304D02*
Y-0008131D01*
X-0023248Y-0008076D01*
X-0038761Y0001572D02*
Y0001349D01*
X-0038984Y0001572D01*
X-0039039D01*
X-0039095Y0001544D01*
Y0001377D01*
X-0039039Y0001349D01*
X-0038761Y0000967D02*
X-0039095D01*
X-0038761Y0000939D02*
Y0001106D01*
X-0038873Y0001162D01*
X-0038984D01*
X-0039095Y0001106D01*
Y0000939D01*
X-0037030Y0002756D02*
X-0037086Y0002728D01*
X-0037308D01*
X-0037364Y0002756D01*
Y0002923D01*
X-0037308Y0002950D01*
X-0037086D01*
X-0037030Y0002923D01*
Y0002756D01*
Y0002346D02*
X-0037364D01*
X-0037030Y0002318D02*
Y0002485D01*
X-0037141Y0002540D01*
X-0037253D01*
X-0037364Y0002485D01*
Y0002318D01*
X-0037141Y0002130D02*
Y0001908D01*
X-0037030Y0002130D02*
X-0037197D01*
X-0037364Y0002047D01*
Y0001991D01*
X-0037197Y0001908D01*
X-0037030D01*
X-0037197Y0001609D02*
Y0001720D01*
X-0037086D01*
X-0037030Y0001693D01*
Y0001526D01*
X-0037086Y0001498D01*
X-0037308D01*
X-0037364Y0001526D01*
Y0001693D01*
X-0037308Y0001720D01*
X-0037030Y0001310D02*
Y0001199D01*
Y0001255D02*
X-0037364D01*
Y0001310D02*
Y0001199D01*
X-0037030Y0000956D02*
Y0000761D01*
X-0037364D01*
X-0022211Y-0000374D02*
X-0022433D01*
X-0022322Y-0000152D01*
X-0022266D01*
Y-0000486D01*
X-0022704Y-0000319D02*
X-0022621Y-0000486D01*
X-0022843Y-0000319D02*
X-0022676D01*
X-0022621Y-0000263D01*
Y-0000208D01*
X-0022676Y-0000152D01*
X-0022843D01*
Y-0000486D01*
X-0021979Y-0001217D02*
X-0022145Y-0001050D01*
X-0021979Y-0000883D01*
X-0022201D02*
Y-0001217D01*
X-0022555D02*
X-0022389Y-0000883D01*
X-0022611D01*
X-0022799Y-0001106D02*
X-0023021D01*
X-0022910Y-0000883D01*
X-0022854D01*
Y-0001217D01*
X0006197Y0001018D02*
Y0001240D01*
X0006419Y0001018D01*
X0006475D01*
X0006531Y0001045D01*
Y0001212D01*
X0006475Y0001240D01*
X0006364Y0001650D02*
Y0001483D01*
X0006419Y0001428D01*
X0006475D01*
X0006531Y0001483D01*
Y0001650D01*
X0006197D01*
X0006308Y0002032D02*
X0006253D01*
X0006197Y0002004D01*
Y0001893D01*
X0006253Y0001865D01*
X0006531D01*
Y0001838D02*
Y0001949D01*
X0005008Y0000234D02*
Y0000456D01*
X0004897Y0000234D02*
X0005064D01*
X0005230Y0000317D01*
Y0000373D01*
X0005064Y0000456D01*
X0004897D01*
Y0000838D02*
X0005230D01*
X0004897Y0000866D02*
Y0000699D01*
X0005008Y0000644D01*
X0005119D01*
X0005230Y0000699D01*
Y0000866D01*
X0005008Y0001589D02*
Y0001811D01*
X0004897Y0001589D02*
X0005064D01*
X0005230Y0001672D01*
Y0001728D01*
X0005064Y0001811D01*
X0004897D01*
X0005175Y0001999D02*
X0005230Y0002026D01*
Y0002193D01*
X0005175Y0002221D01*
X0005119D01*
X0005064Y0002193D01*
Y0002026D01*
X0005008Y0001999D01*
X0004953D01*
X0004897Y0002026D01*
Y0002193D01*
X0004953Y0002221D01*
X0005297Y0002860D02*
Y0002971D01*
Y0002915D02*
X0005630D01*
X0005575Y0002971D01*
X-0041654Y0001840D02*
Y0001729D01*
Y0001785D02*
X-0041987D01*
X-0041932Y0001729D01*
X-0041821Y0001264D02*
Y0001430D01*
X-0041876Y0001486D01*
X-0041932D01*
X-0041987Y0001430D01*
Y0001264D01*
X-0041654D01*
X-0041765Y0000881D02*
X-0041709D01*
X-0041654Y0000909D01*
Y0001020D01*
X-0041709Y0001048D01*
X-0041987D01*
Y0001076D02*
Y0000965D01*
X-0040465Y0003375D02*
Y0003152D01*
X-0040354Y0003375D02*
X-0040520D01*
X-0040687Y0003291D01*
Y0003236D01*
X-0040520Y0003152D01*
X-0040354D01*
Y0002770D02*
X-0040687D01*
X-0040354Y0002742D02*
Y0002909D01*
X-0040465Y0002965D01*
X-0040576D01*
X-0040687Y0002909D01*
Y0002742D01*
X-0040465Y0002555D02*
Y0002332D01*
X-0040354Y0002555D02*
X-0040520D01*
X-0040687Y0002471D01*
Y0002416D01*
X-0040520Y0002332D01*
X-0040354D01*
X-0040520Y0002061D02*
X-0040354Y0002145D01*
X-0040520Y0001922D02*
Y0002089D01*
X-0040576Y0002145D01*
X-0040632D01*
X-0040687Y0002089D01*
Y0001922D01*
X-0040354D01*
Y0001624D02*
X-0040687D01*
Y0001735D02*
Y0001512D01*
Y0001325D02*
X-0040354D01*
X-0040409Y0001269D01*
X-0040632Y0001158D01*
X-0040687Y0001102D01*
X-0040354D01*
X-0040520Y0000859D02*
Y0000692D01*
X-0040354Y0000915D02*
Y0000692D01*
X-0040687D01*
Y0000915D01*
X-0040754Y0000054D02*
Y-0000057D01*
Y-0000002D02*
X-0041087D01*
X-0041032Y-0000057D01*
X-0035142Y0001616D02*
Y0001727D01*
Y0001671D02*
X-0034809D01*
X-0034864Y0001727D01*
X-0035142Y0002165D02*
X-0034809D01*
X-0035142Y0002193D02*
Y0002026D01*
X-0035031Y0001970D01*
X-0034920D01*
X-0034809Y0002026D01*
Y0002193D01*
X-0036707Y0000564D02*
Y0000730D01*
X-0036873Y0000508D02*
Y0000730D01*
X-0036540D01*
Y0000508D01*
X-0036873Y0001029D02*
X-0036540D01*
Y0000918D02*
Y0001140D01*
X-0036595Y0001328D02*
X-0036540Y0001356D01*
Y0001523D01*
X-0036595Y0001550D01*
X-0036651D01*
X-0036707Y0001523D01*
Y0001356D01*
X-0036762Y0001328D01*
X-0036818D01*
X-0036873Y0001356D01*
Y0001523D01*
X-0036818Y0001550D01*
X-0036707Y0001794D02*
Y0001960D01*
X-0036873Y0001738D02*
Y0001960D01*
X-0036540D01*
Y0001738D01*
X-0036873Y0002259D02*
X-0036540D01*
Y0002148D02*
Y0002370D01*
X-0014177Y0005408D02*
X-0014289D01*
X-0014233D02*
Y0005741D01*
X-0014289Y0005686D01*
X-0014643Y0005519D02*
X-0014532Y0005408D01*
X-0014754Y0005464D02*
X-0014726Y0005408D01*
X-0014615D01*
X-0014587Y0005464D01*
X-0014532Y0005519D01*
Y0005686D01*
X-0014560Y0005741D01*
X-0014726D01*
X-0014754Y0005686D01*
Y0005464D01*
X-0013128Y0003875D02*
X-0013101Y0003930D01*
Y0003986D01*
X-0013128Y0004041D01*
X-0013295D01*
X-0013323Y0003986D01*
Y0003930D01*
X-0013295Y0003875D01*
X-0013128D01*
X-0013101Y0003819D01*
Y0003763D01*
X-0013128Y0003708D01*
X-0013295D01*
X-0013323Y0003763D01*
Y0003819D01*
X-0013295Y0003875D01*
X-0013511Y0003819D02*
X-0013733D01*
X-0013622Y0004041D01*
X-0013566D01*
Y0003708D01*
X-0014143Y0003763D02*
X-0014115Y0003708D01*
X-0013948D01*
X-0013921Y0003763D01*
Y0003875D01*
X-0013976Y0003930D01*
X-0014143D01*
Y0004041D01*
X-0013921D01*
X-0014331Y0003763D02*
X-0014358Y0003708D01*
X-0014525D01*
X-0014553Y0003763D01*
Y0003986D01*
X-0014525Y0004041D01*
X-0014358D01*
X-0014331Y0003986D01*
X-0014935Y0003708D02*
Y0004041D01*
X-0014963Y0003708D02*
X-0014796D01*
X-0014741Y0003763D01*
Y0003819D01*
X-0014768Y0003875D01*
X-0014935D02*
X-0014768D01*
X-0014741Y0003930D01*
Y0003986D01*
X-0014796Y0004041D01*
X-0014963D01*
X-0041211Y0004692D02*
X-0041155Y0004636D01*
X-0041044D01*
X-0040988Y0004692D01*
Y0004747D01*
X-0041100Y0004858D01*
X-0040988Y0004970D01*
X-0041211D01*
X-0041482Y0004803D02*
X-0041398Y0004636D01*
X-0041621Y0004803D02*
X-0041454D01*
X-0041398Y0004858D01*
Y0004914D01*
X-0041454Y0004970D01*
X-0041621D01*
Y0004636D01*
X-0041127Y0003361D02*
X-0041294Y0003528D01*
X-0041127Y0003694D01*
X-0041350D02*
Y0003361D01*
X-0041565Y0003528D02*
X-0041537Y0003583D01*
Y0003639D01*
X-0041565Y0003694D01*
X-0041732D01*
X-0041760Y0003639D01*
Y0003583D01*
X-0041732Y0003528D01*
X-0041565D01*
X-0041537Y0003472D01*
Y0003417D01*
X-0041565Y0003361D01*
X-0041732D01*
X-0041760Y0003417D01*
Y0003472D01*
X-0041732Y0003528D01*
X-0027904Y0004489D02*
X-0028126D01*
X-0027904Y0004711D01*
Y0004767D01*
X-0027932Y0004822D01*
X-0028098D01*
X-0028126Y0004767D01*
X-0028397Y0004655D02*
X-0028314Y0004489D01*
X-0028536Y0004655D02*
X-0028369D01*
X-0028314Y0004711D01*
Y0004767D01*
X-0028369Y0004822D01*
X-0028536D01*
Y0004489D01*
X-0027345Y0003924D02*
X-0027262Y0003758D01*
X-0027484Y0003924D02*
X-0027317D01*
X-0027262Y0003980D01*
Y0004035D01*
X-0027317Y0004091D01*
X-0027484D01*
Y0003758D01*
X-0027811D02*
X-0027866Y0003813D01*
X-0027894Y0003869D01*
Y0003980D01*
X-0027866Y0004035D01*
X-0027811Y0004091D01*
X-0027755D01*
X-0027699Y0004035D01*
X-0027672Y0003980D01*
Y0003869D01*
X-0027699Y0003813D01*
X-0027755Y0003758D01*
X-0027811D01*
X-0028082D02*
X-0028304D01*
X-0028082Y0003980D01*
Y0004035D01*
X-0028109Y0004091D01*
X-0028276D01*
X-0028304Y0004035D01*
X-0028492Y0003758D02*
X-0028714D01*
X-0028492Y0003980D01*
Y0004035D01*
X-0028519Y0004091D01*
X-0028686D01*
X-0028714Y0004035D01*
X-0036045Y0003523D02*
X-0036129Y0003689D01*
X-0035907Y0003523D02*
X-0036073D01*
X-0036129Y0003467D01*
Y0003412D01*
X-0036073Y0003356D01*
X-0035907D01*
Y0003689D01*
X-0035580D02*
X-0035524Y0003634D01*
X-0035497Y0003578D01*
Y0003467D01*
X-0035524Y0003412D01*
X-0035580Y0003356D01*
X-0035635D01*
X-0035691Y0003412D01*
X-0035719Y0003467D01*
Y0003578D01*
X-0035691Y0003634D01*
X-0035635Y0003689D01*
X-0035580D01*
X-0035142D02*
X-0035309Y0003356D01*
X-0035087D01*
X-0034899Y0003578D02*
X-0034677D01*
X-0034788Y0003356D01*
X-0034843D01*
Y0003689D01*
X-0034638Y0004629D02*
X-0034721Y0004796D01*
X-0034499Y0004629D02*
X-0034665D01*
X-0034721Y0004573D01*
Y0004518D01*
X-0034665Y0004462D01*
X-0034499D01*
Y0004796D01*
X-0033605Y0002000D02*
Y0001778D01*
X-0033827Y0002000D01*
X-0033883D01*
X-0033938Y0001973D01*
Y0001806D01*
X-0033883Y0001778D01*
X-0033771Y0001368D02*
Y0001535D01*
X-0033827Y0001590D01*
X-0033883D01*
X-0033938Y0001535D01*
Y0001368D01*
X-0033605D01*
Y0001069D02*
X-0033938D01*
Y0001180D02*
Y0000958D01*
X-0032416Y0003139D02*
Y0002916D01*
X-0032305Y0003139D02*
X-0032471D01*
X-0032638Y0003055D01*
Y0003000D01*
X-0032471Y0002916D01*
X-0032305D01*
X-0032471Y0001971D02*
Y0002138D01*
X-0032527Y0002194D01*
X-0032582D01*
X-0032638Y0002138D01*
Y0001971D01*
X-0032305D01*
Y0001784D02*
X-0032638D01*
X-0032582Y0001728D01*
X-0032471Y0001673D01*
X-0032582Y0001617D01*
X-0032638Y0001561D01*
X-0032305D01*
X-0032416Y0001374D02*
Y0001151D01*
X-0032305Y0001374D02*
X-0032471D01*
X-0032638Y0001290D01*
Y0001235D01*
X-0032471Y0001151D01*
X-0032305D01*
Y0000964D02*
Y0000769D01*
X-0032638D01*
X0000516Y0002591D02*
X0000578Y0002529D01*
X0000579D01*
X-0024738Y-0009221D02*
Y-0009346D01*
X-0023238D01*
Y-0009221D01*
Y-0008471D02*
Y-0008346D01*
X-0024738D01*
Y-0008471D01*
X-0037579Y0002557D02*
X-0038579D01*
Y0000557D01*
X-0037579D01*
Y0002557D01*
X-0023225Y-0000793D02*
X-0023600D01*
X-0021225D02*
X-0020850D01*
X-0023225Y-0000293D02*
X-0021225D01*
Y-0001293D01*
X-0023225D01*
Y-0000293D01*
X0003965Y0000290D02*
X0006965D01*
Y0002540D01*
X0003965D01*
Y0000290D01*
X0004715D02*
Y0002540D01*
X0003902Y0002602D02*
X0003964Y0002540D01*
X0003965D01*
X-0039421Y0002623D02*
X-0042421D01*
Y0000373D01*
X-0039421D01*
Y0002623D01*
X-0040171D02*
Y0000373D01*
X-0039358Y0000311D02*
X-0039420Y0000373D01*
X-0039421D01*
X-0036325Y0000575D02*
X-0035325D01*
Y0002575D01*
X-0036325D01*
Y0000575D01*
X-0015136Y0005001D02*
X-0014909Y0005342D01*
X-0014568Y0005569D01*
X-0014167Y0005649D01*
X-0013766Y0005569D01*
X-0013425Y0005342D01*
X-0013198Y0005001D01*
Y0004199D02*
X-0013425Y0003858D01*
X-0013417Y0003850D02*
X-0014901D01*
X-0014909Y0003858D01*
X-0015136Y0004199D01*
X-0042379Y0004154D02*
Y0005154D01*
X-0039629D01*
Y0004029D01*
Y0003154D02*
X-0042379D01*
X-0042254Y0004654D02*
X-0041754D01*
X-0028918Y0004181D02*
X-0029293D01*
X-0026918D02*
X-0026543D01*
X-0028918Y0004681D02*
X-0026918D01*
Y0003681D01*
X-0028918D01*
Y0004681D01*
X-0037669Y0004122D02*
X-0037294D01*
X-0033294Y0003247D02*
X-0037294D01*
Y0004997D01*
X-0033294D01*
Y0003247D01*
Y0004122D02*
X-0032919D01*
X-0031372Y0002700D02*
X-0034372D01*
Y0000450D01*
X-0031372D01*
Y0002700D01*
X-0032122D02*
Y0000450D01*
X-0031309Y0000388D02*
X-0031371Y0000450D01*
X-0031372D01*
X0000579Y0000279D02*
X0003579D01*
Y0002529D01*
X0000579D01*
Y0000279D01*
X0001329D02*
Y0002529D01*
G54D18*
G01X0007439Y0004758D02*
X0007437Y0005616D01*
X-0042955D01*
Y-0001244D01*
X-0042945Y-0001557D01*
X0007439D01*
Y0004758D01*
G54D10*
X-0024100Y-0000793D03*
X-0020350D03*
X-0029793Y0004181D03*
X-0026043D03*
X-0014167Y0004600D03*
X-0013167D03*
X-0032419Y0004122D03*
X-0038169D03*
G54D11*
X-0023488Y-0008846D03*
X-0024488D03*
X-0038079Y0001057D03*
Y0002057D03*
X-0035825Y0002075D03*
Y0001075D03*
G54D12*
X-0032872Y0002075D03*
X0002079Y0000904D03*
X0005465Y0000915D03*
X-0040921Y0001998D03*
G54D13*
X-0032872Y0001075D03*
X0002079Y0001904D03*
X0005465Y0001915D03*
X-0040921Y0000998D03*
G54D14*
X-0015167Y0004600D03*
G54D15*
X-0041004Y0004654D03*
X-0040004Y0003654D03*
G54D16*
X-0042004D03*
M02*
