  0
SECTION
  2
HEADER
  9
$ACADVER
  1
AC1009
  9
$LIMMIN
 10
13.975
 20
13.19411811023622
  9
$LIMMAX
 10
19.4061811023622
 20
14.66375590551181
  9
$GRIDMODE
 70
136
  9
$GRIDUNIT
 10
  0
 20
  0
  9
$SNAPMODE
 70
1
  9
$SNAPSTYLE
 70
0
  9
$SNAPUNIT
 10
0.0001968503937007874
 20
0.0001968503937007874
  9
$FILLMODE
 70
1
  0
ENDSEC
  0
SECTION
  2
TABLES
  0
TABLE
  2
LTYPE
 70
1
  0
LTYPE
  2
CONTINUOUS
 70
64
  3
Solid line
 72
65
 73
0
 40
  0
  0
ENDTAB
  0
TABLE
  2
LAYER
 70
224
  0
LAYER
  2
0
 70
64
  6
CONTINUOUS
 62
1
  0
LAYER
  2
PADSTACKS
 70
64
  6
CONTINUOUS
 62
1
  0
LAYER
  2
COMPONENTS_TOP
 70
64
  6
CONTINUOUS
 62
1
  0
LAYER
  2
COMPONENTS_BOTTOM
 70
64
  6
CONTINUOUS
 62
1
  0
LAYER
  2
GLOBAL_LAYER
 70
64
  6
CONTINUOUS
 62
1
  0
LAYER
  2
TOP
 70
64
  6
CONTINUOUS
 62
2
  0
LAYER
  2
BOTTOM
 70
64
  6
CONTINUOUS
 62
3
  0
LAYER
  2
GND
 70
64
  6
CONTINUOUS
 62
4
  0
LAYER
  2
INNER
 70
64
  6
CONTINUOUS
 62
5
  0
LAYER
  2
PLANE
 70
64
  6
CONTINUOUS
 62
6
  0
LAYER
  2
POWER
 70
64
  6
CONTINUOUS
 62
7
  0
LAYER
  2
INNER1
 70
64
  6
CONTINUOUS
 62
8
  0
LAYER
  2
INNER2
 70
64
  6
CONTINUOUS
 62
1
  0
LAYER
  2
INNER3
 70
64
  6
CONTINUOUS
 62
2
  0
LAYER
  2
INNER4
 70
64
  6
CONTINUOUS
 62
3
  0
LAYER
  2
INNER5
 70
64
  6
CONTINUOUS
 62
4
  0
LAYER
  2
INNER6
 70
64
  6
CONTINUOUS
 62
5
  0
LAYER
  2
INNER7
 70
64
  6
CONTINUOUS
 62
6
  0
LAYER
  2
INNER8
 70
64
  6
CONTINUOUS
 62
7
  0
LAYER
  2
INNER9
 70
64
  6
CONTINUOUS
 62
8
  0
LAYER
  2
INNER10
 70
64
  6
CONTINUOUS
 62
1
  0
LAYER
  2
INNER11
 70
64
  6
CONTINUOUS
 62
2
  0
LAYER
  2
INNER12
 70
64
  6
CONTINUOUS
 62
3
  0
LAYER
  2
INNER13
 70
64
  6
CONTINUOUS
 62
4
  0
LAYER
  2
INNER14
 70
64
  6
CONTINUOUS
 62
5
  0
LAYER
  2
INNER15
 70
64
  6
CONTINUOUS
 62
6
  0
LAYER
  2
INNER16
 70
64
  6
CONTINUOUS
 62
7
  0
LAYER
  2
SMTOP
 70
64
  6
CONTINUOUS
 62
8
  0
LAYER
  2
SMBOT
 70
64
  6
CONTINUOUS
 62
1
  0
LAYER
  2
SPTOP
 70
64
  6
CONTINUOUS
 62
2
  0
LAYER
  2
SPBOT
 70
64
  6
CONTINUOUS
 62
3
  0
LAYER
  2
SSTOP
 70
64
  6
CONTINUOUS
 62
4
  0
LAYER
  2
SSBOT
 70
64
  6
CONTINUOUS
 62
5
  0
LAYER
  2
ASYTOP
 70
64
  6
CONTINUOUS
 62
6
  0
LAYER
  2
ASYBOT
 70
64
  6
CONTINUOUS
 62
7
  0
LAYER
  2
DRLDWG
 70
64
  6
CONTINUOUS
 62
8
  0
LAYER
  2
DRILL
 70
64
  6
CONTINUOUS
 62
1
  0
LAYER
  2
FABDWG
 70
64
  6
CONTINUOUS
 62
2
  0
LAYER
  2
PHOTO
 70
64
  6
CONTINUOUS
 62
3
  0
LAYER
  2
HOLES
 70
64
  6
CONTINUOUS
 62
4
  0
LAYER
  2
TEXT_GLOBAL_LAYER
 70
64
  6
CONTINUOUS
 62
5
  0
LAYER
  2
TEXT_TOP
 70
64
  6
CONTINUOUS
 62
6
  0
LAYER
  2
TEXT_BOTTOM
 70
64
  6
CONTINUOUS
 62
7
  0
LAYER
  2
TEXT_GND
 70
64
  6
CONTINUOUS
 62
8
  0
LAYER
  2
TEXT_POWER
 70
64
  6
CONTINUOUS
 62
1
  0
LAYER
  2
TEXT_INNER
 70
64
  6
CONTINUOUS
 62
2
  0
LAYER
  2
TEXT_PLANE
 70
64
  6
CONTINUOUS
 62
3
  0
LAYER
  2
TEXT_INNER1
 70
64
  6
CONTINUOUS
 62
4
  0
LAYER
  2
TEXT_INNER2
 70
64
  6
CONTINUOUS
 62
5
  0
LAYER
  2
TEXT_INNER3
 70
64
  6
CONTINUOUS
 62
6
  0
LAYER
  2
TEXT_INNER4
 70
64
  6
CONTINUOUS
 62
7
  0
LAYER
  2
TEXT_INNER5
 70
64
  6
CONTINUOUS
 62
8
  0
LAYER
  2
TEXT_INNER6
 70
64
  6
CONTINUOUS
 62
1
  0
LAYER
  2
TEXT_INNER7
 70
64
  6
CONTINUOUS
 62
2
  0
LAYER
  2
TEXT_INNER8
 70
64
  6
CONTINUOUS
 62
3
  0
LAYER
  2
TEXT_INNER9
 70
64
  6
CONTINUOUS
 62
4
  0
LAYER
  2
TEXT_INNER10
 70
64
  6
CONTINUOUS
 62
5
  0
LAYER
  2
TEXT_INNER11
 70
64
  6
CONTINUOUS
 62
6
  0
LAYER
  2
TEXT_INNER12
 70
64
  6
CONTINUOUS
 62
7
  0
LAYER
  2
TEXT_INNER13
 70
64
  6
CONTINUOUS
 62
8
  0
LAYER
  2
TEXT_INNER14
 70
64
  6
CONTINUOUS
 62
1
  0
LAYER
  2
TEXT_INNER15
 70
64
  6
CONTINUOUS
 62
2
  0
LAYER
  2
TEXT_INNER16
 70
64
  6
CONTINUOUS
 62
3
  0
LAYER
  2
TEXT_SMTOP
 70
64
  6
CONTINUOUS
 62
4
  0
LAYER
  2
TEXT_SMBOT
 70
64
  6
CONTINUOUS
 62
5
  0
LAYER
  2
TEXT_SPTOP
 70
64
  6
CONTINUOUS
 62
6
  0
LAYER
  2
TEXT_SPBOT
 70
64
  6
CONTINUOUS
 62
7
  0
LAYER
  2
TEXT_SSTOP
 70
64
  6
CONTINUOUS
 62
8
  0
LAYER
  2
TEXT_SSBOT
 70
64
  6
CONTINUOUS
 62
1
  0
LAYER
  2
TEXT_ASYTOP
 70
64
  6
CONTINUOUS
 62
2
  0
LAYER
  2
TEXT_ASYBOT
 70
64
  6
CONTINUOUS
 62
3
  0
LAYER
  2
TEXT_DRLDWG
 70
64
  6
CONTINUOUS
 62
4
  0
LAYER
  2
TEXT_FABDWG
 70
64
  6
CONTINUOUS
 62
5
  0
LAYER
  2
TEXT_PHOTO
 70
64
  6
CONTINUOUS
 62
6
  0
LAYER
  2
TEXT_DRILL
 70
64
  6
CONTINUOUS
 62
7
  0
LAYER
  2
TEXT_HOLES
 70
64
  6
CONTINUOUS
 62
8
  0
LAYER
  2
OBS_GLOBAL_LAYER
 70
64
  6
CONTINUOUS
 62
1
  0
LAYER
  2
OBS_TOP
 70
64
  6
CONTINUOUS
 62
2
  0
LAYER
  2
OBS_BOTTOM
 70
64
  6
CONTINUOUS
 62
3
  0
LAYER
  2
OBS_GND
 70
64
  6
CONTINUOUS
 62
4
  0
LAYER
  2
OBS_POWER
 70
64
  6
CONTINUOUS
 62
5
  0
LAYER
  2
OBS_INNER
 70
64
  6
CONTINUOUS
 62
6
  0
LAYER
  2
OBS_PLANE
 70
64
  6
CONTINUOUS
 62
7
  0
LAYER
  2
OBS_INNER1
 70
64
  6
CONTINUOUS
 62
8
  0
LAYER
  2
OBS_INNER2
 70
64
  6
CONTINUOUS
 62
1
  0
LAYER
  2
OBS_INNER3
 70
64
  6
CONTINUOUS
 62
2
  0
LAYER
  2
OBS_INNER4
 70
64
  6
CONTINUOUS
 62
3
  0
LAYER
  2
OBS_INNER5
 70
64
  6
CONTINUOUS
 62
4
  0
LAYER
  2
OBS_INNER6
 70
64
  6
CONTINUOUS
 62
5
  0
LAYER
  2
OBS_INNER7
 70
64
  6
CONTINUOUS
 62
6
  0
LAYER
  2
OBS_INNER8
 70
64
  6
CONTINUOUS
 62
7
  0
LAYER
  2
OBS_INNER9
 70
64
  6
CONTINUOUS
 62
8
  0
LAYER
  2
OBS_INNER10
 70
64
  6
CONTINUOUS
 62
1
  0
LAYER
  2
OBS_INNER11
 70
64
  6
CONTINUOUS
 62
2
  0
LAYER
  2
OBS_INNER12
 70
64
  6
CONTINUOUS
 62
3
  0
LAYER
  2
OBS_INNER13
 70
64
  6
CONTINUOUS
 62
4
  0
LAYER
  2
OBS_INNER14
 70
64
  6
CONTINUOUS
 62
5
  0
LAYER
  2
OBS_INNER15
 70
64
  6
CONTINUOUS
 62
6
  0
LAYER
  2
OBS_INNER16
 70
64
  6
CONTINUOUS
 62
7
  0
LAYER
  2
OBS_SMTOP
 70
64
  6
CONTINUOUS
 62
8
  0
LAYER
  2
OBS_SMBOT
 70
64
  6
CONTINUOUS
 62
1
  0
LAYER
  2
OBS_SPTOP
 70
64
  6
CONTINUOUS
 62
2
  0
LAYER
  2
OBS_SPBOT
 70
64
  6
CONTINUOUS
 62
3
  0
LAYER
  2
OBS_SSTOP
 70
64
  6
CONTINUOUS
 62
4
  0
LAYER
  2
OBS_SSBOT
 70
64
  6
CONTINUOUS
 62
5
  0
LAYER
  2
OBS_ASYTOP
 70
64
  6
CONTINUOUS
 62
6
  0
LAYER
  2
OBS_ASYBOT
 70
64
  6
CONTINUOUS
 62
7
  0
LAYER
  2
OBS_DRLDWG
 70
64
  6
CONTINUOUS
 62
8
  0
LAYER
  2
OBS_DRILL
 70
64
  6
CONTINUOUS
 62
1
  0
LAYER
  2
OBS_FABDWG
 70
64
  6
CONTINUOUS
 62
2
  0
LAYER
  2
OBS_PHOTO
 70
64
  6
CONTINUOUS
 62
3
  0
LAYER
  2
OBS_HOLES
 70
64
  6
CONTINUOUS
 62
4
  0
LAYER
  2
COPPER_GLOBAL_LAYER
 70
64
  6
CONTINUOUS
 62
5
  0
LAYER
  2
COPPER_TOP
 70
64
  6
CONTINUOUS
 62
6
  0
LAYER
  2
COPPER_BOT
 70
64
  6
CONTINUOUS
 62
7
  0
LAYER
  2
COPPER_GND
 70
64
  6
CONTINUOUS
 62
8
  0
LAYER
  2
COPPER_POWER
 70
64
  6
CONTINUOUS
 62
1
  0
LAYER
  2
COPPER_INNER
 70
64
  6
CONTINUOUS
 62
2
  0
LAYER
  2
COPPER_PLANE
 70
64
  6
CONTINUOUS
 62
3
  0
LAYER
  2
COPPER_INNER1
 70
64
  6
CONTINUOUS
 62
4
  0
LAYER
  2
COPPER_INNER2
 70
64
  6
CONTINUOUS
 62
5
  0
LAYER
  2
COPPER_INNER3
 70
64
  6
CONTINUOUS
 62
6
  0
LAYER
  2
COPPER_INNER4
 70
64
  6
CONTINUOUS
 62
7
  0
LAYER
  2
COPPER_INNER5
 70
64
  6
CONTINUOUS
 62
8
  0
LAYER
  2
COPPER_INNER6
 70
64
  6
CONTINUOUS
 62
1
  0
LAYER
  2
COPPER_INNER7
 70
64
  6
CONTINUOUS
 62
2
  0
LAYER
  2
COPPER_INNER8
 70
64
  6
CONTINUOUS
 62
3
  0
LAYER
  2
COPPER_INNER9
 70
64
  6
CONTINUOUS
 62
4
  0
LAYER
  2
COPPER_INNER10
 70
64
  6
CONTINUOUS
 62
5
  0
LAYER
  2
COPPER_INNER11
 70
64
  6
CONTINUOUS
 62
6
  0
LAYER
  2
COPPER_INNER12
 70
64
  6
CONTINUOUS
 62
7
  0
LAYER
  2
COPPER_INNER13
 70
64
  6
CONTINUOUS
 62
8
  0
LAYER
  2
COPPER_INNER14
 70
64
  6
CONTINUOUS
 62
1
  0
LAYER
  2
COPPER_INNER15
 70
64
  6
CONTINUOUS
 62
2
  0
LAYER
  2
COPPER_INNER16
 70
64
  6
CONTINUOUS
 62
3
  0
LAYER
  2
COPPER_SMTOP
 70
64
  6
CONTINUOUS
 62
4
  0
LAYER
  2
COPPER_SMBOT
 70
64
  6
CONTINUOUS
 62
5
  0
LAYER
  2
COPPER_SPTOP
 70
64
  6
CONTINUOUS
 62
6
  0
LAYER
  2
COPPER_SPBOT
 70
64
  6
CONTINUOUS
 62
7
  0
LAYER
  2
COPPER_SSTOP
 70
64
  6
CONTINUOUS
 62
8
  0
LAYER
  2
COPPER_SSBOT
 70
64
  6
CONTINUOUS
 62
1
  0
LAYER
  2
COPPER_ASYTOP
 70
64
  6
CONTINUOUS
 62
2
  0
LAYER
  2
COPPER_ASYBOT
 70
64
  6
CONTINUOUS
 62
3
  0
LAYER
  2
COPPER_DRLDWG
 70
64
  6
CONTINUOUS
 62
4
  0
LAYER
  2
COPPER_DRILL
 70
64
  6
CONTINUOUS
 62
5
  0
LAYER
  2
COPPER_HOLES
 70
64
  6
CONTINUOUS
 62
6
  0
LAYER
  2
TRACKS_GLOBAL_LAYER
 70
64
  6
CONTINUOUS
 62
7
  0
LAYER
  2
TRACKS_TOP
 70
64
  6
CONTINUOUS
 62
8
  0
LAYER
  2
TRACKS_BOTTOM
 70
64
  6
CONTINUOUS
 62
1
  0
LAYER
  2
TRACKS_GND
 70
64
  6
CONTINUOUS
 62
2
  0
LAYER
  2
TRACKS_INNER
 70
64
  6
CONTINUOUS
 62
3
  0
LAYER
  2
TRACKS_PLANE
 70
64
  6
CONTINUOUS
 62
4
  0
LAYER
  2
TRACKS_POWER
 70
64
  6
CONTINUOUS
 62
5
  0
LAYER
  2
TRACKS_INNER1
 70
64
  6
CONTINUOUS
 62
6
  0
LAYER
  2
TRACKS_INNER2
 70
64
  6
CONTINUOUS
 62
7
  0
LAYER
  2
TRACKS_INNER3
 70
64
  6
CONTINUOUS
 62
8
  0
LAYER
  2
TRACKS_INNER4
 70
64
  6
CONTINUOUS
 62
1
  0
LAYER
  2
TRACKS_INNER5
 70
64
  6
CONTINUOUS
 62
2
  0
LAYER
  2
TRACKS_INNER6
 70
64
  6
CONTINUOUS
 62
3
  0
LAYER
  2
TRACKS_INNER7
 70
64
  6
CONTINUOUS
 62
4
  0
LAYER
  2
TRACKS_INNER8
 70
64
  6
CONTINUOUS
 62
5
  0
LAYER
  2
TRACKS_INNER9
 70
64
  6
CONTINUOUS
 62
6
  0
LAYER
  2
TRACKS_INNER10
 70
64
  6
CONTINUOUS
 62
7
  0
LAYER
  2
TRACKS_INNER11
 70
64
  6
CONTINUOUS
 62
8
  0
LAYER
  2
TRACKS_INNER12
 70
64
  6
CONTINUOUS
 62
1
  0
LAYER
  2
TRACKS_INNER13
 70
64
  6
CONTINUOUS
 62
2
  0
LAYER
  2
TRACKS_INNER14
 70
64
  6
CONTINUOUS
 62
3
  0
LAYER
  2
TRACKS_INNER15
 70
64
  6
CONTINUOUS
 62
4
  0
LAYER
  2
TRACKS_INNER16
 70
64
  6
CONTINUOUS
 62
5
  0
ENDTAB
  0
TABLE
  2
STYLE
 70
0
  0
ENDTAB
  0
ENDSEC
  0
SECTION
  2
BLOCKS
  0
BLOCK
  8
0
  2
viastack_VIA1
 10
0.0
 20
0.0
 30
0.0
 70
2
  0
POINT
  8
0
 10
  0
 20
  0
  0
POLYLINE
  8
TOP
 66
1
 70
1
 40
0.031
 41
0.031
  0
VERTEX
  8
TOP
 10
-0.0155
 20
  0
 42
  1
  0
VERTEX
  8
TOP
 10
0.0155
 20
  0
 42
  1
  0
SEQEND
  8
TOP
  0
POLYLINE
  8
BOTTOM
 66
1
 70
1
 40
0.031
 41
0.031
  0
VERTEX
  8
BOTTOM
 10
-0.0155
 20
  0
 42
  1
  0
VERTEX
  8
BOTTOM
 10
0.0155
 20
  0
 42
  1
  0
SEQEND
  8
BOTTOM
  0
POLYLINE
  8
GND
 66
1
 70
1
 40
0.035
 41
0.035
  0
VERTEX
  8
GND
 10
-0.0175
 20
  0
 42
  1
  0
VERTEX
  8
GND
 10
0.0175
 20
  0
 42
  1
  0
SEQEND
  8
GND
  0
POLYLINE
  8
POWER
 66
1
 70
1
 40
0.035
 41
0.035
  0
VERTEX
  8
POWER
 10
-0.0175
 20
  0
 42
  1
  0
VERTEX
  8
POWER
 10
0.0175
 20
  0
 42
  1
  0
SEQEND
  8
POWER
  0
POLYLINE
  8
INNER1
 66
1
 70
1
 40
0.031
 41
0.031
  0
VERTEX
  8
INNER1
 10
-0.0155
 20
  0
 42
  1
  0
VERTEX
  8
INNER1
 10
0.0155
 20
  0
 42
  1
  0
SEQEND
  8
INNER1
  0
POLYLINE
  8
INNER2
 66
1
 70
1
 40
0.031
 41
0.031
  0
VERTEX
  8
INNER2
 10
-0.0155
 20
  0
 42
  1
  0
VERTEX
  8
INNER2
 10
0.0155
 20
  0
 42
  1
  0
SEQEND
  8
INNER2
  0
POLYLINE
  8
INNER3
 66
1
 70
1
 40
0.031
 41
0.031
  0
VERTEX
  8
INNER3
 10
-0.0155
 20
  0
 42
  1
  0
VERTEX
  8
INNER3
 10
0.0155
 20
  0
 42
  1
  0
SEQEND
  8
INNER3
  0
POLYLINE
  8
INNER4
 66
1
 70
1
 40
0.031
 41
0.031
  0
VERTEX
  8
INNER4
 10
-0.0155
 20
  0
 42
  1
  0
VERTEX
  8
INNER4
 10
0.0155
 20
  0
 42
  1
  0
SEQEND
  8
INNER4
  0
POLYLINE
  8
INNER5
 66
1
 70
1
 40
0.031
 41
0.031
  0
VERTEX
  8
INNER5
 10
-0.0155
 20
  0
 42
  1
  0
VERTEX
  8
INNER5
 10
0.0155
 20
  0
 42
  1
  0
SEQEND
  8
INNER5
  0
POLYLINE
  8
INNER6
 66
1
 70
1
 40
0.031
 41
0.031
  0
VERTEX
  8
INNER6
 10
-0.0155
 20
  0
 42
  1
  0
VERTEX
  8
INNER6
 10
0.0155
 20
  0
 42
  1
  0
SEQEND
  8
INNER6
  0
POLYLINE
  8
INNER7
 66
1
 70
1
 40
0.031
 41
0.031
  0
VERTEX
  8
INNER7
 10
-0.0155
 20
  0
 42
  1
  0
VERTEX
  8
INNER7
 10
0.0155
 20
  0
 42
  1
  0
SEQEND
  8
INNER7
  0
POLYLINE
  8
INNER8
 66
1
 70
1
 40
0.031
 41
0.031
  0
VERTEX
  8
INNER8
 10
-0.0155
 20
  0
 42
  1
  0
VERTEX
  8
INNER8
 10
0.0155
 20
  0
 42
  1
  0
SEQEND
  8
INNER8
  0
POLYLINE
  8
INNER9
 66
1
 70
1
 40
0.031
 41
0.031
  0
VERTEX
  8
INNER9
 10
-0.0155
 20
  0
 42
  1
  0
VERTEX
  8
INNER9
 10
0.0155
 20
  0
 42
  1
  0
SEQEND
  8
INNER9
  0
POLYLINE
  8
INNER10
 66
1
 70
1
 40
0.031
 41
0.031
  0
VERTEX
  8
INNER10
 10
-0.0155
 20
  0
 42
  1
  0
VERTEX
  8
INNER10
 10
0.0155
 20
  0
 42
  1
  0
SEQEND
  8
INNER10
  0
POLYLINE
  8
INNER11
 66
1
 70
1
 40
0.031
 41
0.031
  0
VERTEX
  8
INNER11
 10
-0.0155
 20
  0
 42
  1
  0
VERTEX
  8
INNER11
 10
0.0155
 20
  0
 42
  1
  0
SEQEND
  8
INNER11
  0
POLYLINE
  8
INNER12
 66
1
 70
1
 40
0.031
 41
0.031
  0
VERTEX
  8
INNER12
 10
-0.0155
 20
  0
 42
  1
  0
VERTEX
  8
INNER12
 10
0.0155
 20
  0
 42
  1
  0
SEQEND
  8
INNER12
  0
POLYLINE
  8
SMTOP
 66
1
 70
1
 40
0.0335
 41
0.0335
  0
VERTEX
  8
SMTOP
 10
-0.01674803149606299
 20
  0
 42
  1
  0
VERTEX
  8
SMTOP
 10
0.01674803149606299
 20
  0
 42
  1
  0
SEQEND
  8
SMTOP
  0
POLYLINE
  8
SMBOT
 66
1
 70
1
 40
0.0335
 41
0.0335
  0
VERTEX
  8
SMBOT
 10
-0.01674803149606299
 20
  0
 42
  1
  0
VERTEX
  8
SMBOT
 10
0.01674803149606299
 20
  0
 42
  1
  0
SEQEND
  8
SMBOT
  0
POLYLINE
  8
DRLDWG
 66
1
 70
1
 40
0.019
 41
0.019
  0
VERTEX
  8
DRLDWG
 10
-0.0095
 20
  0
 42
  1
  0
VERTEX
  8
DRLDWG
 10
0.0095
 20
  0
 42
  1
  0
SEQEND
  8
DRLDWG
  0
POLYLINE
  8
DRILL
 66
1
 70
1
 40
0.019
 41
0.019
  0
VERTEX
  8
DRILL
 10
-0.0095
 20
  0
 42
  1
  0
VERTEX
  8
DRILL
 10
0.0095
 20
  0
 42
  1
  0
SEQEND
  8
DRILL
  0
POLYLINE
  8
FABDWG
 66
1
 70
1
 40
0.0335
 41
0.0335
  0
VERTEX
  8
FABDWG
 10
-0.01674803149606299
 20
  0
 42
  1
  0
VERTEX
  8
FABDWG
 10
0.01674803149606299
 20
  0
 42
  1
  0
SEQEND
  8
FABDWG
  0
POLYLINE
  8
NOTES
 66
1
 70
1
 40
0.0335
 41
0.0335
  0
VERTEX
  8
NOTES
 10
-0.01674803149606299
 20
  0
 42
  1
  0
VERTEX
  8
NOTES
 10
0.01674803149606299
 20
  0
 42
  1
  0
SEQEND
  8
NOTES
  0
ENDBLK
  0
BLOCK
  8
0
  2
viastack_VIA2
 10
0.0
 20
0.0
 30
0.0
 70
2
  0
POINT
  8
0
 10
  0
 20
  0
  0
ENDBLK
  0
BLOCK
  8
0
  2
viastack_VIA3
 10
0.0
 20
0.0
 30
0.0
 70
2
  0
POINT
  8
0
 10
  0
 20
  0
  0
ENDBLK
  0
BLOCK
  8
0
  2
viastack_VIA4
 10
0.0
 20
0.0
 30
0.0
 70
2
  0
POINT
  8
0
 10
  0
 20
  0
  0
ENDBLK
  0
BLOCK
  8
0
  2
viastack_VIA5
 10
0.0
 20
0.0
 30
0.0
 70
2
  0
POINT
  8
0
 10
  0
 20
  0
  0
ENDBLK
  0
BLOCK
  8
0
  2
viastack_VIA6
 10
0.0
 20
0.0
 30
0.0
 70
2
  0
POINT
  8
0
 10
  0
 20
  0
  0
ENDBLK
  0
BLOCK
  8
0
  2
viastack_VIA7
 10
0.0
 20
0.0
 30
0.0
 70
2
  0
POINT
  8
0
 10
  0
 20
  0
  0
ENDBLK
  0
BLOCK
  8
0
  2
viastack_VIA8
 10
0.0
 20
0.0
 30
0.0
 70
2
  0
POINT
  8
0
 10
  0
 20
  0
  0
ENDBLK
  0
BLOCK
  8
0
  2
viastack_VIA9
 10
0.0
 20
0.0
 30
0.0
 70
2
  0
POINT
  8
0
 10
  0
 20
  0
  0
ENDBLK
  0
BLOCK
  8
0
  2
viastack_VIA10
 10
0.0
 20
0.0
 30
0.0
 70
2
  0
POINT
  8
0
 10
  0
 20
  0
  0
ENDBLK
  0
BLOCK
  8
0
  2
viastack_VIA11
 10
0.0
 20
0.0
 30
0.0
 70
2
  0
POINT
  8
0
 10
  0
 20
  0
  0
ENDBLK
  0
BLOCK
  8
0
  2
viastack_VIA12
 10
0.0
 20
0.0
 30
0.0
 70
2
  0
POINT
  8
0
 10
  0
 20
  0
  0
ENDBLK
  0
BLOCK
  8
0
  2
viastack_VIA13
 10
0.0
 20
0.0
 30
0.0
 70
2
  0
POINT
  8
0
 10
  0
 20
  0
  0
ENDBLK
  0
BLOCK
  8
0
  2
viastack_VIA14
 10
0.0
 20
0.0
 30
0.0
 70
2
  0
POINT
  8
0
 10
  0
 20
  0
  0
ENDBLK
  0
BLOCK
  8
0
  2
viastack_VIA15
 10
0.0
 20
0.0
 30
0.0
 70
2
  0
POINT
  8
0
 10
  0
 20
  0
  0
ENDBLK
  0
BLOCK
  8
0
  2
viastack_VIA16
 10
0.0
 20
0.0
 30
0.0
 70
2
  0
POINT
  8
0
 10
  0
 20
  0
  0
ENDBLK
  0
BLOCK
  8
0
  2
padstack_J1
 10
0.0
 20
0.0
 30
0.0
 70
2
  0
POINT
  8
0
 10
  0
 20
  0
  0
POLYLINE
  8
TOP
 66
1
 70
1
 40
0.031
 41
0.031
  0
VERTEX
  8
TOP
 10
-0.0155
 20
  0
 42
  1
  0
VERTEX
  8
TOP
 10
0.0155
 20
  0
 42
  1
  0
SEQEND
  8
TOP
  0
POLYLINE
  8
BOTTOM
 66
1
 70
1
 40
0.031
 41
0.031
  0
VERTEX
  8
BOTTOM
 10
-0.0155
 20
  0
 42
  1
  0
VERTEX
  8
BOTTOM
 10
0.0155
 20
  0
 42
  1
  0
SEQEND
  8
BOTTOM
  0
POLYLINE
  8
GND
 66
1
 70
1
 40
0.035
 41
0.035
  0
VERTEX
  8
GND
 10
-0.0175
 20
  0
 42
  1
  0
VERTEX
  8
GND
 10
0.0175
 20
  0
 42
  1
  0
SEQEND
  8
GND
  0
POLYLINE
  8
POWER
 66
1
 70
1
 40
0.035
 41
0.035
  0
VERTEX
  8
POWER
 10
-0.0175
 20
  0
 42
  1
  0
VERTEX
  8
POWER
 10
0.0175
 20
  0
 42
  1
  0
SEQEND
  8
POWER
  0
POLYLINE
  8
INNER1
 66
1
 70
1
 40
0.031
 41
0.031
  0
VERTEX
  8
INNER1
 10
-0.0155
 20
  0
 42
  1
  0
VERTEX
  8
INNER1
 10
0.0155
 20
  0
 42
  1
  0
SEQEND
  8
INNER1
  0
POLYLINE
  8
INNER2
 66
1
 70
1
 40
0.031
 41
0.031
  0
VERTEX
  8
INNER2
 10
-0.0155
 20
  0
 42
  1
  0
VERTEX
  8
INNER2
 10
0.0155
 20
  0
 42
  1
  0
SEQEND
  8
INNER2
  0
POLYLINE
  8
INNER3
 66
1
 70
1
 40
0.031
 41
0.031
  0
VERTEX
  8
INNER3
 10
-0.0155
 20
  0
 42
  1
  0
VERTEX
  8
INNER3
 10
0.0155
 20
  0
 42
  1
  0
SEQEND
  8
INNER3
  0
POLYLINE
  8
INNER4
 66
1
 70
1
 40
0.031
 41
0.031
  0
VERTEX
  8
INNER4
 10
-0.0155
 20
  0
 42
  1
  0
VERTEX
  8
INNER4
 10
0.0155
 20
  0
 42
  1
  0
SEQEND
  8
INNER4
  0
POLYLINE
  8
INNER5
 66
1
 70
1
 40
0.031
 41
0.031
  0
VERTEX
  8
INNER5
 10
-0.0155
 20
  0
 42
  1
  0
VERTEX
  8
INNER5
 10
0.0155
 20
  0
 42
  1
  0
SEQEND
  8
INNER5
  0
POLYLINE
  8
INNER6
 66
1
 70
1
 40
0.031
 41
0.031
  0
VERTEX
  8
INNER6
 10
-0.0155
 20
  0
 42
  1
  0
VERTEX
  8
INNER6
 10
0.0155
 20
  0
 42
  1
  0
SEQEND
  8
INNER6
  0
POLYLINE
  8
INNER7
 66
1
 70
1
 40
0.031
 41
0.031
  0
VERTEX
  8
INNER7
 10
-0.0155
 20
  0
 42
  1
  0
VERTEX
  8
INNER7
 10
0.0155
 20
  0
 42
  1
  0
SEQEND
  8
INNER7
  0
POLYLINE
  8
INNER8
 66
1
 70
1
 40
0.031
 41
0.031
  0
VERTEX
  8
INNER8
 10
-0.0155
 20
  0
 42
  1
  0
VERTEX
  8
INNER8
 10
0.0155
 20
  0
 42
  1
  0
SEQEND
  8
INNER8
  0
POLYLINE
  8
INNER9
 66
1
 70
1
 40
0.031
 41
0.031
  0
VERTEX
  8
INNER9
 10
-0.0155
 20
  0
 42
  1
  0
VERTEX
  8
INNER9
 10
0.0155
 20
  0
 42
  1
  0
SEQEND
  8
INNER9
  0
POLYLINE
  8
INNER10
 66
1
 70
1
 40
0.031
 41
0.031
  0
VERTEX
  8
INNER10
 10
-0.0155
 20
  0
 42
  1
  0
VERTEX
  8
INNER10
 10
0.0155
 20
  0
 42
  1
  0
SEQEND
  8
INNER10
  0
POLYLINE
  8
INNER11
 66
1
 70
1
 40
0.031
 41
0.031
  0
VERTEX
  8
INNER11
 10
-0.0155
 20
  0
 42
  1
  0
VERTEX
  8
INNER11
 10
0.0155
 20
  0
 42
  1
  0
SEQEND
  8
INNER11
  0
POLYLINE
  8
INNER12
 66
1
 70
1
 40
0.031
 41
0.031
  0
VERTEX
  8
INNER12
 10
-0.0155
 20
  0
 42
  1
  0
VERTEX
  8
INNER12
 10
0.0155
 20
  0
 42
  1
  0
SEQEND
  8
INNER12
  0
POLYLINE
  8
SMTOP
 66
1
 70
1
 40
0.0335
 41
0.0335
  0
VERTEX
  8
SMTOP
 10
-0.01674803149606299
 20
  0
 42
  1
  0
VERTEX
  8
SMTOP
 10
0.01674803149606299
 20
  0
 42
  1
  0
SEQEND
  8
SMTOP
  0
POLYLINE
  8
SMBOT
 66
1
 70
1
 40
0.0335
 41
0.0335
  0
VERTEX
  8
SMBOT
 10
-0.01674803149606299
 20
  0
 42
  1
  0
VERTEX
  8
SMBOT
 10
0.01674803149606299
 20
  0
 42
  1
  0
SEQEND
  8
SMBOT
  0
POLYLINE
  8
DRLDWG
 66
1
 70
1
 40
0.019
 41
0.019
  0
VERTEX
  8
DRLDWG
 10
-0.0095
 20
  0
 42
  1
  0
VERTEX
  8
DRLDWG
 10
0.0095
 20
  0
 42
  1
  0
SEQEND
  8
DRLDWG
  0
POLYLINE
  8
DRILL
 66
1
 70
1
 40
0.019
 41
0.019
  0
VERTEX
  8
DRILL
 10
-0.0095
 20
  0
 42
  1
  0
VERTEX
  8
DRILL
 10
0.0095
 20
  0
 42
  1
  0
SEQEND
  8
DRILL
  0
POLYLINE
  8
FABDWG
 66
1
 70
1
 40
0.0335
 41
0.0335
  0
VERTEX
  8
FABDWG
 10
-0.01674803149606299
 20
  0
 42
  1
  0
VERTEX
  8
FABDWG
 10
0.01674803149606299
 20
  0
 42
  1
  0
SEQEND
  8
FABDWG
  0
POLYLINE
  8
NOTES
 66
1
 70
1
 40
0.0335
 41
0.0335
  0
VERTEX
  8
NOTES
 10
-0.01674803149606299
 20
  0
 42
  1
  0
VERTEX
  8
NOTES
 10
0.01674803149606299
 20
  0
 42
  1
  0
SEQEND
  8
NOTES
  0
ENDBLK
  0
BLOCK
  8
0
  2
padstack_T2
 10
0.0
 20
0.0
 30
0.0
 70
2
  0
POINT
  8
0
 10
  0
 20
  0
  0
POLYLINE
  8
TOP
 66
1
 70
0
 40
0.062
 41
0.062
  0
VERTEX
  8
TOP
 10
-0.031
 20
  0
  0
VERTEX
  8
TOP
 10
0.031
 20
  0
  0
SEQEND
  8
TOP
  0
POLYLINE
  8
BOTTOM
 66
1
 70
1
 40
0.031
 41
0.031
  0
VERTEX
  8
BOTTOM
 10
-0.0155
 20
  0
 42
  1
  0
VERTEX
  8
BOTTOM
 10
0.0155
 20
  0
 42
  1
  0
SEQEND
  8
BOTTOM
  0
POLYLINE
  8
GND
 66
1
 70
1
 40
0.035
 41
0.035
  0
VERTEX
  8
GND
 10
-0.0175
 20
  0
 42
  1
  0
VERTEX
  8
GND
 10
0.0175
 20
  0
 42
  1
  0
SEQEND
  8
GND
  0
POLYLINE
  8
POWER
 66
1
 70
1
 40
0.035
 41
0.035
  0
VERTEX
  8
POWER
 10
-0.0175
 20
  0
 42
  1
  0
VERTEX
  8
POWER
 10
0.0175
 20
  0
 42
  1
  0
SEQEND
  8
POWER
  0
POLYLINE
  8
INNER1
 66
1
 70
1
 40
0.031
 41
0.031
  0
VERTEX
  8
INNER1
 10
-0.0155
 20
  0
 42
  1
  0
VERTEX
  8
INNER1
 10
0.0155
 20
  0
 42
  1
  0
SEQEND
  8
INNER1
  0
POLYLINE
  8
INNER2
 66
1
 70
1
 40
0.031
 41
0.031
  0
VERTEX
  8
INNER2
 10
-0.0155
 20
  0
 42
  1
  0
VERTEX
  8
INNER2
 10
0.0155
 20
  0
 42
  1
  0
SEQEND
  8
INNER2
  0
POLYLINE
  8
INNER3
 66
1
 70
1
 40
0.031
 41
0.031
  0
VERTEX
  8
INNER3
 10
-0.0155
 20
  0
 42
  1
  0
VERTEX
  8
INNER3
 10
0.0155
 20
  0
 42
  1
  0
SEQEND
  8
INNER3
  0
POLYLINE
  8
INNER4
 66
1
 70
1
 40
0.031
 41
0.031
  0
VERTEX
  8
INNER4
 10
-0.0155
 20
  0
 42
  1
  0
VERTEX
  8
INNER4
 10
0.0155
 20
  0
 42
  1
  0
SEQEND
  8
INNER4
  0
POLYLINE
  8
INNER5
 66
1
 70
1
 40
0.031
 41
0.031
  0
VERTEX
  8
INNER5
 10
-0.0155
 20
  0
 42
  1
  0
VERTEX
  8
INNER5
 10
0.0155
 20
  0
 42
  1
  0
SEQEND
  8
INNER5
  0
POLYLINE
  8
INNER6
 66
1
 70
1
 40
0.031
 41
0.031
  0
VERTEX
  8
INNER6
 10
-0.0155
 20
  0
 42
  1
  0
VERTEX
  8
INNER6
 10
0.0155
 20
  0
 42
  1
  0
SEQEND
  8
INNER6
  0
POLYLINE
  8
INNER7
 66
1
 70
1
 40
0.031
 41
0.031
  0
VERTEX
  8
INNER7
 10
-0.0155
 20
  0
 42
  1
  0
VERTEX
  8
INNER7
 10
0.0155
 20
  0
 42
  1
  0
SEQEND
  8
INNER7
  0
POLYLINE
  8
INNER8
 66
1
 70
1
 40
0.031
 41
0.031
  0
VERTEX
  8
INNER8
 10
-0.0155
 20
  0
 42
  1
  0
VERTEX
  8
INNER8
 10
0.0155
 20
  0
 42
  1
  0
SEQEND
  8
INNER8
  0
POLYLINE
  8
INNER9
 66
1
 70
1
 40
0.031
 41
0.031
  0
VERTEX
  8
INNER9
 10
-0.0155
 20
  0
 42
  1
  0
VERTEX
  8
INNER9
 10
0.0155
 20
  0
 42
  1
  0
SEQEND
  8
INNER9
  0
POLYLINE
  8
INNER10
 66
1
 70
1
 40
0.031
 41
0.031
  0
VERTEX
  8
INNER10
 10
-0.0155
 20
  0
 42
  1
  0
VERTEX
  8
INNER10
 10
0.0155
 20
  0
 42
  1
  0
SEQEND
  8
INNER10
  0
POLYLINE
  8
INNER11
 66
1
 70
1
 40
0.031
 41
0.031
  0
VERTEX
  8
INNER11
 10
-0.0155
 20
  0
 42
  1
  0
VERTEX
  8
INNER11
 10
0.0155
 20
  0
 42
  1
  0
SEQEND
  8
INNER11
  0
POLYLINE
  8
INNER12
 66
1
 70
1
 40
0.031
 41
0.031
  0
VERTEX
  8
INNER12
 10
-0.0155
 20
  0
 42
  1
  0
VERTEX
  8
INNER12
 10
0.0155
 20
  0
 42
  1
  0
SEQEND
  8
INNER12
  0
POLYLINE
  8
SMTOP
 66
1
 70
0
 40
0.067
 41
0.067
  0
VERTEX
  8
SMTOP
 10
-0.0335
 20
  0
  0
VERTEX
  8
SMTOP
 10
0.0335
 20
  0
  0
SEQEND
  8
SMTOP
  0
POLYLINE
  8
SMBOT
 66
1
 70
1
 40
0.0335
 41
0.0335
  0
VERTEX
  8
SMBOT
 10
-0.01674803149606299
 20
  0
 42
  1
  0
VERTEX
  8
SMBOT
 10
0.01674803149606299
 20
  0
 42
  1
  0
SEQEND
  8
SMBOT
  0
POLYLINE
  8
DRLDWG
 66
1
 70
1
 40
0.019
 41
0.019
  0
VERTEX
  8
DRLDWG
 10
-0.0095
 20
  0
 42
  1
  0
VERTEX
  8
DRLDWG
 10
0.0095
 20
  0
 42
  1
  0
SEQEND
  8
DRLDWG
  0
POLYLINE
  8
DRILL
 66
1
 70
1
 40
0.019
 41
0.019
  0
VERTEX
  8
DRILL
 10
-0.0095
 20
  0
 42
  1
  0
VERTEX
  8
DRILL
 10
0.0095
 20
  0
 42
  1
  0
SEQEND
  8
DRILL
  0
POLYLINE
  8
FABDWG
 66
1
 70
0
 40
0.067
 41
0.067
  0
VERTEX
  8
FABDWG
 10
-0.0335
 20
  0
  0
VERTEX
  8
FABDWG
 10
0.0335
 20
  0
  0
SEQEND
  8
FABDWG
  0
POLYLINE
  8
NOTES
 66
1
 70
0
 40
0.067
 41
0.067
  0
VERTEX
  8
NOTES
 10
-0.0335
 20
  0
  0
VERTEX
  8
NOTES
 10
0.0335
 20
  0
  0
SEQEND
  8
NOTES
  0
ENDBLK
  0
BLOCK
  8
0
  2
padstack_T7
 10
0.0
 20
0.0
 30
0.0
 70
2
  0
POINT
  8
0
 10
  0
 20
  0
  0
POLYLINE
  8
TOP
 66
1
 70
1
 40
0.02
 41
0.02
  0
VERTEX
  8
TOP
 10
-0.01
 20
  0
 42
  1
  0
VERTEX
  8
TOP
 10
0.01
 20
  0
 42
  1
  0
SEQEND
  8
TOP
  0
POLYLINE
  8
BOTTOM
 66
1
 70
1
 40
0.02
 41
0.02
  0
VERTEX
  8
BOTTOM
 10
-0.01
 20
  0
 42
  1
  0
VERTEX
  8
BOTTOM
 10
0.01
 20
  0
 42
  1
  0
SEQEND
  8
BOTTOM
  0
POLYLINE
  8
GND
 66
1
 70
1
 40
0.025
 41
0.025
  0
VERTEX
  8
GND
 10
-0.0125
 20
  0
 42
  1
  0
VERTEX
  8
GND
 10
0.0125
 20
  0
 42
  1
  0
SEQEND
  8
GND
  0
POLYLINE
  8
POWER
 66
1
 70
1
 40
0.025
 41
0.025
  0
VERTEX
  8
POWER
 10
-0.0125
 20
  0
 42
  1
  0
VERTEX
  8
POWER
 10
0.0125
 20
  0
 42
  1
  0
SEQEND
  8
POWER
  0
POLYLINE
  8
INNER1
 66
1
 70
1
 40
0.02
 41
0.02
  0
VERTEX
  8
INNER1
 10
-0.01
 20
  0
 42
  1
  0
VERTEX
  8
INNER1
 10
0.01
 20
  0
 42
  1
  0
SEQEND
  8
INNER1
  0
POLYLINE
  8
INNER2
 66
1
 70
1
 40
0.02
 41
0.02
  0
VERTEX
  8
INNER2
 10
-0.01
 20
  0
 42
  1
  0
VERTEX
  8
INNER2
 10
0.01
 20
  0
 42
  1
  0
SEQEND
  8
INNER2
  0
POLYLINE
  8
INNER3
 66
1
 70
1
 40
0.02
 41
0.02
  0
VERTEX
  8
INNER3
 10
-0.01
 20
  0
 42
  1
  0
VERTEX
  8
INNER3
 10
0.01
 20
  0
 42
  1
  0
SEQEND
  8
INNER3
  0
POLYLINE
  8
INNER4
 66
1
 70
1
 40
0.02
 41
0.02
  0
VERTEX
  8
INNER4
 10
-0.01
 20
  0
 42
  1
  0
VERTEX
  8
INNER4
 10
0.01
 20
  0
 42
  1
  0
SEQEND
  8
INNER4
  0
POLYLINE
  8
INNER5
 66
1
 70
1
 40
0.02
 41
0.02
  0
VERTEX
  8
INNER5
 10
-0.01
 20
  0
 42
  1
  0
VERTEX
  8
INNER5
 10
0.01
 20
  0
 42
  1
  0
SEQEND
  8
INNER5
  0
POLYLINE
  8
INNER6
 66
1
 70
1
 40
0.02
 41
0.02
  0
VERTEX
  8
INNER6
 10
-0.01
 20
  0
 42
  1
  0
VERTEX
  8
INNER6
 10
0.01
 20
  0
 42
  1
  0
SEQEND
  8
INNER6
  0
POLYLINE
  8
INNER7
 66
1
 70
1
 40
0.02
 41
0.02
  0
VERTEX
  8
INNER7
 10
-0.01
 20
  0
 42
  1
  0
VERTEX
  8
INNER7
 10
0.01
 20
  0
 42
  1
  0
SEQEND
  8
INNER7
  0
POLYLINE
  8
INNER8
 66
1
 70
1
 40
0.02
 41
0.02
  0
VERTEX
  8
INNER8
 10
-0.01
 20
  0
 42
  1
  0
VERTEX
  8
INNER8
 10
0.01
 20
  0
 42
  1
  0
SEQEND
  8
INNER8
  0
POLYLINE
  8
INNER9
 66
1
 70
1
 40
0.02
 41
0.02
  0
VERTEX
  8
INNER9
 10
-0.01
 20
  0
 42
  1
  0
VERTEX
  8
INNER9
 10
0.01
 20
  0
 42
  1
  0
SEQEND
  8
INNER9
  0
POLYLINE
  8
INNER10
 66
1
 70
1
 40
0.02
 41
0.02
  0
VERTEX
  8
INNER10
 10
-0.01
 20
  0
 42
  1
  0
VERTEX
  8
INNER10
 10
0.01
 20
  0
 42
  1
  0
SEQEND
  8
INNER10
  0
POLYLINE
  8
INNER11
 66
1
 70
1
 40
0.02
 41
0.02
  0
VERTEX
  8
INNER11
 10
-0.01
 20
  0
 42
  1
  0
VERTEX
  8
INNER11
 10
0.01
 20
  0
 42
  1
  0
SEQEND
  8
INNER11
  0
POLYLINE
  8
INNER12
 66
1
 70
1
 40
0.02
 41
0.02
  0
VERTEX
  8
INNER12
 10
-0.01
 20
  0
 42
  1
  0
VERTEX
  8
INNER12
 10
0.01
 20
  0
 42
  1
  0
SEQEND
  8
INNER12
  0
POLYLINE
  8
SMTOP
 66
1
 70
1
 40
0.0235
 41
0.0235
  0
VERTEX
  8
SMTOP
 10
-0.01174803149606299
 20
  0
 42
  1
  0
VERTEX
  8
SMTOP
 10
0.01174803149606299
 20
  0
 42
  1
  0
SEQEND
  8
SMTOP
  0
POLYLINE
  8
SMBOT
 66
1
 70
1
 40
0.0235
 41
0.0235
  0
VERTEX
  8
SMBOT
 10
-0.01174803149606299
 20
  0
 42
  1
  0
VERTEX
  8
SMBOT
 10
0.01174803149606299
 20
  0
 42
  1
  0
SEQEND
  8
SMBOT
  0
POLYLINE
  8
DRLDWG
 66
1
 70
1
 40
0.011
 41
0.011
  0
VERTEX
  8
DRLDWG
 10
-0.005500000000000001
 20
  0
 42
  1
  0
VERTEX
  8
DRLDWG
 10
0.005500000000000001
 20
  0
 42
  1
  0
SEQEND
  8
DRLDWG
  0
POLYLINE
  8
DRILL
 66
1
 70
1
 40
0.011
 41
0.011
  0
VERTEX
  8
DRILL
 10
-0.005500000000000001
 20
  0
 42
  1
  0
VERTEX
  8
DRILL
 10
0.005500000000000001
 20
  0
 42
  1
  0
SEQEND
  8
DRILL
  0
POLYLINE
  8
FABDWG
 66
1
 70
1
 40
0.0235
 41
0.0235
  0
VERTEX
  8
FABDWG
 10
-0.01174803149606299
 20
  0
 42
  1
  0
VERTEX
  8
FABDWG
 10
0.01174803149606299
 20
  0
 42
  1
  0
SEQEND
  8
FABDWG
  0
POLYLINE
  8
NOTES
 66
1
 70
1
 40
0.0235
 41
0.0235
  0
VERTEX
  8
NOTES
 10
-0.01174803149606299
 20
  0
 42
  1
  0
VERTEX
  8
NOTES
 10
0.01174803149606299
 20
  0
 42
  1
  0
SEQEND
  8
NOTES
  0
ENDBLK
  0
BLOCK
  8
0
  2
padstack_TM_AXIAL_llb_pad1
 10
0.0
 20
0.0
 30
0.0
 70
2
  0
POINT
  8
0
 10
  0
 20
  0
  0
POLYLINE
  8
TOP
 66
1
 70
1
 40
0.0275
 41
0.0275
  0
VERTEX
  8
TOP
 10
-0.01374803149606299
 20
  0
 42
  1
  0
VERTEX
  8
TOP
 10
0.01374803149606299
 20
  0
 42
  1
  0
SEQEND
  8
TOP
  0
POLYLINE
  8
BOTTOM
 66
1
 70
1
 40
0.0275
 41
0.0275
  0
VERTEX
  8
BOTTOM
 10
-0.01374803149606299
 20
  0
 42
  1
  0
VERTEX
  8
BOTTOM
 10
0.01374803149606299
 20
  0
 42
  1
  0
SEQEND
  8
BOTTOM
  0
POLYLINE
  8
GND
 66
1
 70
1
 40
0.0375
 41
0.0375
  0
VERTEX
  8
GND
 10
-0.01874803149606299
 20
  0
 42
  1
  0
VERTEX
  8
GND
 10
0.01874803149606299
 20
  0
 42
  1
  0
SEQEND
  8
GND
  0
POLYLINE
  8
POWER
 66
1
 70
1
 40
0.0375
 41
0.0375
  0
VERTEX
  8
POWER
 10
-0.01874803149606299
 20
  0
 42
  1
  0
VERTEX
  8
POWER
 10
0.01874803149606299
 20
  0
 42
  1
  0
SEQEND
  8
POWER
  0
POLYLINE
  8
INNER1
 66
1
 70
1
 40
0.0275
 41
0.0275
  0
VERTEX
  8
INNER1
 10
-0.01374803149606299
 20
  0
 42
  1
  0
VERTEX
  8
INNER1
 10
0.01374803149606299
 20
  0
 42
  1
  0
SEQEND
  8
INNER1
  0
POLYLINE
  8
INNER2
 66
1
 70
1
 40
0.0275
 41
0.0275
  0
VERTEX
  8
INNER2
 10
-0.01374803149606299
 20
  0
 42
  1
  0
VERTEX
  8
INNER2
 10
0.01374803149606299
 20
  0
 42
  1
  0
SEQEND
  8
INNER2
  0
POLYLINE
  8
INNER3
 66
1
 70
1
 40
0.0275
 41
0.0275
  0
VERTEX
  8
INNER3
 10
-0.01374803149606299
 20
  0
 42
  1
  0
VERTEX
  8
INNER3
 10
0.01374803149606299
 20
  0
 42
  1
  0
SEQEND
  8
INNER3
  0
POLYLINE
  8
INNER4
 66
1
 70
1
 40
0.0275
 41
0.0275
  0
VERTEX
  8
INNER4
 10
-0.01374803149606299
 20
  0
 42
  1
  0
VERTEX
  8
INNER4
 10
0.01374803149606299
 20
  0
 42
  1
  0
SEQEND
  8
INNER4
  0
POLYLINE
  8
INNER5
 66
1
 70
1
 40
0.0275
 41
0.0275
  0
VERTEX
  8
INNER5
 10
-0.01374803149606299
 20
  0
 42
  1
  0
VERTEX
  8
INNER5
 10
0.01374803149606299
 20
  0
 42
  1
  0
SEQEND
  8
INNER5
  0
POLYLINE
  8
INNER6
 66
1
 70
1
 40
0.0275
 41
0.0275
  0
VERTEX
  8
INNER6
 10
-0.01374803149606299
 20
  0
 42
  1
  0
VERTEX
  8
INNER6
 10
0.01374803149606299
 20
  0
 42
  1
  0
SEQEND
  8
INNER6
  0
POLYLINE
  8
INNER7
 66
1
 70
1
 40
0.0275
 41
0.0275
  0
VERTEX
  8
INNER7
 10
-0.01374803149606299
 20
  0
 42
  1
  0
VERTEX
  8
INNER7
 10
0.01374803149606299
 20
  0
 42
  1
  0
SEQEND
  8
INNER7
  0
POLYLINE
  8
INNER8
 66
1
 70
1
 40
0.0275
 41
0.0275
  0
VERTEX
  8
INNER8
 10
-0.01374803149606299
 20
  0
 42
  1
  0
VERTEX
  8
INNER8
 10
0.01374803149606299
 20
  0
 42
  1
  0
SEQEND
  8
INNER8
  0
POLYLINE
  8
INNER9
 66
1
 70
1
 40
0.0275
 41
0.0275
  0
VERTEX
  8
INNER9
 10
-0.01374803149606299
 20
  0
 42
  1
  0
VERTEX
  8
INNER9
 10
0.01374803149606299
 20
  0
 42
  1
  0
SEQEND
  8
INNER9
  0
POLYLINE
  8
INNER10
 66
1
 70
1
 40
0.0275
 41
0.0275
  0
VERTEX
  8
INNER10
 10
-0.01374803149606299
 20
  0
 42
  1
  0
VERTEX
  8
INNER10
 10
0.01374803149606299
 20
  0
 42
  1
  0
SEQEND
  8
INNER10
  0
POLYLINE
  8
INNER11
 66
1
 70
1
 40
0.0275
 41
0.0275
  0
VERTEX
  8
INNER11
 10
-0.01374803149606299
 20
  0
 42
  1
  0
VERTEX
  8
INNER11
 10
0.01374803149606299
 20
  0
 42
  1
  0
SEQEND
  8
INNER11
  0
POLYLINE
  8
INNER12
 66
1
 70
1
 40
0.0275
 41
0.0275
  0
VERTEX
  8
INNER12
 10
-0.01374803149606299
 20
  0
 42
  1
  0
VERTEX
  8
INNER12
 10
0.01374803149606299
 20
  0
 42
  1
  0
SEQEND
  8
INNER12
  0
POLYLINE
  8
SMTOP
 66
1
 70
1
 40
0.0275
 41
0.0275
  0
VERTEX
  8
SMTOP
 10
-0.01374803149606299
 20
  0
 42
  1
  0
VERTEX
  8
SMTOP
 10
0.01374803149606299
 20
  0
 42
  1
  0
SEQEND
  8
SMTOP
  0
POLYLINE
  8
SMBOT
 66
1
 70
1
 40
0.0275
 41
0.0275
  0
VERTEX
  8
SMBOT
 10
-0.01374803149606299
 20
  0
 42
  1
  0
VERTEX
  8
SMBOT
 10
0.01374803149606299
 20
  0
 42
  1
  0
SEQEND
  8
SMBOT
  0
POLYLINE
  8
ASYTOP
 66
1
 70
1
 40
0.0275
 41
0.0275
  0
VERTEX
  8
ASYTOP
 10
-0.01374803149606299
 20
  0
 42
  1
  0
VERTEX
  8
ASYTOP
 10
0.01374803149606299
 20
  0
 42
  1
  0
SEQEND
  8
ASYTOP
  0
POLYLINE
  8
ASYBOT
 66
1
 70
1
 40
0.0275
 41
0.0275
  0
VERTEX
  8
ASYBOT
 10
-0.01374803149606299
 20
  0
 42
  1
  0
VERTEX
  8
ASYBOT
 10
0.01374803149606299
 20
  0
 42
  1
  0
SEQEND
  8
ASYBOT
  0
POLYLINE
  8
DRLDWG
 66
1
 70
1
 40
0.017
 41
0.017
  0
VERTEX
  8
DRLDWG
 10
-0.008500000000000001
 20
  0
 42
  1
  0
VERTEX
  8
DRLDWG
 10
0.008500000000000001
 20
  0
 42
  1
  0
SEQEND
  8
DRLDWG
  0
POLYLINE
  8
DRILL
 66
1
 70
1
 40
0.017
 41
0.017
  0
VERTEX
  8
DRILL
 10
-0.008500000000000001
 20
  0
 42
  1
  0
VERTEX
  8
DRILL
 10
0.008500000000000001
 20
  0
 42
  1
  0
SEQEND
  8
DRILL
  0
ENDBLK
  0
BLOCK
  8
0
  2
padstack_VRES_llb_pad24_1
 10
0.0
 20
0.0
 30
0.0
 70
2
  0
POINT
  8
0
 10
  0
 20
  0
  0
POLYLINE
  8
TOP
 66
1
 70
0
 40
0.049
 41
0.049
  0
VERTEX
  8
TOP
 10
-0.0245
 20
  0
  0
VERTEX
  8
TOP
 10
0.0245
 20
  0
  0
SEQEND
  8
TOP
  0
POLYLINE
  8
BOTTOM
 66
1
 70
0
 40
0.049
 41
0.049
  0
VERTEX
  8
BOTTOM
 10
-0.0245
 20
  0
  0
VERTEX
  8
BOTTOM
 10
0.0245
 20
  0
  0
SEQEND
  8
BOTTOM
  0
POLYLINE
  8
GND
 66
1
 70
0
 40
0.06900000000000001
 41
0.06900000000000001
  0
VERTEX
  8
GND
 10
-0.0345
 20
  0
  0
VERTEX
  8
GND
 10
0.0345
 20
  0
  0
SEQEND
  8
GND
  0
POLYLINE
  8
POWER
 66
1
 70
0
 40
0.06900000000000001
 41
0.06900000000000001
  0
VERTEX
  8
POWER
 10
-0.0345
 20
  0
  0
VERTEX
  8
POWER
 10
0.0345
 20
  0
  0
SEQEND
  8
POWER
  0
POLYLINE
  8
INNER1
 66
1
 70
0
 40
0.049
 41
0.049
  0
VERTEX
  8
INNER1
 10
-0.0245
 20
  0
  0
VERTEX
  8
INNER1
 10
0.0245
 20
  0
  0
SEQEND
  8
INNER1
  0
POLYLINE
  8
INNER2
 66
1
 70
0
 40
0.049
 41
0.049
  0
VERTEX
  8
INNER2
 10
-0.0245
 20
  0
  0
VERTEX
  8
INNER2
 10
0.0245
 20
  0
  0
SEQEND
  8
INNER2
  0
POLYLINE
  8
INNER3
 66
1
 70
0
 40
0.049
 41
0.049
  0
VERTEX
  8
INNER3
 10
-0.0245
 20
  0
  0
VERTEX
  8
INNER3
 10
0.0245
 20
  0
  0
SEQEND
  8
INNER3
  0
POLYLINE
  8
INNER4
 66
1
 70
0
 40
0.049
 41
0.049
  0
VERTEX
  8
INNER4
 10
-0.0245
 20
  0
  0
VERTEX
  8
INNER4
 10
0.0245
 20
  0
  0
SEQEND
  8
INNER4
  0
POLYLINE
  8
INNER5
 66
1
 70
0
 40
0.049
 41
0.049
  0
VERTEX
  8
INNER5
 10
-0.0245
 20
  0
  0
VERTEX
  8
INNER5
 10
0.0245
 20
  0
  0
SEQEND
  8
INNER5
  0
POLYLINE
  8
INNER6
 66
1
 70
0
 40
0.049
 41
0.049
  0
VERTEX
  8
INNER6
 10
-0.0245
 20
  0
  0
VERTEX
  8
INNER6
 10
0.0245
 20
  0
  0
SEQEND
  8
INNER6
  0
POLYLINE
  8
INNER7
 66
1
 70
0
 40
0.049
 41
0.049
  0
VERTEX
  8
INNER7
 10
-0.0245
 20
  0
  0
VERTEX
  8
INNER7
 10
0.0245
 20
  0
  0
SEQEND
  8
INNER7
  0
POLYLINE
  8
INNER8
 66
1
 70
0
 40
0.049
 41
0.049
  0
VERTEX
  8
INNER8
 10
-0.0245
 20
  0
  0
VERTEX
  8
INNER8
 10
0.0245
 20
  0
  0
SEQEND
  8
INNER8
  0
POLYLINE
  8
INNER9
 66
1
 70
0
 40
0.049
 41
0.049
  0
VERTEX
  8
INNER9
 10
-0.0245
 20
  0
  0
VERTEX
  8
INNER9
 10
0.0245
 20
  0
  0
SEQEND
  8
INNER9
  0
POLYLINE
  8
INNER10
 66
1
 70
0
 40
0.049
 41
0.049
  0
VERTEX
  8
INNER10
 10
-0.0245
 20
  0
  0
VERTEX
  8
INNER10
 10
0.0245
 20
  0
  0
SEQEND
  8
INNER10
  0
POLYLINE
  8
INNER11
 66
1
 70
0
 40
0.049
 41
0.049
  0
VERTEX
  8
INNER11
 10
-0.0245
 20
  0
  0
VERTEX
  8
INNER11
 10
0.0245
 20
  0
  0
SEQEND
  8
INNER11
  0
POLYLINE
  8
INNER12
 66
1
 70
0
 40
0.049
 41
0.049
  0
VERTEX
  8
INNER12
 10
-0.0245
 20
  0
  0
VERTEX
  8
INNER12
 10
0.0245
 20
  0
  0
SEQEND
  8
INNER12
  0
POLYLINE
  8
SMTOP
 66
1
 70
0
 40
0.049
 41
0.049
  0
VERTEX
  8
SMTOP
 10
-0.0245
 20
  0
  0
VERTEX
  8
SMTOP
 10
0.0245
 20
  0
  0
SEQEND
  8
SMTOP
  0
POLYLINE
  8
SMBOT
 66
1
 70
0
 40
0.049
 41
0.049
  0
VERTEX
  8
SMBOT
 10
-0.0245
 20
  0
  0
VERTEX
  8
SMBOT
 10
0.0245
 20
  0
  0
SEQEND
  8
SMBOT
  0
POLYLINE
  8
ASYTOP
 66
1
 70
0
 40
0.049
 41
0.049
  0
VERTEX
  8
ASYTOP
 10
-0.0245
 20
  0
  0
VERTEX
  8
ASYTOP
 10
0.0245
 20
  0
  0
SEQEND
  8
ASYTOP
  0
POLYLINE
  8
ASYBOT
 66
1
 70
0
 40
0.049
 41
0.049
  0
VERTEX
  8
ASYBOT
 10
-0.0245
 20
  0
  0
VERTEX
  8
ASYBOT
 10
0.0245
 20
  0
  0
SEQEND
  8
ASYBOT
  0
POLYLINE
  8
DRLDWG
 66
1
 70
1
 40
0.014
 41
0.014
  0
VERTEX
  8
DRLDWG
 10
-0.007
 20
  0
 42
  1
  0
VERTEX
  8
DRLDWG
 10
0.007
 20
  0
 42
  1
  0
SEQEND
  8
DRLDWG
  0
POLYLINE
  8
DRILL
 66
1
 70
1
 40
0.014
 41
0.014
  0
VERTEX
  8
DRILL
 10
-0.007
 20
  0
 42
  1
  0
VERTEX
  8
DRILL
 10
0.007
 20
  0
 42
  1
  0
SEQEND
  8
DRILL
  0
ENDBLK
  0
BLOCK
  8
0
  2
padstack_VRES_llb_pad17_1
 10
0.0
 20
0.0
 30
0.0
 70
2
  0
POINT
  8
0
 10
  0
 20
  0
  0
POLYLINE
  8
TOP
 66
1
 70
1
 40
0.0245
 41
0.0245
  0
VERTEX
  8
TOP
 10
-0.01224803149606299
 20
  0
 42
  1
  0
VERTEX
  8
TOP
 10
0.01224803149606299
 20
  0
 42
  1
  0
SEQEND
  8
TOP
  0
POLYLINE
  8
BOTTOM
 66
1
 70
1
 40
0.0245
 41
0.0245
  0
VERTEX
  8
BOTTOM
 10
-0.01224803149606299
 20
  0
 42
  1
  0
VERTEX
  8
BOTTOM
 10
0.01224803149606299
 20
  0
 42
  1
  0
SEQEND
  8
BOTTOM
  0
POLYLINE
  8
GND
 66
1
 70
1
 40
0.0345
 41
0.0345
  0
VERTEX
  8
GND
 10
-0.01724803149606299
 20
  0
 42
  1
  0
VERTEX
  8
GND
 10
0.01724803149606299
 20
  0
 42
  1
  0
SEQEND
  8
GND
  0
POLYLINE
  8
POWER
 66
1
 70
1
 40
0.0345
 41
0.0345
  0
VERTEX
  8
POWER
 10
-0.01724803149606299
 20
  0
 42
  1
  0
VERTEX
  8
POWER
 10
0.01724803149606299
 20
  0
 42
  1
  0
SEQEND
  8
POWER
  0
POLYLINE
  8
INNER1
 66
1
 70
1
 40
0.0245
 41
0.0245
  0
VERTEX
  8
INNER1
 10
-0.01224803149606299
 20
  0
 42
  1
  0
VERTEX
  8
INNER1
 10
0.01224803149606299
 20
  0
 42
  1
  0
SEQEND
  8
INNER1
  0
POLYLINE
  8
INNER2
 66
1
 70
1
 40
0.0245
 41
0.0245
  0
VERTEX
  8
INNER2
 10
-0.01224803149606299
 20
  0
 42
  1
  0
VERTEX
  8
INNER2
 10
0.01224803149606299
 20
  0
 42
  1
  0
SEQEND
  8
INNER2
  0
POLYLINE
  8
INNER3
 66
1
 70
1
 40
0.0245
 41
0.0245
  0
VERTEX
  8
INNER3
 10
-0.01224803149606299
 20
  0
 42
  1
  0
VERTEX
  8
INNER3
 10
0.01224803149606299
 20
  0
 42
  1
  0
SEQEND
  8
INNER3
  0
POLYLINE
  8
INNER4
 66
1
 70
1
 40
0.0245
 41
0.0245
  0
VERTEX
  8
INNER4
 10
-0.01224803149606299
 20
  0
 42
  1
  0
VERTEX
  8
INNER4
 10
0.01224803149606299
 20
  0
 42
  1
  0
SEQEND
  8
INNER4
  0
POLYLINE
  8
INNER5
 66
1
 70
1
 40
0.0245
 41
0.0245
  0
VERTEX
  8
INNER5
 10
-0.01224803149606299
 20
  0
 42
  1
  0
VERTEX
  8
INNER5
 10
0.01224803149606299
 20
  0
 42
  1
  0
SEQEND
  8
INNER5
  0
POLYLINE
  8
INNER6
 66
1
 70
1
 40
0.0245
 41
0.0245
  0
VERTEX
  8
INNER6
 10
-0.01224803149606299
 20
  0
 42
  1
  0
VERTEX
  8
INNER6
 10
0.01224803149606299
 20
  0
 42
  1
  0
SEQEND
  8
INNER6
  0
POLYLINE
  8
INNER7
 66
1
 70
1
 40
0.0245
 41
0.0245
  0
VERTEX
  8
INNER7
 10
-0.01224803149606299
 20
  0
 42
  1
  0
VERTEX
  8
INNER7
 10
0.01224803149606299
 20
  0
 42
  1
  0
SEQEND
  8
INNER7
  0
POLYLINE
  8
INNER8
 66
1
 70
1
 40
0.0245
 41
0.0245
  0
VERTEX
  8
INNER8
 10
-0.01224803149606299
 20
  0
 42
  1
  0
VERTEX
  8
INNER8
 10
0.01224803149606299
 20
  0
 42
  1
  0
SEQEND
  8
INNER8
  0
POLYLINE
  8
INNER9
 66
1
 70
1
 40
0.0245
 41
0.0245
  0
VERTEX
  8
INNER9
 10
-0.01224803149606299
 20
  0
 42
  1
  0
VERTEX
  8
INNER9
 10
0.01224803149606299
 20
  0
 42
  1
  0
SEQEND
  8
INNER9
  0
POLYLINE
  8
INNER10
 66
1
 70
1
 40
0.0245
 41
0.0245
  0
VERTEX
  8
INNER10
 10
-0.01224803149606299
 20
  0
 42
  1
  0
VERTEX
  8
INNER10
 10
0.01224803149606299
 20
  0
 42
  1
  0
SEQEND
  8
INNER10
  0
POLYLINE
  8
INNER11
 66
1
 70
1
 40
0.0245
 41
0.0245
  0
VERTEX
  8
INNER11
 10
-0.01224803149606299
 20
  0
 42
  1
  0
VERTEX
  8
INNER11
 10
0.01224803149606299
 20
  0
 42
  1
  0
SEQEND
  8
INNER11
  0
POLYLINE
  8
INNER12
 66
1
 70
1
 40
0.0245
 41
0.0245
  0
VERTEX
  8
INNER12
 10
-0.01224803149606299
 20
  0
 42
  1
  0
VERTEX
  8
INNER12
 10
0.01224803149606299
 20
  0
 42
  1
  0
SEQEND
  8
INNER12
  0
POLYLINE
  8
SMTOP
 66
1
 70
1
 40
0.0245
 41
0.0245
  0
VERTEX
  8
SMTOP
 10
-0.01224803149606299
 20
  0
 42
  1
  0
VERTEX
  8
SMTOP
 10
0.01224803149606299
 20
  0
 42
  1
  0
SEQEND
  8
SMTOP
  0
POLYLINE
  8
SMBOT
 66
1
 70
1
 40
0.0245
 41
0.0245
  0
VERTEX
  8
SMBOT
 10
-0.01224803149606299
 20
  0
 42
  1
  0
VERTEX
  8
SMBOT
 10
0.01224803149606299
 20
  0
 42
  1
  0
SEQEND
  8
SMBOT
  0
POLYLINE
  8
ASYTOP
 66
1
 70
1
 40
0.0245
 41
0.0245
  0
VERTEX
  8
ASYTOP
 10
-0.01224803149606299
 20
  0
 42
  1
  0
VERTEX
  8
ASYTOP
 10
0.01224803149606299
 20
  0
 42
  1
  0
SEQEND
  8
ASYTOP
  0
POLYLINE
  8
ASYBOT
 66
1
 70
1
 40
0.0245
 41
0.0245
  0
VERTEX
  8
ASYBOT
 10
-0.01224803149606299
 20
  0
 42
  1
  0
VERTEX
  8
ASYBOT
 10
0.01224803149606299
 20
  0
 42
  1
  0
SEQEND
  8
ASYBOT
  0
POLYLINE
  8
DRLDWG
 66
1
 70
1
 40
0.014
 41
0.014
  0
VERTEX
  8
DRLDWG
 10
-0.007
 20
  0
 42
  1
  0
VERTEX
  8
DRLDWG
 10
0.007
 20
  0
 42
  1
  0
SEQEND
  8
DRLDWG
  0
POLYLINE
  8
DRILL
 66
1
 70
1
 40
0.014
 41
0.014
  0
VERTEX
  8
DRILL
 10
-0.007
 20
  0
 42
  1
  0
VERTEX
  8
DRILL
 10
0.007
 20
  0
 42
  1
  0
SEQEND
  8
DRILL
  0
ENDBLK
  0
BLOCK
  8
0
  2
padstack_TO_llb_pad26
 10
0.0
 20
0.0
 30
0.0
 70
2
  0
POINT
  8
0
 10
  0
 20
  0
  0
POLYLINE
  8
TOP
 66
1
 70
0
 40
0.055
 41
0.055
  0
VERTEX
  8
TOP
 10
-0.0275
 20
  0
  0
VERTEX
  8
TOP
 10
0.0275
 20
  0
  0
SEQEND
  8
TOP
  0
POLYLINE
  8
BOTTOM
 66
1
 70
0
 40
0.055
 41
0.055
  0
VERTEX
  8
BOTTOM
 10
-0.0275
 20
  0
  0
VERTEX
  8
BOTTOM
 10
0.0275
 20
  0
  0
SEQEND
  8
BOTTOM
  0
POLYLINE
  8
GND
 66
1
 70
0
 40
0.075
 41
0.075
  0
VERTEX
  8
GND
 10
-0.0375
 20
  0
  0
VERTEX
  8
GND
 10
0.0375
 20
  0
  0
SEQEND
  8
GND
  0
POLYLINE
  8
POWER
 66
1
 70
0
 40
0.075
 41
0.075
  0
VERTEX
  8
POWER
 10
-0.0375
 20
  0
  0
VERTEX
  8
POWER
 10
0.0375
 20
  0
  0
SEQEND
  8
POWER
  0
POLYLINE
  8
INNER1
 66
1
 70
0
 40
0.055
 41
0.055
  0
VERTEX
  8
INNER1
 10
-0.0275
 20
  0
  0
VERTEX
  8
INNER1
 10
0.0275
 20
  0
  0
SEQEND
  8
INNER1
  0
POLYLINE
  8
INNER2
 66
1
 70
0
 40
0.055
 41
0.055
  0
VERTEX
  8
INNER2
 10
-0.0275
 20
  0
  0
VERTEX
  8
INNER2
 10
0.0275
 20
  0
  0
SEQEND
  8
INNER2
  0
POLYLINE
  8
INNER3
 66
1
 70
0
 40
0.055
 41
0.055
  0
VERTEX
  8
INNER3
 10
-0.0275
 20
  0
  0
VERTEX
  8
INNER3
 10
0.0275
 20
  0
  0
SEQEND
  8
INNER3
  0
POLYLINE
  8
INNER4
 66
1
 70
0
 40
0.055
 41
0.055
  0
VERTEX
  8
INNER4
 10
-0.0275
 20
  0
  0
VERTEX
  8
INNER4
 10
0.0275
 20
  0
  0
SEQEND
  8
INNER4
  0
POLYLINE
  8
INNER5
 66
1
 70
0
 40
0.055
 41
0.055
  0
VERTEX
  8
INNER5
 10
-0.0275
 20
  0
  0
VERTEX
  8
INNER5
 10
0.0275
 20
  0
  0
SEQEND
  8
INNER5
  0
POLYLINE
  8
INNER6
 66
1
 70
0
 40
0.055
 41
0.055
  0
VERTEX
  8
INNER6
 10
-0.0275
 20
  0
  0
VERTEX
  8
INNER6
 10
0.0275
 20
  0
  0
SEQEND
  8
INNER6
  0
POLYLINE
  8
INNER7
 66
1
 70
0
 40
0.055
 41
0.055
  0
VERTEX
  8
INNER7
 10
-0.0275
 20
  0
  0
VERTEX
  8
INNER7
 10
0.0275
 20
  0
  0
SEQEND
  8
INNER7
  0
POLYLINE
  8
INNER8
 66
1
 70
0
 40
0.055
 41
0.055
  0
VERTEX
  8
INNER8
 10
-0.0275
 20
  0
  0
VERTEX
  8
INNER8
 10
0.0275
 20
  0
  0
SEQEND
  8
INNER8
  0
POLYLINE
  8
INNER9
 66
1
 70
0
 40
0.055
 41
0.055
  0
VERTEX
  8
INNER9
 10
-0.0275
 20
  0
  0
VERTEX
  8
INNER9
 10
0.0275
 20
  0
  0
SEQEND
  8
INNER9
  0
POLYLINE
  8
INNER10
 66
1
 70
0
 40
0.055
 41
0.055
  0
VERTEX
  8
INNER10
 10
-0.0275
 20
  0
  0
VERTEX
  8
INNER10
 10
0.0275
 20
  0
  0
SEQEND
  8
INNER10
  0
POLYLINE
  8
INNER11
 66
1
 70
0
 40
0.055
 41
0.055
  0
VERTEX
  8
INNER11
 10
-0.0275
 20
  0
  0
VERTEX
  8
INNER11
 10
0.0275
 20
  0
  0
SEQEND
  8
INNER11
  0
POLYLINE
  8
INNER12
 66
1
 70
0
 40
0.055
 41
0.055
  0
VERTEX
  8
INNER12
 10
-0.0275
 20
  0
  0
VERTEX
  8
INNER12
 10
0.0275
 20
  0
  0
SEQEND
  8
INNER12
  0
POLYLINE
  8
SMTOP
 66
1
 70
0
 40
0.055
 41
0.055
  0
VERTEX
  8
SMTOP
 10
-0.0275
 20
  0
  0
VERTEX
  8
SMTOP
 10
0.0275
 20
  0
  0
SEQEND
  8
SMTOP
  0
POLYLINE
  8
SMBOT
 66
1
 70
0
 40
0.055
 41
0.055
  0
VERTEX
  8
SMBOT
 10
-0.0275
 20
  0
  0
VERTEX
  8
SMBOT
 10
0.0275
 20
  0
  0
SEQEND
  8
SMBOT
  0
POLYLINE
  8
ASYTOP
 66
1
 70
0
 40
0.055
 41
0.055
  0
VERTEX
  8
ASYTOP
 10
-0.0275
 20
  0
  0
VERTEX
  8
ASYTOP
 10
0.0275
 20
  0
  0
SEQEND
  8
ASYTOP
  0
POLYLINE
  8
ASYBOT
 66
1
 70
0
 40
0.055
 41
0.055
  0
VERTEX
  8
ASYBOT
 10
-0.0275
 20
  0
  0
VERTEX
  8
ASYBOT
 10
0.0275
 20
  0
  0
SEQEND
  8
ASYBOT
  0
POLYLINE
  8
DRLDWG
 66
1
 70
1
 40
0.0155
 41
0.0155
  0
VERTEX
  8
DRLDWG
 10
-0.007748031496062993
 20
  0
 42
  1
  0
VERTEX
  8
DRLDWG
 10
0.007748031496062993
 20
  0
 42
  1
  0
SEQEND
  8
DRLDWG
  0
POLYLINE
  8
DRILL
 66
1
 70
1
 40
0.0155
 41
0.0155
  0
VERTEX
  8
DRILL
 10
-0.007748031496062993
 20
  0
 42
  1
  0
VERTEX
  8
DRILL
 10
0.007748031496062993
 20
  0
 42
  1
  0
SEQEND
  8
DRILL
  0
ENDBLK
  0
BLOCK
  8
0
  2
padstack_TO_llb_pad6
 10
0.0
 20
0.0
 30
0.0
 70
2
  0
POINT
  8
0
 10
  0
 20
  0
  0
POLYLINE
  8
TOP
 66
1
 70
1
 40
0.0275
 41
0.0275
  0
VERTEX
  8
TOP
 10
-0.01374803149606299
 20
  0
 42
  1
  0
VERTEX
  8
TOP
 10
0.01374803149606299
 20
  0
 42
  1
  0
SEQEND
  8
TOP
  0
POLYLINE
  8
BOTTOM
 66
1
 70
1
 40
0.0275
 41
0.0275
  0
VERTEX
  8
BOTTOM
 10
-0.01374803149606299
 20
  0
 42
  1
  0
VERTEX
  8
BOTTOM
 10
0.01374803149606299
 20
  0
 42
  1
  0
SEQEND
  8
BOTTOM
  0
POLYLINE
  8
GND
 66
1
 70
1
 40
0.0375
 41
0.0375
  0
VERTEX
  8
GND
 10
-0.01874803149606299
 20
  0
 42
  1
  0
VERTEX
  8
GND
 10
0.01874803149606299
 20
  0
 42
  1
  0
SEQEND
  8
GND
  0
POLYLINE
  8
POWER
 66
1
 70
1
 40
0.0375
 41
0.0375
  0
VERTEX
  8
POWER
 10
-0.01874803149606299
 20
  0
 42
  1
  0
VERTEX
  8
POWER
 10
0.01874803149606299
 20
  0
 42
  1
  0
SEQEND
  8
POWER
  0
POLYLINE
  8
INNER1
 66
1
 70
1
 40
0.0275
 41
0.0275
  0
VERTEX
  8
INNER1
 10
-0.01374803149606299
 20
  0
 42
  1
  0
VERTEX
  8
INNER1
 10
0.01374803149606299
 20
  0
 42
  1
  0
SEQEND
  8
INNER1
  0
POLYLINE
  8
INNER2
 66
1
 70
1
 40
0.0275
 41
0.0275
  0
VERTEX
  8
INNER2
 10
-0.01374803149606299
 20
  0
 42
  1
  0
VERTEX
  8
INNER2
 10
0.01374803149606299
 20
  0
 42
  1
  0
SEQEND
  8
INNER2
  0
POLYLINE
  8
INNER3
 66
1
 70
1
 40
0.0275
 41
0.0275
  0
VERTEX
  8
INNER3
 10
-0.01374803149606299
 20
  0
 42
  1
  0
VERTEX
  8
INNER3
 10
0.01374803149606299
 20
  0
 42
  1
  0
SEQEND
  8
INNER3
  0
POLYLINE
  8
INNER4
 66
1
 70
1
 40
0.0275
 41
0.0275
  0
VERTEX
  8
INNER4
 10
-0.01374803149606299
 20
  0
 42
  1
  0
VERTEX
  8
INNER4
 10
0.01374803149606299
 20
  0
 42
  1
  0
SEQEND
  8
INNER4
  0
POLYLINE
  8
INNER5
 66
1
 70
1
 40
0.0275
 41
0.0275
  0
VERTEX
  8
INNER5
 10
-0.01374803149606299
 20
  0
 42
  1
  0
VERTEX
  8
INNER5
 10
0.01374803149606299
 20
  0
 42
  1
  0
SEQEND
  8
INNER5
  0
POLYLINE
  8
INNER6
 66
1
 70
1
 40
0.0275
 41
0.0275
  0
VERTEX
  8
INNER6
 10
-0.01374803149606299
 20
  0
 42
  1
  0
VERTEX
  8
INNER6
 10
0.01374803149606299
 20
  0
 42
  1
  0
SEQEND
  8
INNER6
  0
POLYLINE
  8
INNER7
 66
1
 70
1
 40
0.0275
 41
0.0275
  0
VERTEX
  8
INNER7
 10
-0.01374803149606299
 20
  0
 42
  1
  0
VERTEX
  8
INNER7
 10
0.01374803149606299
 20
  0
 42
  1
  0
SEQEND
  8
INNER7
  0
POLYLINE
  8
INNER8
 66
1
 70
1
 40
0.0275
 41
0.0275
  0
VERTEX
  8
INNER8
 10
-0.01374803149606299
 20
  0
 42
  1
  0
VERTEX
  8
INNER8
 10
0.01374803149606299
 20
  0
 42
  1
  0
SEQEND
  8
INNER8
  0
POLYLINE
  8
INNER9
 66
1
 70
1
 40
0.0275
 41
0.0275
  0
VERTEX
  8
INNER9
 10
-0.01374803149606299
 20
  0
 42
  1
  0
VERTEX
  8
INNER9
 10
0.01374803149606299
 20
  0
 42
  1
  0
SEQEND
  8
INNER9
  0
POLYLINE
  8
INNER10
 66
1
 70
1
 40
0.0275
 41
0.0275
  0
VERTEX
  8
INNER10
 10
-0.01374803149606299
 20
  0
 42
  1
  0
VERTEX
  8
INNER10
 10
0.01374803149606299
 20
  0
 42
  1
  0
SEQEND
  8
INNER10
  0
POLYLINE
  8
INNER11
 66
1
 70
1
 40
0.0275
 41
0.0275
  0
VERTEX
  8
INNER11
 10
-0.01374803149606299
 20
  0
 42
  1
  0
VERTEX
  8
INNER11
 10
0.01374803149606299
 20
  0
 42
  1
  0
SEQEND
  8
INNER11
  0
POLYLINE
  8
INNER12
 66
1
 70
1
 40
0.0275
 41
0.0275
  0
VERTEX
  8
INNER12
 10
-0.01374803149606299
 20
  0
 42
  1
  0
VERTEX
  8
INNER12
 10
0.01374803149606299
 20
  0
 42
  1
  0
SEQEND
  8
INNER12
  0
POLYLINE
  8
SMTOP
 66
1
 70
1
 40
0.0275
 41
0.0275
  0
VERTEX
  8
SMTOP
 10
-0.01374803149606299
 20
  0
 42
  1
  0
VERTEX
  8
SMTOP
 10
0.01374803149606299
 20
  0
 42
  1
  0
SEQEND
  8
SMTOP
  0
POLYLINE
  8
SMBOT
 66
1
 70
1
 40
0.0275
 41
0.0275
  0
VERTEX
  8
SMBOT
 10
-0.01374803149606299
 20
  0
 42
  1
  0
VERTEX
  8
SMBOT
 10
0.01374803149606299
 20
  0
 42
  1
  0
SEQEND
  8
SMBOT
  0
POLYLINE
  8
ASYTOP
 66
1
 70
1
 40
0.0275
 41
0.0275
  0
VERTEX
  8
ASYTOP
 10
-0.01374803149606299
 20
  0
 42
  1
  0
VERTEX
  8
ASYTOP
 10
0.01374803149606299
 20
  0
 42
  1
  0
SEQEND
  8
ASYTOP
  0
POLYLINE
  8
ASYBOT
 66
1
 70
1
 40
0.0275
 41
0.0275
  0
VERTEX
  8
ASYBOT
 10
-0.01374803149606299
 20
  0
 42
  1
  0
VERTEX
  8
ASYBOT
 10
0.01374803149606299
 20
  0
 42
  1
  0
SEQEND
  8
ASYBOT
  0
POLYLINE
  8
DRLDWG
 66
1
 70
1
 40
0.0155
 41
0.0155
  0
VERTEX
  8
DRLDWG
 10
-0.007748031496062993
 20
  0
 42
  1
  0
VERTEX
  8
DRLDWG
 10
0.007748031496062993
 20
  0
 42
  1
  0
SEQEND
  8
DRLDWG
  0
POLYLINE
  8
DRILL
 66
1
 70
1
 40
0.0155
 41
0.0155
  0
VERTEX
  8
DRILL
 10
-0.007748031496062993
 20
  0
 42
  1
  0
VERTEX
  8
DRILL
 10
0.007748031496062993
 20
  0
 42
  1
  0
SEQEND
  8
DRILL
  0
ENDBLK
  0
BLOCK
  8
0
  2
padstack_TM_RAD_llb_pad2
 10
0.0
 20
0.0
 30
0.0
 70
2
  0
POINT
  8
0
 10
  0
 20
  0
  0
POLYLINE
  8
TOP
 66
1
 70
1
 40
0.026
 41
0.026
  0
VERTEX
  8
TOP
 10
-0.013
 20
  0
 42
  1
  0
VERTEX
  8
TOP
 10
0.013
 20
  0
 42
  1
  0
SEQEND
  8
TOP
  0
POLYLINE
  8
BOTTOM
 66
1
 70
1
 40
0.026
 41
0.026
  0
VERTEX
  8
BOTTOM
 10
-0.013
 20
  0
 42
  1
  0
VERTEX
  8
BOTTOM
 10
0.013
 20
  0
 42
  1
  0
SEQEND
  8
BOTTOM
  0
POLYLINE
  8
GND
 66
1
 70
1
 40
0.036
 41
0.036
  0
VERTEX
  8
GND
 10
-0.018
 20
  0
 42
  1
  0
VERTEX
  8
GND
 10
0.018
 20
  0
 42
  1
  0
SEQEND
  8
GND
  0
POLYLINE
  8
POWER
 66
1
 70
1
 40
0.036
 41
0.036
  0
VERTEX
  8
POWER
 10
-0.018
 20
  0
 42
  1
  0
VERTEX
  8
POWER
 10
0.018
 20
  0
 42
  1
  0
SEQEND
  8
POWER
  0
POLYLINE
  8
INNER1
 66
1
 70
1
 40
0.026
 41
0.026
  0
VERTEX
  8
INNER1
 10
-0.013
 20
  0
 42
  1
  0
VERTEX
  8
INNER1
 10
0.013
 20
  0
 42
  1
  0
SEQEND
  8
INNER1
  0
POLYLINE
  8
INNER2
 66
1
 70
1
 40
0.026
 41
0.026
  0
VERTEX
  8
INNER2
 10
-0.013
 20
  0
 42
  1
  0
VERTEX
  8
INNER2
 10
0.013
 20
  0
 42
  1
  0
SEQEND
  8
INNER2
  0
POLYLINE
  8
INNER3
 66
1
 70
1
 40
0.026
 41
0.026
  0
VERTEX
  8
INNER3
 10
-0.013
 20
  0
 42
  1
  0
VERTEX
  8
INNER3
 10
0.013
 20
  0
 42
  1
  0
SEQEND
  8
INNER3
  0
POLYLINE
  8
INNER4
 66
1
 70
1
 40
0.026
 41
0.026
  0
VERTEX
  8
INNER4
 10
-0.013
 20
  0
 42
  1
  0
VERTEX
  8
INNER4
 10
0.013
 20
  0
 42
  1
  0
SEQEND
  8
INNER4
  0
POLYLINE
  8
INNER5
 66
1
 70
1
 40
0.026
 41
0.026
  0
VERTEX
  8
INNER5
 10
-0.013
 20
  0
 42
  1
  0
VERTEX
  8
INNER5
 10
0.013
 20
  0
 42
  1
  0
SEQEND
  8
INNER5
  0
POLYLINE
  8
INNER6
 66
1
 70
1
 40
0.026
 41
0.026
  0
VERTEX
  8
INNER6
 10
-0.013
 20
  0
 42
  1
  0
VERTEX
  8
INNER6
 10
0.013
 20
  0
 42
  1
  0
SEQEND
  8
INNER6
  0
POLYLINE
  8
INNER7
 66
1
 70
1
 40
0.026
 41
0.026
  0
VERTEX
  8
INNER7
 10
-0.013
 20
  0
 42
  1
  0
VERTEX
  8
INNER7
 10
0.013
 20
  0
 42
  1
  0
SEQEND
  8
INNER7
  0
POLYLINE
  8
INNER8
 66
1
 70
1
 40
0.026
 41
0.026
  0
VERTEX
  8
INNER8
 10
-0.013
 20
  0
 42
  1
  0
VERTEX
  8
INNER8
 10
0.013
 20
  0
 42
  1
  0
SEQEND
  8
INNER8
  0
POLYLINE
  8
INNER9
 66
1
 70
1
 40
0.026
 41
0.026
  0
VERTEX
  8
INNER9
 10
-0.013
 20
  0
 42
  1
  0
VERTEX
  8
INNER9
 10
0.013
 20
  0
 42
  1
  0
SEQEND
  8
INNER9
  0
POLYLINE
  8
INNER10
 66
1
 70
1
 40
0.026
 41
0.026
  0
VERTEX
  8
INNER10
 10
-0.013
 20
  0
 42
  1
  0
VERTEX
  8
INNER10
 10
0.013
 20
  0
 42
  1
  0
SEQEND
  8
INNER10
  0
POLYLINE
  8
INNER11
 66
1
 70
1
 40
0.026
 41
0.026
  0
VERTEX
  8
INNER11
 10
-0.013
 20
  0
 42
  1
  0
VERTEX
  8
INNER11
 10
0.013
 20
  0
 42
  1
  0
SEQEND
  8
INNER11
  0
POLYLINE
  8
INNER12
 66
1
 70
1
 40
0.026
 41
0.026
  0
VERTEX
  8
INNER12
 10
-0.013
 20
  0
 42
  1
  0
VERTEX
  8
INNER12
 10
0.013
 20
  0
 42
  1
  0
SEQEND
  8
INNER12
  0
POLYLINE
  8
SMTOP
 66
1
 70
1
 40
0.026
 41
0.026
  0
VERTEX
  8
SMTOP
 10
-0.013
 20
  0
 42
  1
  0
VERTEX
  8
SMTOP
 10
0.013
 20
  0
 42
  1
  0
SEQEND
  8
SMTOP
  0
POLYLINE
  8
SMBOT
 66
1
 70
1
 40
0.026
 41
0.026
  0
VERTEX
  8
SMBOT
 10
-0.013
 20
  0
 42
  1
  0
VERTEX
  8
SMBOT
 10
0.013
 20
  0
 42
  1
  0
SEQEND
  8
SMBOT
  0
POLYLINE
  8
ASYTOP
 66
1
 70
1
 40
0.026
 41
0.026
  0
VERTEX
  8
ASYTOP
 10
-0.013
 20
  0
 42
  1
  0
VERTEX
  8
ASYTOP
 10
0.013
 20
  0
 42
  1
  0
SEQEND
  8
ASYTOP
  0
POLYLINE
  8
ASYBOT
 66
1
 70
1
 40
0.026
 41
0.026
  0
VERTEX
  8
ASYBOT
 10
-0.013
 20
  0
 42
  1
  0
VERTEX
  8
ASYBOT
 10
0.013
 20
  0
 42
  1
  0
SEQEND
  8
ASYBOT
  0
POLYLINE
  8
DRLDWG
 66
1
 70
1
 40
0.0155
 41
0.0155
  0
VERTEX
  8
DRLDWG
 10
-0.007748031496062993
 20
  0
 42
  1
  0
VERTEX
  8
DRLDWG
 10
0.007748031496062993
 20
  0
 42
  1
  0
SEQEND
  8
DRLDWG
  0
POLYLINE
  8
DRILL
 66
1
 70
1
 40
0.0155
 41
0.0155
  0
VERTEX
  8
DRILL
 10
-0.007748031496062993
 20
  0
 42
  1
  0
VERTEX
  8
DRILL
 10
0.007748031496062993
 20
  0
 42
  1
  0
SEQEND
  8
DRILL
  0
ENDBLK
  0
BLOCK
  8
0
  2
padstack_PCON100T_llb_pad1
 10
0.0
 20
0.0
 30
0.0
 70
2
  0
POINT
  8
0
 10
  0
 20
  0
  0
POLYLINE
  8
TOP
 66
1
 70
0
 40
0.062
 41
0.062
  0
VERTEX
  8
TOP
 10
-0.031
 20
  0
  0
VERTEX
  8
TOP
 10
0.031
 20
  0
  0
SEQEND
  8
TOP
  0
POLYLINE
  8
BOTTOM
 66
1
 70
0
 40
0.062
 41
0.062
  0
VERTEX
  8
BOTTOM
 10
-0.031
 20
  0
  0
VERTEX
  8
BOTTOM
 10
0.031
 20
  0
  0
SEQEND
  8
BOTTOM
  0
POLYLINE
  8
GND
 66
1
 70
0
 40
0.082
 41
0.082
  0
VERTEX
  8
GND
 10
-0.041
 20
  0
  0
VERTEX
  8
GND
 10
0.041
 20
  0
  0
SEQEND
  8
GND
  0
POLYLINE
  8
POWER
 66
1
 70
0
 40
0.082
 41
0.082
  0
VERTEX
  8
POWER
 10
-0.041
 20
  0
  0
VERTEX
  8
POWER
 10
0.041
 20
  0
  0
SEQEND
  8
POWER
  0
POLYLINE
  8
INNER1
 66
1
 70
0
 40
0.062
 41
0.062
  0
VERTEX
  8
INNER1
 10
-0.031
 20
  0
  0
VERTEX
  8
INNER1
 10
0.031
 20
  0
  0
SEQEND
  8
INNER1
  0
POLYLINE
  8
INNER2
 66
1
 70
0
 40
0.062
 41
0.062
  0
VERTEX
  8
INNER2
 10
-0.031
 20
  0
  0
VERTEX
  8
INNER2
 10
0.031
 20
  0
  0
SEQEND
  8
INNER2
  0
POLYLINE
  8
INNER3
 66
1
 70
0
 40
0.062
 41
0.062
  0
VERTEX
  8
INNER3
 10
-0.031
 20
  0
  0
VERTEX
  8
INNER3
 10
0.031
 20
  0
  0
SEQEND
  8
INNER3
  0
POLYLINE
  8
INNER4
 66
1
 70
0
 40
0.062
 41
0.062
  0
VERTEX
  8
INNER4
 10
-0.031
 20
  0
  0
VERTEX
  8
INNER4
 10
0.031
 20
  0
  0
SEQEND
  8
INNER4
  0
POLYLINE
  8
INNER5
 66
1
 70
0
 40
0.062
 41
0.062
  0
VERTEX
  8
INNER5
 10
-0.031
 20
  0
  0
VERTEX
  8
INNER5
 10
0.031
 20
  0
  0
SEQEND
  8
INNER5
  0
POLYLINE
  8
INNER6
 66
1
 70
0
 40
0.062
 41
0.062
  0
VERTEX
  8
INNER6
 10
-0.031
 20
  0
  0
VERTEX
  8
INNER6
 10
0.031
 20
  0
  0
SEQEND
  8
INNER6
  0
POLYLINE
  8
INNER7
 66
1
 70
0
 40
0.062
 41
0.062
  0
VERTEX
  8
INNER7
 10
-0.031
 20
  0
  0
VERTEX
  8
INNER7
 10
0.031
 20
  0
  0
SEQEND
  8
INNER7
  0
POLYLINE
  8
INNER8
 66
1
 70
0
 40
0.062
 41
0.062
  0
VERTEX
  8
INNER8
 10
-0.031
 20
  0
  0
VERTEX
  8
INNER8
 10
0.031
 20
  0
  0
SEQEND
  8
INNER8
  0
POLYLINE
  8
INNER9
 66
1
 70
0
 40
0.062
 41
0.062
  0
VERTEX
  8
INNER9
 10
-0.031
 20
  0
  0
VERTEX
  8
INNER9
 10
0.031
 20
  0
  0
SEQEND
  8
INNER9
  0
POLYLINE
  8
INNER10
 66
1
 70
0
 40
0.062
 41
0.062
  0
VERTEX
  8
INNER10
 10
-0.031
 20
  0
  0
VERTEX
  8
INNER10
 10
0.031
 20
  0
  0
SEQEND
  8
INNER10
  0
POLYLINE
  8
INNER11
 66
1
 70
0
 40
0.062
 41
0.062
  0
VERTEX
  8
INNER11
 10
-0.031
 20
  0
  0
VERTEX
  8
INNER11
 10
0.031
 20
  0
  0
SEQEND
  8
INNER11
  0
POLYLINE
  8
INNER12
 66
1
 70
0
 40
0.062
 41
0.062
  0
VERTEX
  8
INNER12
 10
-0.031
 20
  0
  0
VERTEX
  8
INNER12
 10
0.031
 20
  0
  0
SEQEND
  8
INNER12
  0
POLYLINE
  8
SMTOP
 66
1
 70
0
 40
0.062
 41
0.062
  0
VERTEX
  8
SMTOP
 10
-0.031
 20
  0
  0
VERTEX
  8
SMTOP
 10
0.031
 20
  0
  0
SEQEND
  8
SMTOP
  0
POLYLINE
  8
SMBOT
 66
1
 70
0
 40
0.062
 41
0.062
  0
VERTEX
  8
SMBOT
 10
-0.031
 20
  0
  0
VERTEX
  8
SMBOT
 10
0.031
 20
  0
  0
SEQEND
  8
SMBOT
  0
POLYLINE
  8
ASYTOP
 66
1
 70
0
 40
0.062
 41
0.062
  0
VERTEX
  8
ASYTOP
 10
-0.031
 20
  0
  0
VERTEX
  8
ASYTOP
 10
0.031
 20
  0
  0
SEQEND
  8
ASYTOP
  0
POLYLINE
  8
ASYBOT
 66
1
 70
0
 40
0.062
 41
0.062
  0
VERTEX
  8
ASYBOT
 10
-0.031
 20
  0
  0
VERTEX
  8
ASYBOT
 10
0.031
 20
  0
  0
SEQEND
  8
ASYBOT
  0
POLYLINE
  8
DRLDWG
 66
1
 70
1
 40
0.021
 41
0.021
  0
VERTEX
  8
DRLDWG
 10
-0.0105
 20
  0
 42
  1
  0
VERTEX
  8
DRLDWG
 10
0.0105
 20
  0
 42
  1
  0
SEQEND
  8
DRLDWG
  0
POLYLINE
  8
DRILL
 66
1
 70
1
 40
0.021
 41
0.021
  0
VERTEX
  8
DRILL
 10
-0.0105
 20
  0
 42
  1
  0
VERTEX
  8
DRILL
 10
0.0105
 20
  0
 42
  1
  0
SEQEND
  8
DRILL
  0
ENDBLK
  0
BLOCK
  8
0
  2
padstack_PCON100T_llb_pad2
 10
0.0
 20
0.0
 30
0.0
 70
2
  0
POINT
  8
0
 10
  0
 20
  0
  0
POLYLINE
  8
TOP
 66
1
 70
1
 40
0.031
 41
0.031
  0
VERTEX
  8
TOP
 10
-0.0155
 20
  0
 42
  1
  0
VERTEX
  8
TOP
 10
0.0155
 20
  0
 42
  1
  0
SEQEND
  8
TOP
  0
POLYLINE
  8
BOTTOM
 66
1
 70
1
 40
0.031
 41
0.031
  0
VERTEX
  8
BOTTOM
 10
-0.0155
 20
  0
 42
  1
  0
VERTEX
  8
BOTTOM
 10
0.0155
 20
  0
 42
  1
  0
SEQEND
  8
BOTTOM
  0
POLYLINE
  8
GND
 66
1
 70
1
 40
0.041
 41
0.041
  0
VERTEX
  8
GND
 10
-0.0205
 20
  0
 42
  1
  0
VERTEX
  8
GND
 10
0.0205
 20
  0
 42
  1
  0
SEQEND
  8
GND
  0
POLYLINE
  8
POWER
 66
1
 70
1
 40
0.041
 41
0.041
  0
VERTEX
  8
POWER
 10
-0.0205
 20
  0
 42
  1
  0
VERTEX
  8
POWER
 10
0.0205
 20
  0
 42
  1
  0
SEQEND
  8
POWER
  0
POLYLINE
  8
INNER1
 66
1
 70
1
 40
0.031
 41
0.031
  0
VERTEX
  8
INNER1
 10
-0.0155
 20
  0
 42
  1
  0
VERTEX
  8
INNER1
 10
0.0155
 20
  0
 42
  1
  0
SEQEND
  8
INNER1
  0
POLYLINE
  8
INNER2
 66
1
 70
1
 40
0.031
 41
0.031
  0
VERTEX
  8
INNER2
 10
-0.0155
 20
  0
 42
  1
  0
VERTEX
  8
INNER2
 10
0.0155
 20
  0
 42
  1
  0
SEQEND
  8
INNER2
  0
POLYLINE
  8
INNER3
 66
1
 70
1
 40
0.031
 41
0.031
  0
VERTEX
  8
INNER3
 10
-0.0155
 20
  0
 42
  1
  0
VERTEX
  8
INNER3
 10
0.0155
 20
  0
 42
  1
  0
SEQEND
  8
INNER3
  0
POLYLINE
  8
INNER4
 66
1
 70
1
 40
0.031
 41
0.031
  0
VERTEX
  8
INNER4
 10
-0.0155
 20
  0
 42
  1
  0
VERTEX
  8
INNER4
 10
0.0155
 20
  0
 42
  1
  0
SEQEND
  8
INNER4
  0
POLYLINE
  8
INNER5
 66
1
 70
1
 40
0.031
 41
0.031
  0
VERTEX
  8
INNER5
 10
-0.0155
 20
  0
 42
  1
  0
VERTEX
  8
INNER5
 10
0.0155
 20
  0
 42
  1
  0
SEQEND
  8
INNER5
  0
POLYLINE
  8
INNER6
 66
1
 70
1
 40
0.031
 41
0.031
  0
VERTEX
  8
INNER6
 10
-0.0155
 20
  0
 42
  1
  0
VERTEX
  8
INNER6
 10
0.0155
 20
  0
 42
  1
  0
SEQEND
  8
INNER6
  0
POLYLINE
  8
INNER7
 66
1
 70
1
 40
0.031
 41
0.031
  0
VERTEX
  8
INNER7
 10
-0.0155
 20
  0
 42
  1
  0
VERTEX
  8
INNER7
 10
0.0155
 20
  0
 42
  1
  0
SEQEND
  8
INNER7
  0
POLYLINE
  8
INNER8
 66
1
 70
1
 40
0.031
 41
0.031
  0
VERTEX
  8
INNER8
 10
-0.0155
 20
  0
 42
  1
  0
VERTEX
  8
INNER8
 10
0.0155
 20
  0
 42
  1
  0
SEQEND
  8
INNER8
  0
POLYLINE
  8
INNER9
 66
1
 70
1
 40
0.031
 41
0.031
  0
VERTEX
  8
INNER9
 10
-0.0155
 20
  0
 42
  1
  0
VERTEX
  8
INNER9
 10
0.0155
 20
  0
 42
  1
  0
SEQEND
  8
INNER9
  0
POLYLINE
  8
INNER10
 66
1
 70
1
 40
0.031
 41
0.031
  0
VERTEX
  8
INNER10
 10
-0.0155
 20
  0
 42
  1
  0
VERTEX
  8
INNER10
 10
0.0155
 20
  0
 42
  1
  0
SEQEND
  8
INNER10
  0
POLYLINE
  8
INNER11
 66
1
 70
1
 40
0.031
 41
0.031
  0
VERTEX
  8
INNER11
 10
-0.0155
 20
  0
 42
  1
  0
VERTEX
  8
INNER11
 10
0.0155
 20
  0
 42
  1
  0
SEQEND
  8
INNER11
  0
POLYLINE
  8
INNER12
 66
1
 70
1
 40
0.031
 41
0.031
  0
VERTEX
  8
INNER12
 10
-0.0155
 20
  0
 42
  1
  0
VERTEX
  8
INNER12
 10
0.0155
 20
  0
 42
  1
  0
SEQEND
  8
INNER12
  0
POLYLINE
  8
SMTOP
 66
1
 70
1
 40
0.031
 41
0.031
  0
VERTEX
  8
SMTOP
 10
-0.0155
 20
  0
 42
  1
  0
VERTEX
  8
SMTOP
 10
0.0155
 20
  0
 42
  1
  0
SEQEND
  8
SMTOP
  0
POLYLINE
  8
SMBOT
 66
1
 70
1
 40
0.031
 41
0.031
  0
VERTEX
  8
SMBOT
 10
-0.0155
 20
  0
 42
  1
  0
VERTEX
  8
SMBOT
 10
0.0155
 20
  0
 42
  1
  0
SEQEND
  8
SMBOT
  0
POLYLINE
  8
ASYTOP
 66
1
 70
1
 40
0.031
 41
0.031
  0
VERTEX
  8
ASYTOP
 10
-0.0155
 20
  0
 42
  1
  0
VERTEX
  8
ASYTOP
 10
0.0155
 20
  0
 42
  1
  0
SEQEND
  8
ASYTOP
  0
POLYLINE
  8
ASYBOT
 66
1
 70
1
 40
0.031
 41
0.031
  0
VERTEX
  8
ASYBOT
 10
-0.0155
 20
  0
 42
  1
  0
VERTEX
  8
ASYBOT
 10
0.0155
 20
  0
 42
  1
  0
SEQEND
  8
ASYBOT
  0
POLYLINE
  8
DRLDWG
 66
1
 70
1
 40
0.021
 41
0.021
  0
VERTEX
  8
DRLDWG
 10
-0.0105
 20
  0
 42
  1
  0
VERTEX
  8
DRLDWG
 10
0.0105
 20
  0
 42
  1
  0
SEQEND
  8
DRLDWG
  0
POLYLINE
  8
DRILL
 66
1
 70
1
 40
0.021
 41
0.021
  0
VERTEX
  8
DRILL
 10
-0.0105
 20
  0
 42
  1
  0
VERTEX
  8
DRILL
 10
0.0105
 20
  0
 42
  1
  0
SEQEND
  8
DRILL
  0
ENDBLK
  0
BLOCK
  8
0
  2
padstack_TM_DIODE_llb_pad8_1
 10
0.0
 20
0.0
 30
0.0
 70
2
  0
POINT
  8
0
 10
  0
 20
  0
  0
POLYLINE
  8
TOP
 66
1
 70
1
 40
0.0275
 41
0.0275
  0
VERTEX
  8
TOP
 10
-0.01374803149606299
 20
  0
 42
  1
  0
VERTEX
  8
TOP
 10
0.01374803149606299
 20
  0
 42
  1
  0
SEQEND
  8
TOP
  0
POLYLINE
  8
BOTTOM
 66
1
 70
1
 40
0.0275
 41
0.0275
  0
VERTEX
  8
BOTTOM
 10
-0.01374803149606299
 20
  0
 42
  1
  0
VERTEX
  8
BOTTOM
 10
0.01374803149606299
 20
  0
 42
  1
  0
SEQEND
  8
BOTTOM
  0
POLYLINE
  8
GND
 66
1
 70
1
 40
0.0375
 41
0.0375
  0
VERTEX
  8
GND
 10
-0.01874803149606299
 20
  0
 42
  1
  0
VERTEX
  8
GND
 10
0.01874803149606299
 20
  0
 42
  1
  0
SEQEND
  8
GND
  0
POLYLINE
  8
POWER
 66
1
 70
1
 40
0.0375
 41
0.0375
  0
VERTEX
  8
POWER
 10
-0.01874803149606299
 20
  0
 42
  1
  0
VERTEX
  8
POWER
 10
0.01874803149606299
 20
  0
 42
  1
  0
SEQEND
  8
POWER
  0
POLYLINE
  8
INNER1
 66
1
 70
1
 40
0.0275
 41
0.0275
  0
VERTEX
  8
INNER1
 10
-0.01374803149606299
 20
  0
 42
  1
  0
VERTEX
  8
INNER1
 10
0.01374803149606299
 20
  0
 42
  1
  0
SEQEND
  8
INNER1
  0
POLYLINE
  8
INNER2
 66
1
 70
1
 40
0.0275
 41
0.0275
  0
VERTEX
  8
INNER2
 10
-0.01374803149606299
 20
  0
 42
  1
  0
VERTEX
  8
INNER2
 10
0.01374803149606299
 20
  0
 42
  1
  0
SEQEND
  8
INNER2
  0
POLYLINE
  8
INNER3
 66
1
 70
1
 40
0.0275
 41
0.0275
  0
VERTEX
  8
INNER3
 10
-0.01374803149606299
 20
  0
 42
  1
  0
VERTEX
  8
INNER3
 10
0.01374803149606299
 20
  0
 42
  1
  0
SEQEND
  8
INNER3
  0
POLYLINE
  8
INNER4
 66
1
 70
1
 40
0.0275
 41
0.0275
  0
VERTEX
  8
INNER4
 10
-0.01374803149606299
 20
  0
 42
  1
  0
VERTEX
  8
INNER4
 10
0.01374803149606299
 20
  0
 42
  1
  0
SEQEND
  8
INNER4
  0
POLYLINE
  8
INNER5
 66
1
 70
1
 40
0.0275
 41
0.0275
  0
VERTEX
  8
INNER5
 10
-0.01374803149606299
 20
  0
 42
  1
  0
VERTEX
  8
INNER5
 10
0.01374803149606299
 20
  0
 42
  1
  0
SEQEND
  8
INNER5
  0
POLYLINE
  8
INNER6
 66
1
 70
1
 40
0.0275
 41
0.0275
  0
VERTEX
  8
INNER6
 10
-0.01374803149606299
 20
  0
 42
  1
  0
VERTEX
  8
INNER6
 10
0.01374803149606299
 20
  0
 42
  1
  0
SEQEND
  8
INNER6
  0
POLYLINE
  8
INNER7
 66
1
 70
1
 40
0.0275
 41
0.0275
  0
VERTEX
  8
INNER7
 10
-0.01374803149606299
 20
  0
 42
  1
  0
VERTEX
  8
INNER7
 10
0.01374803149606299
 20
  0
 42
  1
  0
SEQEND
  8
INNER7
  0
POLYLINE
  8
INNER8
 66
1
 70
1
 40
0.0275
 41
0.0275
  0
VERTEX
  8
INNER8
 10
-0.01374803149606299
 20
  0
 42
  1
  0
VERTEX
  8
INNER8
 10
0.01374803149606299
 20
  0
 42
  1
  0
SEQEND
  8
INNER8
  0
POLYLINE
  8
INNER9
 66
1
 70
1
 40
0.0275
 41
0.0275
  0
VERTEX
  8
INNER9
 10
-0.01374803149606299
 20
  0
 42
  1
  0
VERTEX
  8
INNER9
 10
0.01374803149606299
 20
  0
 42
  1
  0
SEQEND
  8
INNER9
  0
POLYLINE
  8
INNER10
 66
1
 70
1
 40
0.0275
 41
0.0275
  0
VERTEX
  8
INNER10
 10
-0.01374803149606299
 20
  0
 42
  1
  0
VERTEX
  8
INNER10
 10
0.01374803149606299
 20
  0
 42
  1
  0
SEQEND
  8
INNER10
  0
POLYLINE
  8
INNER11
 66
1
 70
1
 40
0.0275
 41
0.0275
  0
VERTEX
  8
INNER11
 10
-0.01374803149606299
 20
  0
 42
  1
  0
VERTEX
  8
INNER11
 10
0.01374803149606299
 20
  0
 42
  1
  0
SEQEND
  8
INNER11
  0
POLYLINE
  8
INNER12
 66
1
 70
1
 40
0.0275
 41
0.0275
  0
VERTEX
  8
INNER12
 10
-0.01374803149606299
 20
  0
 42
  1
  0
VERTEX
  8
INNER12
 10
0.01374803149606299
 20
  0
 42
  1
  0
SEQEND
  8
INNER12
  0
POLYLINE
  8
SMTOP
 66
1
 70
1
 40
0.0275
 41
0.0275
  0
VERTEX
  8
SMTOP
 10
-0.01374803149606299
 20
  0
 42
  1
  0
VERTEX
  8
SMTOP
 10
0.01374803149606299
 20
  0
 42
  1
  0
SEQEND
  8
SMTOP
  0
POLYLINE
  8
SMBOT
 66
1
 70
1
 40
0.0275
 41
0.0275
  0
VERTEX
  8
SMBOT
 10
-0.01374803149606299
 20
  0
 42
  1
  0
VERTEX
  8
SMBOT
 10
0.01374803149606299
 20
  0
 42
  1
  0
SEQEND
  8
SMBOT
  0
POLYLINE
  8
ASYTOP
 66
1
 70
1
 40
0.0275
 41
0.0275
  0
VERTEX
  8
ASYTOP
 10
-0.01374803149606299
 20
  0
 42
  1
  0
VERTEX
  8
ASYTOP
 10
0.01374803149606299
 20
  0
 42
  1
  0
SEQEND
  8
ASYTOP
  0
POLYLINE
  8
ASYBOT
 66
1
 70
1
 40
0.0275
 41
0.0275
  0
VERTEX
  8
ASYBOT
 10
-0.01374803149606299
 20
  0
 42
  1
  0
VERTEX
  8
ASYBOT
 10
0.01374803149606299
 20
  0
 42
  1
  0
SEQEND
  8
ASYBOT
  0
POLYLINE
  8
DRLDWG
 66
1
 70
1
 40
0.017
 41
0.017
  0
VERTEX
  8
DRLDWG
 10
-0.008500000000000001
 20
  0
 42
  1
  0
VERTEX
  8
DRLDWG
 10
0.008500000000000001
 20
  0
 42
  1
  0
SEQEND
  8
DRLDWG
  0
POLYLINE
  8
DRILL
 66
1
 70
1
 40
0.017
 41
0.017
  0
VERTEX
  8
DRILL
 10
-0.008500000000000001
 20
  0
 42
  1
  0
VERTEX
  8
DRILL
 10
0.008500000000000001
 20
  0
 42
  1
  0
SEQEND
  8
DRILL
  0
ENDBLK
  0
BLOCK
  8
0
  2
padstack_TM_DIODE_llb_pad7_1
 10
0.0
 20
0.0
 30
0.0
 70
2
  0
POINT
  8
0
 10
  0
 20
  0
  0
POLYLINE
  8
TOP
 66
1
 70
0
 40
0.055
 41
0.055
  0
VERTEX
  8
TOP
 10
-0.0275
 20
  0
  0
VERTEX
  8
TOP
 10
0.0275
 20
  0
  0
SEQEND
  8
TOP
  0
POLYLINE
  8
BOTTOM
 66
1
 70
0
 40
0.055
 41
0.055
  0
VERTEX
  8
BOTTOM
 10
-0.0275
 20
  0
  0
VERTEX
  8
BOTTOM
 10
0.0275
 20
  0
  0
SEQEND
  8
BOTTOM
  0
POLYLINE
  8
GND
 66
1
 70
0
 40
0.075
 41
0.075
  0
VERTEX
  8
GND
 10
-0.0375
 20
  0
  0
VERTEX
  8
GND
 10
0.0375
 20
  0
  0
SEQEND
  8
GND
  0
POLYLINE
  8
POWER
 66
1
 70
0
 40
0.075
 41
0.075
  0
VERTEX
  8
POWER
 10
-0.0375
 20
  0
  0
VERTEX
  8
POWER
 10
0.0375
 20
  0
  0
SEQEND
  8
POWER
  0
POLYLINE
  8
INNER1
 66
1
 70
0
 40
0.055
 41
0.055
  0
VERTEX
  8
INNER1
 10
-0.0275
 20
  0
  0
VERTEX
  8
INNER1
 10
0.0275
 20
  0
  0
SEQEND
  8
INNER1
  0
POLYLINE
  8
INNER2
 66
1
 70
0
 40
0.055
 41
0.055
  0
VERTEX
  8
INNER2
 10
-0.0275
 20
  0
  0
VERTEX
  8
INNER2
 10
0.0275
 20
  0
  0
SEQEND
  8
INNER2
  0
POLYLINE
  8
INNER3
 66
1
 70
0
 40
0.055
 41
0.055
  0
VERTEX
  8
INNER3
 10
-0.0275
 20
  0
  0
VERTEX
  8
INNER3
 10
0.0275
 20
  0
  0
SEQEND
  8
INNER3
  0
POLYLINE
  8
INNER4
 66
1
 70
0
 40
0.055
 41
0.055
  0
VERTEX
  8
INNER4
 10
-0.0275
 20
  0
  0
VERTEX
  8
INNER4
 10
0.0275
 20
  0
  0
SEQEND
  8
INNER4
  0
POLYLINE
  8
INNER5
 66
1
 70
0
 40
0.055
 41
0.055
  0
VERTEX
  8
INNER5
 10
-0.0275
 20
  0
  0
VERTEX
  8
INNER5
 10
0.0275
 20
  0
  0
SEQEND
  8
INNER5
  0
POLYLINE
  8
INNER6
 66
1
 70
0
 40
0.055
 41
0.055
  0
VERTEX
  8
INNER6
 10
-0.0275
 20
  0
  0
VERTEX
  8
INNER6
 10
0.0275
 20
  0
  0
SEQEND
  8
INNER6
  0
POLYLINE
  8
INNER7
 66
1
 70
0
 40
0.055
 41
0.055
  0
VERTEX
  8
INNER7
 10
-0.0275
 20
  0
  0
VERTEX
  8
INNER7
 10
0.0275
 20
  0
  0
SEQEND
  8
INNER7
  0
POLYLINE
  8
INNER8
 66
1
 70
0
 40
0.055
 41
0.055
  0
VERTEX
  8
INNER8
 10
-0.0275
 20
  0
  0
VERTEX
  8
INNER8
 10
0.0275
 20
  0
  0
SEQEND
  8
INNER8
  0
POLYLINE
  8
INNER9
 66
1
 70
0
 40
0.055
 41
0.055
  0
VERTEX
  8
INNER9
 10
-0.0275
 20
  0
  0
VERTEX
  8
INNER9
 10
0.0275
 20
  0
  0
SEQEND
  8
INNER9
  0
POLYLINE
  8
INNER10
 66
1
 70
0
 40
0.055
 41
0.055
  0
VERTEX
  8
INNER10
 10
-0.0275
 20
  0
  0
VERTEX
  8
INNER10
 10
0.0275
 20
  0
  0
SEQEND
  8
INNER10
  0
POLYLINE
  8
INNER11
 66
1
 70
0
 40
0.055
 41
0.055
  0
VERTEX
  8
INNER11
 10
-0.0275
 20
  0
  0
VERTEX
  8
INNER11
 10
0.0275
 20
  0
  0
SEQEND
  8
INNER11
  0
POLYLINE
  8
INNER12
 66
1
 70
0
 40
0.055
 41
0.055
  0
VERTEX
  8
INNER12
 10
-0.0275
 20
  0
  0
VERTEX
  8
INNER12
 10
0.0275
 20
  0
  0
SEQEND
  8
INNER12
  0
POLYLINE
  8
SMTOP
 66
1
 70
0
 40
0.055
 41
0.055
  0
VERTEX
  8
SMTOP
 10
-0.0275
 20
  0
  0
VERTEX
  8
SMTOP
 10
0.0275
 20
  0
  0
SEQEND
  8
SMTOP
  0
POLYLINE
  8
SMBOT
 66
1
 70
0
 40
0.055
 41
0.055
  0
VERTEX
  8
SMBOT
 10
-0.0275
 20
  0
  0
VERTEX
  8
SMBOT
 10
0.0275
 20
  0
  0
SEQEND
  8
SMBOT
  0
POLYLINE
  8
ASYTOP
 66
1
 70
0
 40
0.055
 41
0.055
  0
VERTEX
  8
ASYTOP
 10
-0.0275
 20
  0
  0
VERTEX
  8
ASYTOP
 10
0.0275
 20
  0
  0
SEQEND
  8
ASYTOP
  0
POLYLINE
  8
ASYBOT
 66
1
 70
0
 40
0.055
 41
0.055
  0
VERTEX
  8
ASYBOT
 10
-0.0275
 20
  0
  0
VERTEX
  8
ASYBOT
 10
0.0275
 20
  0
  0
SEQEND
  8
ASYBOT
  0
POLYLINE
  8
DRLDWG
 66
1
 70
1
 40
0.017
 41
0.017
  0
VERTEX
  8
DRLDWG
 10
-0.008500000000000001
 20
  0
 42
  1
  0
VERTEX
  8
DRLDWG
 10
0.008500000000000001
 20
  0
 42
  1
  0
SEQEND
  8
DRLDWG
  0
POLYLINE
  8
DRILL
 66
1
 70
1
 40
0.017
 41
0.017
  0
VERTEX
  8
DRILL
 10
-0.008500000000000001
 20
  0
 42
  1
  0
VERTEX
  8
DRILL
 10
0.008500000000000001
 20
  0
 42
  1
  0
SEQEND
  8
DRILL
  0
ENDBLK
  0
BLOCK
  8
0
  2
padstack_TM_AXIAL_llb_pad3
 10
0.0
 20
0.0
 30
0.0
 70
2
  0
POINT
  8
0
 10
  0
 20
  0
  0
POLYLINE
  8
TOP
 66
1
 70
1
 40
0.026
 41
0.026
  0
VERTEX
  8
TOP
 10
-0.013
 20
  0
 42
  1
  0
VERTEX
  8
TOP
 10
0.013
 20
  0
 42
  1
  0
SEQEND
  8
TOP
  0
POLYLINE
  8
BOTTOM
 66
1
 70
1
 40
0.026
 41
0.026
  0
VERTEX
  8
BOTTOM
 10
-0.013
 20
  0
 42
  1
  0
VERTEX
  8
BOTTOM
 10
0.013
 20
  0
 42
  1
  0
SEQEND
  8
BOTTOM
  0
POLYLINE
  8
GND
 66
1
 70
1
 40
0.036
 41
0.036
  0
VERTEX
  8
GND
 10
-0.018
 20
  0
 42
  1
  0
VERTEX
  8
GND
 10
0.018
 20
  0
 42
  1
  0
SEQEND
  8
GND
  0
POLYLINE
  8
POWER
 66
1
 70
1
 40
0.036
 41
0.036
  0
VERTEX
  8
POWER
 10
-0.018
 20
  0
 42
  1
  0
VERTEX
  8
POWER
 10
0.018
 20
  0
 42
  1
  0
SEQEND
  8
POWER
  0
POLYLINE
  8
INNER1
 66
1
 70
1
 40
0.026
 41
0.026
  0
VERTEX
  8
INNER1
 10
-0.013
 20
  0
 42
  1
  0
VERTEX
  8
INNER1
 10
0.013
 20
  0
 42
  1
  0
SEQEND
  8
INNER1
  0
POLYLINE
  8
INNER2
 66
1
 70
1
 40
0.026
 41
0.026
  0
VERTEX
  8
INNER2
 10
-0.013
 20
  0
 42
  1
  0
VERTEX
  8
INNER2
 10
0.013
 20
  0
 42
  1
  0
SEQEND
  8
INNER2
  0
POLYLINE
  8
INNER3
 66
1
 70
1
 40
0.026
 41
0.026
  0
VERTEX
  8
INNER3
 10
-0.013
 20
  0
 42
  1
  0
VERTEX
  8
INNER3
 10
0.013
 20
  0
 42
  1
  0
SEQEND
  8
INNER3
  0
POLYLINE
  8
INNER4
 66
1
 70
1
 40
0.026
 41
0.026
  0
VERTEX
  8
INNER4
 10
-0.013
 20
  0
 42
  1
  0
VERTEX
  8
INNER4
 10
0.013
 20
  0
 42
  1
  0
SEQEND
  8
INNER4
  0
POLYLINE
  8
INNER5
 66
1
 70
1
 40
0.026
 41
0.026
  0
VERTEX
  8
INNER5
 10
-0.013
 20
  0
 42
  1
  0
VERTEX
  8
INNER5
 10
0.013
 20
  0
 42
  1
  0
SEQEND
  8
INNER5
  0
POLYLINE
  8
INNER6
 66
1
 70
1
 40
0.026
 41
0.026
  0
VERTEX
  8
INNER6
 10
-0.013
 20
  0
 42
  1
  0
VERTEX
  8
INNER6
 10
0.013
 20
  0
 42
  1
  0
SEQEND
  8
INNER6
  0
POLYLINE
  8
INNER7
 66
1
 70
1
 40
0.026
 41
0.026
  0
VERTEX
  8
INNER7
 10
-0.013
 20
  0
 42
  1
  0
VERTEX
  8
INNER7
 10
0.013
 20
  0
 42
  1
  0
SEQEND
  8
INNER7
  0
POLYLINE
  8
INNER8
 66
1
 70
1
 40
0.026
 41
0.026
  0
VERTEX
  8
INNER8
 10
-0.013
 20
  0
 42
  1
  0
VERTEX
  8
INNER8
 10
0.013
 20
  0
 42
  1
  0
SEQEND
  8
INNER8
  0
POLYLINE
  8
INNER9
 66
1
 70
1
 40
0.026
 41
0.026
  0
VERTEX
  8
INNER9
 10
-0.013
 20
  0
 42
  1
  0
VERTEX
  8
INNER9
 10
0.013
 20
  0
 42
  1
  0
SEQEND
  8
INNER9
  0
POLYLINE
  8
INNER10
 66
1
 70
1
 40
0.026
 41
0.026
  0
VERTEX
  8
INNER10
 10
-0.013
 20
  0
 42
  1
  0
VERTEX
  8
INNER10
 10
0.013
 20
  0
 42
  1
  0
SEQEND
  8
INNER10
  0
POLYLINE
  8
INNER11
 66
1
 70
1
 40
0.026
 41
0.026
  0
VERTEX
  8
INNER11
 10
-0.013
 20
  0
 42
  1
  0
VERTEX
  8
INNER11
 10
0.013
 20
  0
 42
  1
  0
SEQEND
  8
INNER11
  0
POLYLINE
  8
INNER12
 66
1
 70
1
 40
0.026
 41
0.026
  0
VERTEX
  8
INNER12
 10
-0.013
 20
  0
 42
  1
  0
VERTEX
  8
INNER12
 10
0.013
 20
  0
 42
  1
  0
SEQEND
  8
INNER12
  0
POLYLINE
  8
SMTOP
 66
1
 70
1
 40
0.026
 41
0.026
  0
VERTEX
  8
SMTOP
 10
-0.013
 20
  0
 42
  1
  0
VERTEX
  8
SMTOP
 10
0.013
 20
  0
 42
  1
  0
SEQEND
  8
SMTOP
  0
POLYLINE
  8
SMBOT
 66
1
 70
1
 40
0.026
 41
0.026
  0
VERTEX
  8
SMBOT
 10
-0.013
 20
  0
 42
  1
  0
VERTEX
  8
SMBOT
 10
0.013
 20
  0
 42
  1
  0
SEQEND
  8
SMBOT
  0
POLYLINE
  8
ASYTOP
 66
1
 70
1
 40
0.026
 41
0.026
  0
VERTEX
  8
ASYTOP
 10
-0.013
 20
  0
 42
  1
  0
VERTEX
  8
ASYTOP
 10
0.013
 20
  0
 42
  1
  0
SEQEND
  8
ASYTOP
  0
POLYLINE
  8
ASYBOT
 66
1
 70
1
 40
0.026
 41
0.026
  0
VERTEX
  8
ASYBOT
 10
-0.013
 20
  0
 42
  1
  0
VERTEX
  8
ASYBOT
 10
0.013
 20
  0
 42
  1
  0
SEQEND
  8
ASYBOT
  0
POLYLINE
  8
DRLDWG
 66
1
 70
1
 40
0.0155
 41
0.0155
  0
VERTEX
  8
DRLDWG
 10
-0.007748031496062993
 20
  0
 42
  1
  0
VERTEX
  8
DRLDWG
 10
0.007748031496062993
 20
  0
 42
  1
  0
SEQEND
  8
DRLDWG
  0
POLYLINE
  8
DRILL
 66
1
 70
1
 40
0.0155
 41
0.0155
  0
VERTEX
  8
DRILL
 10
-0.007748031496062993
 20
  0
 42
  1
  0
VERTEX
  8
DRILL
 10
0.007748031496062993
 20
  0
 42
  1
  0
SEQEND
  8
DRILL
  0
ENDBLK
  0
BLOCK
  8
0
  2
footprint_VIA1
 10
0.0
 20
0.0
 30
0.0
 70
2
  0
INSERT
  8
PADSTACKS
  2
viastack_VIA1
 10
  0
 20
  0
 30
  0
 50
  0
 41
  1
 42
  1
 43
  1
  0
ENDBLK
  0
BLOCK
  8
0
  2
footprint_VIA2
 10
0.0
 20
0.0
 30
0.0
 70
2
  0
INSERT
  8
PADSTACKS
  2
viastack_VIA2
 10
  0
 20
  0
 30
  0
 50
  0
 41
  1
 42
  1
 43
  1
  0
ENDBLK
  0
BLOCK
  8
0
  2
footprint_VIA3
 10
0.0
 20
0.0
 30
0.0
 70
2
  0
INSERT
  8
PADSTACKS
  2
viastack_VIA3
 10
  0
 20
  0
 30
  0
 50
  0
 41
  1
 42
  1
 43
  1
  0
ENDBLK
  0
BLOCK
  8
0
  2
footprint_VIA4
 10
0.0
 20
0.0
 30
0.0
 70
2
  0
INSERT
  8
PADSTACKS
  2
viastack_VIA4
 10
  0
 20
  0
 30
  0
 50
  0
 41
  1
 42
  1
 43
  1
  0
ENDBLK
  0
BLOCK
  8
0
  2
footprint_VIA5
 10
0.0
 20
0.0
 30
0.0
 70
2
  0
INSERT
  8
PADSTACKS
  2
viastack_VIA5
 10
  0
 20
  0
 30
  0
 50
  0
 41
  1
 42
  1
 43
  1
  0
ENDBLK
  0
BLOCK
  8
0
  2
footprint_VIA6
 10
0.0
 20
0.0
 30
0.0
 70
2
  0
INSERT
  8
PADSTACKS
  2
viastack_VIA6
 10
  0
 20
  0
 30
  0
 50
  0
 41
  1
 42
  1
 43
  1
  0
ENDBLK
  0
BLOCK
  8
0
  2
footprint_VIA7
 10
0.0
 20
0.0
 30
0.0
 70
2
  0
INSERT
  8
PADSTACKS
  2
viastack_VIA7
 10
  0
 20
  0
 30
  0
 50
  0
 41
  1
 42
  1
 43
  1
  0
ENDBLK
  0
BLOCK
  8
0
  2
footprint_VIA8
 10
0.0
 20
0.0
 30
0.0
 70
2
  0
INSERT
  8
PADSTACKS
  2
viastack_VIA8
 10
  0
 20
  0
 30
  0
 50
  0
 41
  1
 42
  1
 43
  1
  0
ENDBLK
  0
BLOCK
  8
0
  2
footprint_VIA9
 10
0.0
 20
0.0
 30
0.0
 70
2
  0
INSERT
  8
PADSTACKS
  2
viastack_VIA9
 10
  0
 20
  0
 30
  0
 50
  0
 41
  1
 42
  1
 43
  1
  0
ENDBLK
  0
BLOCK
  8
0
  2
footprint_VIA10
 10
0.0
 20
0.0
 30
0.0
 70
2
  0
INSERT
  8
PADSTACKS
  2
viastack_VIA10
 10
  0
 20
  0
 30
  0
 50
  0
 41
  1
 42
  1
 43
  1
  0
ENDBLK
  0
BLOCK
  8
0
  2
footprint_VIA11
 10
0.0
 20
0.0
 30
0.0
 70
2
  0
INSERT
  8
PADSTACKS
  2
viastack_VIA11
 10
  0
 20
  0
 30
  0
 50
  0
 41
  1
 42
  1
 43
  1
  0
ENDBLK
  0
BLOCK
  8
0
  2
footprint_VIA12
 10
0.0
 20
0.0
 30
0.0
 70
2
  0
INSERT
  8
PADSTACKS
  2
viastack_VIA12
 10
  0
 20
  0
 30
  0
 50
  0
 41
  1
 42
  1
 43
  1
  0
ENDBLK
  0
BLOCK
  8
0
  2
footprint_VIA13
 10
0.0
 20
0.0
 30
0.0
 70
2
  0
INSERT
  8
PADSTACKS
  2
viastack_VIA13
 10
  0
 20
  0
 30
  0
 50
  0
 41
  1
 42
  1
 43
  1
  0
ENDBLK
  0
BLOCK
  8
0
  2
footprint_VIA14
 10
0.0
 20
0.0
 30
0.0
 70
2
  0
INSERT
  8
PADSTACKS
  2
viastack_VIA14
 10
  0
 20
  0
 30
  0
 50
  0
 41
  1
 42
  1
 43
  1
  0
ENDBLK
  0
BLOCK
  8
0
  2
footprint_VIA15
 10
0.0
 20
0.0
 30
0.0
 70
2
  0
INSERT
  8
PADSTACKS
  2
viastack_VIA15
 10
  0
 20
  0
 30
  0
 50
  0
 41
  1
 42
  1
 43
  1
  0
ENDBLK
  0
BLOCK
  8
0
  2
footprint_VIA16
 10
0.0
 20
0.0
 30
0.0
 70
2
  0
INSERT
  8
PADSTACKS
  2
viastack_VIA16
 10
  0
 20
  0
 30
  0
 50
  0
 41
  1
 42
  1
 43
  1
  0
ENDBLK
  0
BLOCK
  8
0
  2
footprint_AX__375X_100__034
 10
0.0
 20
0.0
 30
0.0
 70
2
  0
POLYLINE
  8
OBS_GLOBAL_LAYER
 66
1
 39
0.001
 70
1
 40
3.937007874015748e-006
 41
3.937007874015748e-006
  0
VERTEX
  8
OBS_GLOBAL_LAYER
 10
-0.0425
 20
-0.054
  0
VERTEX
  8
OBS_GLOBAL_LAYER
 10
0.4175
 20
-0.054
  0
VERTEX
  8
OBS_GLOBAL_LAYER
 10
0.4175
 20
0.054
  0
VERTEX
  8
OBS_GLOBAL_LAYER
 10
-0.0425
 20
0.054
  0
VERTEX
  8
OBS_GLOBAL_LAYER
 10
-0.0425
 20
-0.054
  0
SEQEND
  8
OBS_GLOBAL_LAYER
  0
POLYLINE
  8
OBS_SSTOP
 66
1
 70
0
 40
0.008
 41
0.008
  0
VERTEX
  8
OBS_SSTOP
 10
0.08750000000000001
 20
0.05
  0
VERTEX
  8
OBS_SSTOP
 10
0.08750000000000001
 20
-0.05
  0
VERTEX
  8
OBS_SSTOP
 10
0.08750000000000001
 20
-0.05
  0
VERTEX
  8
OBS_SSTOP
 10
0.2875
 20
-0.05
  0
VERTEX
  8
OBS_SSTOP
 10
0.2875
 20
0.05
  0
VERTEX
  8
OBS_SSTOP
 10
0.08750000000000001
 20
0.05
  0
SEQEND
  8
OBS_SSTOP
  0
POLYLINE
  8
OBS_ASYTOP
 66
1
 70
0
 40
0.008
 41
0.008
  0
VERTEX
  8
OBS_ASYTOP
 10
0.08750000000000001
 20
0.05
  0
VERTEX
  8
OBS_ASYTOP
 10
0.08750000000000001
 20
-0.05
  0
VERTEX
  8
OBS_ASYTOP
 10
0.08750000000000001
 20
-0.05
  0
VERTEX
  8
OBS_ASYTOP
 10
0.2875
 20
-0.05
  0
VERTEX
  8
OBS_ASYTOP
 10
0.2875
 20
0.05
  0
VERTEX
  8
OBS_ASYTOP
 10
0.08750000000000001
 20
0.05
  0
SEQEND
  8
OBS_ASYTOP
  0
POLYLINE
  8
OBS_SSTOP
 66
1
 70
0
 40
0.008
 41
0.008
  0
VERTEX
  8
OBS_SSTOP
 10
0.325
 20
  0
  0
VERTEX
  8
OBS_SSTOP
 10
0.2875
 20
  0
  0
SEQEND
  8
OBS_SSTOP
  0
POLYLINE
  8
OBS_ASYTOP
 66
1
 70
0
 40
0.008
 41
0.008
  0
VERTEX
  8
OBS_ASYTOP
 10
0.325
 20
  0
  0
VERTEX
  8
OBS_ASYTOP
 10
0.2875
 20
  0
  0
SEQEND
  8
OBS_ASYTOP
  0
POLYLINE
  8
OBS_SSTOP
 66
1
 70
0
 40
0.008
 41
0.008
  0
VERTEX
  8
OBS_SSTOP
 10
0.05
 20
  0
  0
VERTEX
  8
OBS_SSTOP
 10
0.08750000000000001
 20
  0
  0
SEQEND
  8
OBS_SSTOP
  0
POLYLINE
  8
OBS_ASYTOP
 66
1
 70
0
 40
0.008
 41
0.008
  0
VERTEX
  8
OBS_ASYTOP
 10
0.05
 20
  0
  0
VERTEX
  8
OBS_ASYTOP
 10
0.08750000000000001
 20
  0
  0
SEQEND
  8
OBS_ASYTOP
  0
INSERT
  8
PADSTACKS
  2
padstack_TM_AXIAL_llb_pad1
 10
  0
 20
  0
 30
  0
 50
  0
 41
  1
 42
  1
 43
  1
  0
INSERT
  8
PADSTACKS
  2
padstack_TM_AXIAL_llb_pad1
 10
0.375
 20
  0
 30
  0
 50
  0
 41
  1
 42
  1
 43
  1
  0
ATTDEF
  8
ASYTOP
 70
0
 72
0
  1
AX/.375X.100/.034
  2
SYM_NAME
  3

 10
-18.49557480314961
 20
-13.77822440944882
 30
  0
 40
0.0225
 50
  0
  0
ENDBLK
  0
BLOCK
  8
0
  2
footprint_VRES2
 10
0.0
 20
0.0
 30
0.0
 70
2
  0
POLYLINE
  8
OBS_GLOBAL_LAYER
 66
1
 39
0.001
 70
1
 40
3.937007874015748e-006
 41
3.937007874015748e-006
  0
VERTEX
  8
OBS_GLOBAL_LAYER
 10
-0.0415
 20
-0.054
  0
VERTEX
  8
OBS_GLOBAL_LAYER
 10
0.2415
 20
-0.054
  0
VERTEX
  8
OBS_GLOBAL_LAYER
 10
0.2415
 20
0.154
  0
VERTEX
  8
OBS_GLOBAL_LAYER
 10
-0.0415
 20
0.154
  0
VERTEX
  8
OBS_GLOBAL_LAYER
 10
-0.0415
 20
-0.054
  0
SEQEND
  8
OBS_GLOBAL_LAYER
  0
POLYLINE
  8
OBS_SSTOP
 66
1
 70
0
 40
0.008
 41
0.008
  0
VERTEX
  8
OBS_SSTOP
 10
0.025
 20
0.1
  0
VERTEX
  8
OBS_SSTOP
 10
-0.025
 20
0.1
  0
SEQEND
  8
OBS_SSTOP
  0
POLYLINE
  8
OBS_ASYTOP
 66
1
 70
0
 40
0.008
 41
0.008
  0
VERTEX
  8
OBS_ASYTOP
 10
0.025
 20
0.1
  0
VERTEX
  8
OBS_ASYTOP
 10
-0.025
 20
0.1
  0
SEQEND
  8
OBS_ASYTOP
  0
POLYLINE
  8
OBS_SSTOP
 66
1
 70
0
 40
0.008
 41
0.008
  0
VERTEX
  8
OBS_SSTOP
 10
-0.0375
 20
-0.05
  0
VERTEX
  8
OBS_SSTOP
 10
0.2375
 20
-0.05
  0
SEQEND
  8
OBS_SSTOP
  0
POLYLINE
  8
OBS_ASYTOP
 66
1
 70
0
 40
0.008
 41
0.008
  0
VERTEX
  8
OBS_ASYTOP
 10
-0.0375
 20
-0.05
  0
VERTEX
  8
OBS_ASYTOP
 10
0.2375
 20
-0.05
  0
SEQEND
  8
OBS_ASYTOP
  0
POLYLINE
  8
OBS_SSTOP
 66
1
 70
0
 40
0.008
 41
0.008
  0
VERTEX
  8
OBS_SSTOP
 10
0.2375
 20
0.0375
  0
VERTEX
  8
OBS_SSTOP
 10
0.2375
 20
0.15
  0
VERTEX
  8
OBS_SSTOP
 10
-0.0375
 20
0.15
  0
VERTEX
  8
OBS_SSTOP
 10
-0.0375
 20
0.05
  0
SEQEND
  8
OBS_SSTOP
  0
POLYLINE
  8
OBS_ASYTOP
 66
1
 70
0
 40
0.008
 41
0.008
  0
VERTEX
  8
OBS_ASYTOP
 10
0.2375
 20
0.0375
  0
VERTEX
  8
OBS_ASYTOP
 10
0.2375
 20
0.15
  0
VERTEX
  8
OBS_ASYTOP
 10
-0.0375
 20
0.15
  0
VERTEX
  8
OBS_ASYTOP
 10
-0.0375
 20
0.05
  0
SEQEND
  8
OBS_ASYTOP
  0
INSERT
  8
PADSTACKS
  2
padstack_VRES_llb_pad24_1
 10
  0
 20
  0
 30
  0
 50
 90
 41
  1
 42
  1
 43
  1
  0
INSERT
  8
PADSTACKS
  2
padstack_VRES_llb_pad17_1
 10
0.1
 20
0.1
 30
  0
 50
  0
 41
  1
 42
  1
 43
  1
  0
INSERT
  8
PADSTACKS
  2
padstack_VRES_llb_pad17_1
 10
0.2
 20
  0
 30
  0
 50
  0
 41
  1
 42
  1
 43
  1
  0
ATTDEF
  8
ASYTOP
 70
0
 72
0
  1
VRES2
  2
SYM_NAME
  3

 10
-18.48997244094488
 20
-13.73070866141732
 30
  0
 40
0.0225
 50
  0
  0
ENDBLK
  0
BLOCK
  8
0
  2
footprint_TO92_100
 10
0.0
 20
0.0
 30
0.0
 70
2
  0
POLYLINE
  8
OBS_GLOBAL_LAYER
 66
1
 39
0.001
 70
1
 40
3.937007874015748e-006
 41
3.937007874015748e-006
  0
VERTEX
  8
OBS_GLOBAL_LAYER
 10
-0.0425
 20
-0.079
  0
VERTEX
  8
OBS_GLOBAL_LAYER
 10
0.2425
 20
-0.079
  0
VERTEX
  8
OBS_GLOBAL_LAYER
 10
0.2425
 20
0.1089015748031496
  0
VERTEX
  8
OBS_GLOBAL_LAYER
 10
-0.0425
 20
0.1089015748031496
  0
VERTEX
  8
OBS_GLOBAL_LAYER
 10
-0.0425
 20
-0.079
  0
SEQEND
  8
OBS_GLOBAL_LAYER
  0
POLYLINE
  8
OBS_SSTOP
 66
1
 70
0
 40
0.008
 41
0.008
  0
VERTEX
  8
OBS_SSTOP
 10
0.003098425196850394
 20
-0.0400984251968504
  0
VERTEX
  8
OBS_SSTOP
 10
0.0257992125984252
 20
-0.07420078740157481
  0
VERTEX
  8
OBS_SSTOP
 10
0.0265984251968504
 20
-0.075
  0
VERTEX
  8
OBS_SSTOP
 10
0.175
 20
-0.075
  0
SEQEND
  8
OBS_SSTOP
  0
POLYLINE
  8
OBS_ASYTOP
 66
1
 70
0
 40
0.008
 41
0.008
  0
VERTEX
  8
OBS_ASYTOP
 10
0.003098425196850394
 20
-0.0400984251968504
  0
VERTEX
  8
OBS_ASYTOP
 10
0.0257992125984252
 20
-0.07420078740157481
  0
VERTEX
  8
OBS_ASYTOP
 10
0.0265984251968504
 20
-0.075
  0
VERTEX
  8
OBS_ASYTOP
 10
0.175
 20
-0.075
  0
SEQEND
  8
OBS_ASYTOP
  0
POLYLINE
  8
OBS_SSTOP
 66
1
 70
0
 40
0.008
 41
0.008
  0
VERTEX
  8
OBS_SSTOP
 10
0.1742007874015748
 20
-0.07420078740157481
  0
VERTEX
  8
OBS_SSTOP
 10
0.1969015748031496
 20
-0.0400984251968504
  0
SEQEND
  8
OBS_SSTOP
  0
POLYLINE
  8
OBS_ASYTOP
 66
1
 70
0
 40
0.008
 41
0.008
  0
VERTEX
  8
OBS_ASYTOP
 10
0.1742007874015748
 20
-0.07420078740157481
  0
VERTEX
  8
OBS_ASYTOP
 10
0.1969015748031496
 20
-0.0400984251968504
  0
SEQEND
  8
OBS_ASYTOP
  0
POLYLINE
  8
OBS_SSTOP
 66
1
 70
0
 40
0.008
 41
0.008
  0
VERTEX
  8
OBS_SSTOP
 10
0.1969015748031496
 20
0.0400984251968504
  0
VERTEX
  8
OBS_SSTOP
 10
0.1742007874015748
 20
0.07420078740157481
  0
VERTEX
  8
OBS_SSTOP
 10
0.1400984251968504
 20
0.09690157480314961
  0
VERTEX
  8
OBS_SSTOP
 10
0.1400984251968504
 20
0.09690157480314961
  0
VERTEX
  8
OBS_SSTOP
 10
0.1
 20
0.1049015748031496
  0
VERTEX
  8
OBS_SSTOP
 10
0.1
 20
0.1049015748031496
  0
VERTEX
  8
OBS_SSTOP
 10
0.05990157480314961
 20
0.09690157480314961
  0
VERTEX
  8
OBS_SSTOP
 10
0.0257992125984252
 20
0.07420078740157481
  0
VERTEX
  8
OBS_SSTOP
 10
0.003098425196850394
 20
0.0400984251968504
  0
SEQEND
  8
OBS_SSTOP
  0
POLYLINE
  8
OBS_ASYTOP
 66
1
 70
0
 40
0.008
 41
0.008
  0
VERTEX
  8
OBS_ASYTOP
 10
0.1969015748031496
 20
0.0400984251968504
  0
VERTEX
  8
OBS_ASYTOP
 10
0.1742007874015748
 20
0.07420078740157481
  0
VERTEX
  8
OBS_ASYTOP
 10
0.1400984251968504
 20
0.09690157480314961
  0
VERTEX
  8
OBS_ASYTOP
 10
0.1400984251968504
 20
0.09690157480314961
  0
VERTEX
  8
OBS_ASYTOP
 10
0.1
 20
0.1049015748031496
  0
VERTEX
  8
OBS_ASYTOP
 10
0.1
 20
0.1049015748031496
  0
VERTEX
  8
OBS_ASYTOP
 10
0.05990157480314961
 20
0.09690157480314961
  0
VERTEX
  8
OBS_ASYTOP
 10
0.0257992125984252
 20
0.07420078740157481
  0
VERTEX
  8
OBS_ASYTOP
 10
0.003098425196850394
 20
0.0400984251968504
  0
SEQEND
  8
OBS_ASYTOP
  0
INSERT
  8
PADSTACKS
  2
padstack_TO_llb_pad26
 10
  0
 20
  0
 30
  0
 50
  0
 41
  1
 42
  1
 43
  1
  0
INSERT
  8
PADSTACKS
  2
padstack_TO_llb_pad6
 10
0.1
 20
  0
 30
  0
 50
  0
 41
  1
 42
  1
 43
  1
  0
INSERT
  8
PADSTACKS
  2
padstack_TO_llb_pad6
 10
0.2
 20
  0
 30
  0
 50
  0
 41
  1
 42
  1
 43
  1
  0
ATTDEF
  8
ASYTOP
 70
0
 72
0
  1
TO92/100
  2
SYM_NAME
  3

 10
-18.50497244094488
 20
-13.76572440944882
 30
  0
 40
0.0225
 50
  0
  0
ENDBLK
  0
BLOCK
  8
0
  2
footprint_RAD__200X_100_LS_100_
 10
0.0
 20
0.0
 30
0.0
 70
2
  0
POLYLINE
  8
OBS_GLOBAL_LAYER
 66
1
 39
0.001
 70
1
 40
3.937007874015748e-006
 41
3.937007874015748e-006
  0
VERTEX
  8
OBS_GLOBAL_LAYER
 10
-0.054
 20
-0.054
  0
VERTEX
  8
OBS_GLOBAL_LAYER
 10
0.154
 20
-0.054
  0
VERTEX
  8
OBS_GLOBAL_LAYER
 10
0.154
 20
0.054
  0
VERTEX
  8
OBS_GLOBAL_LAYER
 10
-0.054
 20
0.054
  0
VERTEX
  8
OBS_GLOBAL_LAYER
 10
-0.054
 20
-0.054
  0
SEQEND
  8
OBS_GLOBAL_LAYER
  0
POLYLINE
  8
OBS_SSTOP
 66
1
 70
0
 40
0.008
 41
0.008
  0
VERTEX
  8
OBS_SSTOP
 10
0.15
 20
-0.05
  0
VERTEX
  8
OBS_SSTOP
 10
-0.05
 20
-0.05
  0
VERTEX
  8
OBS_SSTOP
 10
-0.05
 20
-0.05
  0
VERTEX
  8
OBS_SSTOP
 10
-0.05
 20
0.05
  0
VERTEX
  8
OBS_SSTOP
 10
0.15
 20
0.05
  0
VERTEX
  8
OBS_SSTOP
 10
0.15
 20
-0.05
  0
SEQEND
  8
OBS_SSTOP
  0
POLYLINE
  8
OBS_ASYTOP
 66
1
 70
0
 40
0.008
 41
0.008
  0
VERTEX
  8
OBS_ASYTOP
 10
0.15
 20
-0.05
  0
VERTEX
  8
OBS_ASYTOP
 10
-0.05
 20
-0.05
  0
VERTEX
  8
OBS_ASYTOP
 10
-0.05
 20
-0.05
  0
VERTEX
  8
OBS_ASYTOP
 10
-0.05
 20
0.05
  0
VERTEX
  8
OBS_ASYTOP
 10
0.15
 20
0.05
  0
VERTEX
  8
OBS_ASYTOP
 10
0.15
 20
-0.05
  0
SEQEND
  8
OBS_ASYTOP
  0
INSERT
  8
PADSTACKS
  2
padstack_TM_RAD_llb_pad2
 10
  0
 20
  0
 30
  0
 50
  0
 41
  1
 42
  1
 43
  1
  0
INSERT
  8
PADSTACKS
  2
padstack_TM_RAD_llb_pad2
 10
0.1
 20
  0
 30
  0
 50
  0
 41
  1
 42
  1
 43
  1
  0
ATTDEF
  8
ASYTOP
 70
0
 72
0
  1
RAD/.200X.100/LS.100/.031
  2
SYM_NAME
  3

 10
-18.69974015748032
 20
-13.77822440944882
 30
  0
 40
0.0225
 50
  0
  0
ENDBLK
  0
BLOCK
  8
0
  2
footprint_POLCON_100_VH_TM1SQS_
 10
0.0
 20
0.0
 30
0.0
 70
2
  0
POLYLINE
  8
OBS_GLOBAL_LAYER
 66
1
 39
0.001
 70
1
 40
3.937007874015748e-006
 41
3.937007874015748e-006
  0
VERTEX
  8
OBS_GLOBAL_LAYER
 10
-0.0727007874015748
 20
-0.1602992125984252
  0
VERTEX
  8
OBS_GLOBAL_LAYER
 10
0.1665
 20
-0.1602992125984252
  0
VERTEX
  8
OBS_GLOBAL_LAYER
 10
0.1665
 20
0.154
  0
VERTEX
  8
OBS_GLOBAL_LAYER
 10
-0.0727007874015748
 20
0.154
  0
VERTEX
  8
OBS_GLOBAL_LAYER
 10
-0.0727007874015748
 20
-0.1602992125984252
  0
SEQEND
  8
OBS_GLOBAL_LAYER
  0
POLYLINE
  8
OBS_SSTOP
 66
1
 70
0
 40
0.008
 41
0.008
  0
VERTEX
  8
OBS_SSTOP
 10
-0.0625
 20
-0.15
  0
VERTEX
  8
OBS_SSTOP
 10
-0.0625
 20
-0.1500984251968504
  0
VERTEX
  8
OBS_SSTOP
 10
-0.0687007874015748
 20
-0.1562992125984252
  0
SEQEND
  8
OBS_SSTOP
  0
POLYLINE
  8
OBS_ASYTOP
 66
1
 70
0
 40
0.008
 41
0.008
  0
VERTEX
  8
OBS_ASYTOP
 10
-0.0625
 20
-0.15
  0
VERTEX
  8
OBS_ASYTOP
 10
-0.0625
 20
-0.1500984251968504
  0
VERTEX
  8
OBS_ASYTOP
 10
-0.0687007874015748
 20
-0.1562992125984252
  0
SEQEND
  8
OBS_ASYTOP
  0
POLYLINE
  8
OBS_SSTOP
 66
1
 70
0
 40
0.008
 41
0.008
  0
VERTEX
  8
OBS_SSTOP
 10
-0.0625
 20
-0.075
  0
VERTEX
  8
OBS_SSTOP
 10
0.1625
 20
-0.075
  0
SEQEND
  8
OBS_SSTOP
  0
POLYLINE
  8
OBS_ASYTOP
 66
1
 70
0
 40
0.008
 41
0.008
  0
VERTEX
  8
OBS_ASYTOP
 10
-0.0625
 20
-0.075
  0
VERTEX
  8
OBS_ASYTOP
 10
0.1625
 20
-0.075
  0
SEQEND
  8
OBS_ASYTOP
  0
POLYLINE
  8
OBS_SSTOP
 66
1
 70
0
 40
0.008
 41
0.008
  0
VERTEX
  8
OBS_SSTOP
 10
0.1625
 20
-0.15
  0
VERTEX
  8
OBS_SSTOP
 10
-0.0625
 20
-0.15
  0
VERTEX
  8
OBS_SSTOP
 10
-0.0625
 20
0.15
  0
VERTEX
  8
OBS_SSTOP
 10
0.1625
 20
0.15
  0
VERTEX
  8
OBS_SSTOP
 10
0.1625
 20
-0.15
  0
SEQEND
  8
OBS_SSTOP
  0
POLYLINE
  8
OBS_ASYTOP
 66
1
 70
0
 40
0.008
 41
0.008
  0
VERTEX
  8
OBS_ASYTOP
 10
0.1625
 20
-0.15
  0
VERTEX
  8
OBS_ASYTOP
 10
-0.0625
 20
-0.15
  0
VERTEX
  8
OBS_ASYTOP
 10
-0.0625
 20
0.15
  0
VERTEX
  8
OBS_ASYTOP
 10
0.1625
 20
0.15
  0
VERTEX
  8
OBS_ASYTOP
 10
0.1625
 20
-0.15
  0
SEQEND
  8
OBS_ASYTOP
  0
INSERT
  8
PADSTACKS
  2
padstack_PCON100T_llb_pad1
 10
  0
 20
  0
 30
  0
 50
  0
 41
  1
 42
  1
 43
  1
  0
INSERT
  8
PADSTACKS
  2
padstack_PCON100T_llb_pad2
 10
0.1
 20
  0
 30
  0
 50
  0
 41
  1
 42
  1
 43
  1
  0
TEXT
  8
SSTOP
 72
0
 10
-0.1138818897637795
 20
-0.03063385826771654
 30
  0
 40
0.0375
 50
  0
  1
1
  0
TEXT
  8
ASYTOP
 72
0
 10
-0.1138818897637795
 20
-0.03063385826771654
 30
  0
 40
0.0375
 50
  0
  1
1
  0
ATTDEF
  8
ASYTOP
 70
0
 72
0
  1
POLCON.100/VH/TM1SQS/W.300/2
  2
SYM_NAME
  3

 10
-18.72412204724409
 20
-13.88322440944882
 30
  0
 40
0.0225
 50
  0
  0
ENDBLK
  0
BLOCK
  8
0
  2
footprint_RAD__150X_100_LS_100_
 10
0.0
 20
0.0
 30
0.0
 70
2
  0
POLYLINE
  8
OBS_GLOBAL_LAYER
 66
1
 39
0.001
 70
1
 40
3.937007874015748e-006
 41
3.937007874015748e-006
  0
VERTEX
  8
OBS_GLOBAL_LAYER
 10
-0.041
 20
-0.054
  0
VERTEX
  8
OBS_GLOBAL_LAYER
 10
0.141
 20
-0.054
  0
VERTEX
  8
OBS_GLOBAL_LAYER
 10
0.141
 20
0.054
  0
VERTEX
  8
OBS_GLOBAL_LAYER
 10
-0.041
 20
0.054
  0
VERTEX
  8
OBS_GLOBAL_LAYER
 10
-0.041
 20
-0.054
  0
SEQEND
  8
OBS_GLOBAL_LAYER
  0
POLYLINE
  8
OBS_SSTOP
 66
1
 70
0
 40
0.008
 41
0.008
  0
VERTEX
  8
OBS_SSTOP
 10
0.125
 20
-0.0375
  0
VERTEX
  8
OBS_SSTOP
 10
0.125
 20
-0.05
  0
VERTEX
  8
OBS_SSTOP
 10
-0.025
 20
-0.05
  0
VERTEX
  8
OBS_SSTOP
 10
-0.025
 20
-0.0375
  0
SEQEND
  8
OBS_SSTOP
  0
POLYLINE
  8
OBS_ASYTOP
 66
1
 70
0
 40
0.008
 41
0.008
  0
VERTEX
  8
OBS_ASYTOP
 10
0.125
 20
-0.0375
  0
VERTEX
  8
OBS_ASYTOP
 10
0.125
 20
-0.05
  0
VERTEX
  8
OBS_ASYTOP
 10
-0.025
 20
-0.05
  0
VERTEX
  8
OBS_ASYTOP
 10
-0.025
 20
-0.0375
  0
SEQEND
  8
OBS_ASYTOP
  0
POLYLINE
  8
OBS_SSTOP
 66
1
 70
0
 40
0.008
 41
0.008
  0
VERTEX
  8
OBS_SSTOP
 10
-0.025
 20
0.0375
  0
VERTEX
  8
OBS_SSTOP
 10
-0.025
 20
0.05
  0
VERTEX
  8
OBS_SSTOP
 10
0.125
 20
0.05
  0
VERTEX
  8
OBS_SSTOP
 10
0.125
 20
0.0375
  0
SEQEND
  8
OBS_SSTOP
  0
POLYLINE
  8
OBS_ASYTOP
 66
1
 70
0
 40
0.008
 41
0.008
  0
VERTEX
  8
OBS_ASYTOP
 10
-0.025
 20
0.0375
  0
VERTEX
  8
OBS_ASYTOP
 10
-0.025
 20
0.05
  0
VERTEX
  8
OBS_ASYTOP
 10
0.125
 20
0.05
  0
VERTEX
  8
OBS_ASYTOP
 10
0.125
 20
0.0375
  0
SEQEND
  8
OBS_ASYTOP
  0
INSERT
  8
PADSTACKS
  2
padstack_TM_RAD_llb_pad2
 10
  0
 20
  0
 30
  0
 50
  0
 41
  1
 42
  1
 43
  1
  0
INSERT
  8
PADSTACKS
  2
padstack_TM_RAD_llb_pad2
 10
0.1
 20
  0
 30
  0
 50
  0
 41
  1
 42
  1
 43
  1
  0
ATTDEF
  8
ASYTOP
 70
0
 72
0
  1
RAD/.150X.100/LS.100/.031
  2
SYM_NAME
  3

 10
-18.69974015748032
 20
-13.77822440944882
 30
  0
 40
0.0225
 50
  0
  0
ENDBLK
  0
BLOCK
  8
0
  2
footprint_AX__600X_175__037
 10
0.0
 20
0.0
 30
0.0
 70
2
  0
POLYLINE
  8
OBS_GLOBAL_LAYER
 66
1
 39
0.001
 70
1
 40
3.937007874015748e-006
 41
3.937007874015748e-006
  0
VERTEX
  8
OBS_GLOBAL_LAYER
 10
-0.0425
 20
-0.0915
  0
VERTEX
  8
OBS_GLOBAL_LAYER
 10
0.6175000000000001
 20
-0.0915
  0
VERTEX
  8
OBS_GLOBAL_LAYER
 10
0.6175000000000001
 20
0.0915
  0
VERTEX
  8
OBS_GLOBAL_LAYER
 10
-0.0425
 20
0.0915
  0
VERTEX
  8
OBS_GLOBAL_LAYER
 10
-0.0425
 20
-0.0915
  0
SEQEND
  8
OBS_GLOBAL_LAYER
  0
POLYLINE
  8
OBS_SSTOP
 66
1
 70
0
 40
0.008
 41
0.008
  0
VERTEX
  8
OBS_SSTOP
 10
0.05
 20
  0
  0
VERTEX
  8
OBS_SSTOP
 10
0.08750000000000001
 20
  0
  0
SEQEND
  8
OBS_SSTOP
  0
POLYLINE
  8
OBS_ASYTOP
 66
1
 70
0
 40
0.008
 41
0.008
  0
VERTEX
  8
OBS_ASYTOP
 10
0.05
 20
  0
  0
VERTEX
  8
OBS_ASYTOP
 10
0.08750000000000001
 20
  0
  0
SEQEND
  8
OBS_ASYTOP
  0
POLYLINE
  8
OBS_SSTOP
 66
1
 70
0
 40
0.008
 41
0.008
  0
VERTEX
  8
OBS_SSTOP
 10
0.08750000000000001
 20
0.08750000000000001
  0
VERTEX
  8
OBS_SSTOP
 10
0.08750000000000001
 20
-0.08750000000000001
  0
VERTEX
  8
OBS_SSTOP
 10
0.08750000000000001
 20
-0.08750000000000001
  0
VERTEX
  8
OBS_SSTOP
 10
0.4875
 20
-0.08750000000000001
  0
VERTEX
  8
OBS_SSTOP
 10
0.4875
 20
0.08750000000000001
  0
VERTEX
  8
OBS_SSTOP
 10
0.08750000000000001
 20
0.08750000000000001
  0
SEQEND
  8
OBS_SSTOP
  0
POLYLINE
  8
OBS_ASYTOP
 66
1
 70
0
 40
0.008
 41
0.008
  0
VERTEX
  8
OBS_ASYTOP
 10
0.08750000000000001
 20
0.08750000000000001
  0
VERTEX
  8
OBS_ASYTOP
 10
0.08750000000000001
 20
-0.08750000000000001
  0
VERTEX
  8
OBS_ASYTOP
 10
0.08750000000000001
 20
-0.08750000000000001
  0
VERTEX
  8
OBS_ASYTOP
 10
0.4875
 20
-0.08750000000000001
  0
VERTEX
  8
OBS_ASYTOP
 10
0.4875
 20
0.08750000000000001
  0
VERTEX
  8
OBS_ASYTOP
 10
0.08750000000000001
 20
0.08750000000000001
  0
SEQEND
  8
OBS_ASYTOP
  0
POLYLINE
  8
OBS_SSTOP
 66
1
 70
0
 40
0.008
 41
0.008
  0
VERTEX
  8
OBS_SSTOP
 10
0.4875
 20
  0
  0
VERTEX
  8
OBS_SSTOP
 10
0.525
 20
  0
  0
SEQEND
  8
OBS_SSTOP
  0
POLYLINE
  8
OBS_ASYTOP
 66
1
 70
0
 40
0.008
 41
0.008
  0
VERTEX
  8
OBS_ASYTOP
 10
0.4875
 20
  0
  0
VERTEX
  8
OBS_ASYTOP
 10
0.525
 20
  0
  0
SEQEND
  8
OBS_ASYTOP
  0
INSERT
  8
PADSTACKS
  2
padstack_TM_AXIAL_llb_pad1
 10
  0
 20
  0
 30
  0
 50
  0
 41
  1
 42
  1
 43
  1
  0
INSERT
  8
PADSTACKS
  2
padstack_TM_AXIAL_llb_pad1
 10
0.5750000000000001
 20
  0
 30
  0
 50
  0
 41
  1
 42
  1
 43
  1
  0
ATTDEF
  8
ASYTOP
 70
0
 72
0
  1
AX/.600X.175/.037
  2
SYM_NAME
  3

 10
-18.39557480314961
 20
-13.77822440944882
 30
  0
 40
0.0225
 50
  0
  0
ENDBLK
  0
BLOCK
  8
0
  2
footprint_AX__500X_100__031_R2
 10
0.0
 20
0.0
 30
0.0
 70
2
  0
INSERT
  8
PADSTACKS
  2
padstack_TM_AXIAL_llb_pad3
 10
  0
 20
  0
 30
  0
 50
  0
 41
  1
 42
  1
 43
  1
  0
INSERT
  8
PADSTACKS
  2
padstack_TM_AXIAL_llb_pad3
 10
0.5
 20
  0
 30
  0
 50
  0
 41
  1
 42
  1
 43
  1
  0
ENDBLK
  0
BLOCK
  8
0
  2
footprint_VRES2_R3
 10
0.0
 20
0.0
 30
0.0
 70
2
  0
INSERT
  8
PADSTACKS
  2
padstack_VRES_llb_pad24_1
 10
  0
 20
  0
 30
  0
 50
 90
 41
  1
 42
  1
 43
  1
  0
INSERT
  8
PADSTACKS
  2
padstack_VRES_llb_pad17_1
 10
0.1
 20
0.1
 30
  0
 50
  0
 41
  1
 42
  1
 43
  1
  0
INSERT
  8
PADSTACKS
  2
padstack_VRES_llb_pad17_1
 10
0.2
 20
  0
 30
  0
 50
  0
 41
  1
 42
  1
 43
  1
  0
ENDBLK
  0
BLOCK
  8
0
  2
footprint_TO92_100_Q1
 10
0.0
 20
0.0
 30
0.0
 70
2
  0
INSERT
  8
PADSTACKS
  2
padstack_TO_llb_pad26
 10
  0
 20
  0
 30
  0
 50
  0
 41
  1
 42
  1
 43
  1
  0
INSERT
  8
PADSTACKS
  2
padstack_TO_llb_pad6
 10
0.1
 20
  0
 30
  0
 50
  0
 41
  1
 42
  1
 43
  1
  0
INSERT
  8
PADSTACKS
  2
padstack_TO_llb_pad6
 10
0.2
 20
  0
 30
  0
 50
  0
 41
  1
 42
  1
 43
  1
  0
ENDBLK
  0
BLOCK
  8
0
  2
footprint_RAD__250X_125_LS_200_
 10
0.0
 20
0.0
 30
0.0
 70
2
  0
INSERT
  8
PADSTACKS
  2
padstack_TM_RAD_llb_pad2
 10
  0
 20
  0
 30
  0
 50
  0
 41
  1
 42
  1
 43
  1
  0
INSERT
  8
PADSTACKS
  2
padstack_TM_RAD_llb_pad2
 10
0.2
 20
  0
 30
  0
 50
  0
 41
  1
 42
  1
 43
  1
  0
ENDBLK
  0
BLOCK
  8
0
  2
footprint_POLCON_100_VH_TM1SQ_2
 10
0.0
 20
0.0
 30
0.0
 70
2
  0
INSERT
  8
PADSTACKS
  2
padstack_PCON100T_llb_pad1
 10
  0
 20
  0
 30
  0
 50
  0
 41
  1
 42
  1
 43
  1
  0
INSERT
  8
PADSTACKS
  2
padstack_PCON100T_llb_pad2
 10
0.1
 20
  0
 30
  0
 50
  0
 41
  1
 42
  1
 43
  1
  0
ENDBLK
  0
BLOCK
  8
0
  2
footprint_POLCON_100_VH_TM1SQ_3
 10
0.0
 20
0.0
 30
0.0
 70
2
  0
INSERT
  8
PADSTACKS
  2
padstack_PCON100T_llb_pad1
 10
  0
 20
  0
 30
  0
 50
  0
 41
  1
 42
  1
 43
  1
  0
INSERT
  8
PADSTACKS
  2
padstack_PCON100T_llb_pad2
 10
0.1
 20
  0
 30
  0
 50
  0
 41
  1
 42
  1
 43
  1
  0
ENDBLK
  0
BLOCK
  8
0
  2
footprint_AX__500X_100__031_R4
 10
0.0
 20
0.0
 30
0.0
 70
2
  0
INSERT
  8
PADSTACKS
  2
padstack_TM_AXIAL_llb_pad3
 10
  0
 20
  0
 30
  0
 50
  0
 41
  1
 42
  1
 43
  1
  0
INSERT
  8
PADSTACKS
  2
padstack_TM_AXIAL_llb_pad3
 10
0.5
 20
  0
 30
  0
 50
  0
 41
  1
 42
  1
 43
  1
  0
ENDBLK
  0
BLOCK
  8
0
  2
footprint_RAD__250X_125_LS_20_2
 10
0.0
 20
0.0
 30
0.0
 70
2
  0
INSERT
  8
PADSTACKS
  2
padstack_TM_RAD_llb_pad2
 10
  0
 20
  0
 30
  0
 50
  0
 41
  1
 42
  1
 43
  1
  0
INSERT
  8
PADSTACKS
  2
padstack_TM_RAD_llb_pad2
 10
0.2
 20
  0
 30
  0
 50
  0
 41
  1
 42
  1
 43
  1
  0
ENDBLK
  0
BLOCK
  8
0
  2
footprint_DAX2__375X_070__034_D
 10
0.0
 20
0.0
 30
0.0
 70
2
  0
INSERT
  8
PADSTACKS
  2
padstack_TM_DIODE_llb_pad8_1
 10
  0
 20
  0
 30
  0
 50
 90
 41
  1
 42
  1
 43
  1
  0
INSERT
  8
PADSTACKS
  2
padstack_TM_DIODE_llb_pad7_1
 10
-0.375
 20
  0
 30
  0
 50
 90
 41
  1
 42
  1
 43
  1
  0
ENDBLK
  0
BLOCK
  8
0
  2
footprint_POLCON_100_VH_TM1SQ_4
 10
0.0
 20
0.0
 30
0.0
 70
2
  0
INSERT
  8
PADSTACKS
  2
padstack_PCON100T_llb_pad1
 10
  0
 20
  0
 30
  0
 50
  0
 41
  1
 42
  1
 43
  1
  0
INSERT
  8
PADSTACKS
  2
padstack_PCON100T_llb_pad2
 10
0.1
 20
  0
 30
  0
 50
  0
 41
  1
 42
  1
 43
  1
  0
ENDBLK
  0
BLOCK
  8
0
  2
footprint_POLCON_100_VH_TM1SQ_5
 10
0.0
 20
0.0
 30
0.0
 70
2
  0
INSERT
  8
PADSTACKS
  2
padstack_PCON100T_llb_pad1
 10
  0
 20
  0
 30
  0
 50
  0
 41
  1
 42
  1
 43
  1
  0
INSERT
  8
PADSTACKS
  2
padstack_PCON100T_llb_pad2
 10
0.1
 20
  0
 30
  0
 50
  0
 41
  1
 42
  1
 43
  1
  0
ENDBLK
  0
BLOCK
  8
0
  2
footprint_AX__600X_175__037_470
 10
0.0
 20
0.0
 30
0.0
 70
2
  0
INSERT
  8
PADSTACKS
  2
padstack_TM_AXIAL_llb_pad1
 10
  0
 20
  0
 30
  0
 50
  0
 41
  1
 42
  1
 43
  1
  0
INSERT
  8
PADSTACKS
  2
padstack_TM_AXIAL_llb_pad1
 10
0.5750000000000001
 20
  0
 30
  0
 50
  0
 41
  1
 42
  1
 43
  1
  0
ENDBLK
  0
BLOCK
  8
0
  2
footprint_RAD__250X_125_LS_20_3
 10
0.0
 20
0.0
 30
0.0
 70
2
  0
POLYLINE
  8
OBS_ASYTOP
 66
1
 70
0
 40
0.008
 41
0.008
  0
VERTEX
  8
OBS_ASYTOP
 10
-0.025
 20
0.0375
  0
VERTEX
  8
OBS_ASYTOP
 10
-0.025
 20
0.0625
  0
VERTEX
  8
OBS_ASYTOP
 10
0.225
 20
0.0625
  0
VERTEX
  8
OBS_ASYTOP
 10
0.225
 20
0.0375
  0
SEQEND
  8
OBS_ASYTOP
  0
POLYLINE
  8
OBS_SSTOP
 66
1
 70
0
 40
0.008
 41
0.008
  0
VERTEX
  8
OBS_SSTOP
 10
-0.025
 20
0.0375
  0
VERTEX
  8
OBS_SSTOP
 10
-0.025
 20
0.0625
  0
VERTEX
  8
OBS_SSTOP
 10
0.225
 20
0.0625
  0
VERTEX
  8
OBS_SSTOP
 10
0.225
 20
0.0375
  0
SEQEND
  8
OBS_SSTOP
  0
POLYLINE
  8
OBS_GLOBAL_LAYER
 66
1
 39
0.001
 70
1
 40
3.937007874015748e-006
 41
3.937007874015748e-006
  0
VERTEX
  8
OBS_GLOBAL_LAYER
 10
-0.041
 20
-0.06650393700787402
  0
VERTEX
  8
OBS_GLOBAL_LAYER
 10
0.241
 20
-0.06650393700787402
  0
VERTEX
  8
OBS_GLOBAL_LAYER
 10
0.241
 20
0.06649606299212599
  0
VERTEX
  8
OBS_GLOBAL_LAYER
 10
-0.041
 20
0.06649606299212599
  0
VERTEX
  8
OBS_GLOBAL_LAYER
 10
-0.041
 20
-0.06650393700787402
  0
SEQEND
  8
OBS_GLOBAL_LAYER
  0
POLYLINE
  8
OBS_SSTOP
 66
1
 70
0
 40
0.008
 41
0.008
  0
VERTEX
  8
OBS_SSTOP
 10
0.225
 20
-0.0375
  0
VERTEX
  8
OBS_SSTOP
 10
0.225
 20
-0.0625
  0
VERTEX
  8
OBS_SSTOP
 10
-0.025
 20
-0.0625
  0
VERTEX
  8
OBS_SSTOP
 10
-0.025
 20
-0.0375
  0
SEQEND
  8
OBS_SSTOP
  0
POLYLINE
  8
OBS_ASYTOP
 66
1
 70
0
 40
0.008
 41
0.008
  0
VERTEX
  8
OBS_ASYTOP
 10
0.225
 20
-0.0375
  0
VERTEX
  8
OBS_ASYTOP
 10
0.225
 20
-0.0625
  0
VERTEX
  8
OBS_ASYTOP
 10
-0.025
 20
-0.0625
  0
VERTEX
  8
OBS_ASYTOP
 10
-0.025
 20
-0.0375
  0
SEQEND
  8
OBS_ASYTOP
  0
INSERT
  8
PADSTACKS
  2
padstack_TM_RAD_llb_pad2
 10
  0
 20
  0
 30
  0
 50
  0
 41
  1
 42
  1
 43
  1
  0
INSERT
  8
PADSTACKS
  2
padstack_TM_RAD_llb_pad2
 10
0.2
 20
  0
 30
  0
 50
  0
 41
  1
 42
  1
 43
  1
  0
ATTDEF
  8
ASYTOP
 70
0
 72
0
  1
RAD/.250X.125/LS.200/.031
  2
SYM_NAME
  3

 10
-18.64974015748032
 20
-13.77822440944882
 30
  0
 40
0.0225
 50
  0
  0
ENDBLK
  0
BLOCK
  8
0
  2
footprint_DAX2__375X_070__034
 10
0.0
 20
0.0
 30
0.0
 70
2
  0
POLYLINE
  8
OBS_SSTOP
 66
1
 70
0
 40
0.008
 41
0.008
  0
VERTEX
  8
OBS_SSTOP
 10
-0.125
 20
  0
  0
VERTEX
  8
OBS_SSTOP
 10
-0.05
 20
  0
  0
SEQEND
  8
OBS_SSTOP
  0
POLYLINE
  8
OBS_ASYTOP
 66
1
 70
0
 40
0.008
 41
0.008
  0
VERTEX
  8
OBS_ASYTOP
 10
-0.125
 20
  0
  0
VERTEX
  8
OBS_ASYTOP
 10
-0.05
 20
  0
  0
SEQEND
  8
OBS_ASYTOP
  0
POLYLINE
  8
OBS_SSTOP
 66
1
 70
0
 40
0.008
 41
0.008
  0
VERTEX
  8
OBS_SSTOP
 10
-0.25
 20
  0
  0
VERTEX
  8
OBS_SSTOP
 10
-0.325
 20
  0
  0
SEQEND
  8
OBS_SSTOP
  0
POLYLINE
  8
OBS_ASYTOP
 66
1
 70
0
 40
0.008
 41
0.008
  0
VERTEX
  8
OBS_ASYTOP
 10
-0.25
 20
  0
  0
VERTEX
  8
OBS_ASYTOP
 10
-0.325
 20
  0
  0
SEQEND
  8
OBS_ASYTOP
  0
POLYLINE
  8
OBS_GLOBAL_LAYER
 66
1
 39
0.001
 70
1
 40
3.937007874015748e-006
 41
3.937007874015748e-006
  0
VERTEX
  8
OBS_GLOBAL_LAYER
 10
-0.4175
 20
-0.0425
  0
VERTEX
  8
OBS_GLOBAL_LAYER
 10
0.0425
 20
-0.0425
  0
VERTEX
  8
OBS_GLOBAL_LAYER
 10
0.0425
 20
0.0425
  0
VERTEX
  8
OBS_GLOBAL_LAYER
 10
-0.4175
 20
0.0425
  0
VERTEX
  8
OBS_GLOBAL_LAYER
 10
-0.4175
 20
-0.0425
  0
SEQEND
  8
OBS_GLOBAL_LAYER
  0
POLYLINE
  8
OBS_SSTOP
 66
1
 70
0
 40
0.008
 41
0.008
  0
VERTEX
  8
OBS_SSTOP
 10
-0.25
 20
-0.0375
  0
VERTEX
  8
OBS_SSTOP
 10
-0.25
 20
0.0375
  0
VERTEX
  8
OBS_SSTOP
 10
-0.125
 20
0.0375
  0
VERTEX
  8
OBS_SSTOP
 10
-0.125
 20
-0.0375
  0
VERTEX
  8
OBS_SSTOP
 10
-0.25
 20
-0.0375
  0
SEQEND
  8
OBS_SSTOP
  0
POLYLINE
  8
OBS_ASYTOP
 66
1
 70
0
 40
0.008
 41
0.008
  0
VERTEX
  8
OBS_ASYTOP
 10
-0.25
 20
-0.0375
  0
VERTEX
  8
OBS_ASYTOP
 10
-0.25
 20
0.0375
  0
VERTEX
  8
OBS_ASYTOP
 10
-0.125
 20
0.0375
  0
VERTEX
  8
OBS_ASYTOP
 10
-0.125
 20
-0.0375
  0
VERTEX
  8
OBS_ASYTOP
 10
-0.25
 20
-0.0375
  0
SEQEND
  8
OBS_ASYTOP
  0
POLYLINE
  8
OBS_SSTOP
 66
1
 70
0
 40
0.008
 41
0.008
  0
VERTEX
  8
OBS_SSTOP
 10
-0.225
 20
-0.0375
  0
VERTEX
  8
OBS_SSTOP
 10
-0.225
 20
0.0375
  0
SEQEND
  8
OBS_SSTOP
  0
POLYLINE
  8
OBS_ASYTOP
 66
1
 70
0
 40
0.008
 41
0.008
  0
VERTEX
  8
OBS_ASYTOP
 10
-0.225
 20
-0.0375
  0
VERTEX
  8
OBS_ASYTOP
 10
-0.225
 20
0.0375
  0
SEQEND
  8
OBS_ASYTOP
  0
INSERT
  8
PADSTACKS
  2
padstack_TM_DIODE_llb_pad8_1
 10
  0
 20
  0
 30
  0
 50
 90
 41
  1
 42
  1
 43
  1
  0
INSERT
  8
PADSTACKS
  2
padstack_TM_DIODE_llb_pad7_1
 10
-0.375
 20
  0
 30
  0
 50
 90
 41
  1
 42
  1
 43
  1
  0
ATTDEF
  8
ASYTOP
 70
0
 72
0
  1
DAX2/.375X.070/.034
  2
SYM_NAME
  3

 10
-18.88663779527559
 20
-13.77822440944882
 30
  0
 40
0.0225
 50
  0
  0
ENDBLK
  0
BLOCK
  8
0
  2
footprint_AX__600X_100__034
 10
0.0
 20
0.0
 30
0.0
 70
2
  0
POLYLINE
  8
OBS_GLOBAL_LAYER
 66
1
 39
0.001
 70
1
 40
3.937007874015748e-006
 41
3.937007874015748e-006
  0
VERTEX
  8
OBS_GLOBAL_LAYER
 10
-0.0425
 20
-0.054
  0
VERTEX
  8
OBS_GLOBAL_LAYER
 10
0.6425000000000001
 20
-0.054
  0
VERTEX
  8
OBS_GLOBAL_LAYER
 10
0.6425000000000001
 20
0.054
  0
VERTEX
  8
OBS_GLOBAL_LAYER
 10
-0.0425
 20
0.054
  0
VERTEX
  8
OBS_GLOBAL_LAYER
 10
-0.0425
 20
-0.054
  0
SEQEND
  8
OBS_GLOBAL_LAYER
  0
POLYLINE
  8
OBS_SSTOP
 66
1
 70
0
 40
0.008
 41
0.008
  0
VERTEX
  8
OBS_SSTOP
 10
0.5125000000000001
 20
-0.05
  0
VERTEX
  8
OBS_SSTOP
 10
0.5125000000000001
 20
0.05
  0
VERTEX
  8
OBS_SSTOP
 10
0.5125000000000001
 20
0.05
  0
VERTEX
  8
OBS_SSTOP
 10
0.08750000000000001
 20
0.05
  0
VERTEX
  8
OBS_SSTOP
 10
0.08750000000000001
 20
-0.05
  0
VERTEX
  8
OBS_SSTOP
 10
0.5125000000000001
 20
-0.05
  0
SEQEND
  8
OBS_SSTOP
  0
POLYLINE
  8
OBS_ASYTOP
 66
1
 70
0
 40
0.008
 41
0.008
  0
VERTEX
  8
OBS_ASYTOP
 10
0.5125000000000001
 20
-0.05
  0
VERTEX
  8
OBS_ASYTOP
 10
0.5125000000000001
 20
0.05
  0
VERTEX
  8
OBS_ASYTOP
 10
0.5125000000000001
 20
0.05
  0
VERTEX
  8
OBS_ASYTOP
 10
0.08750000000000001
 20
0.05
  0
VERTEX
  8
OBS_ASYTOP
 10
0.08750000000000001
 20
-0.05
  0
VERTEX
  8
OBS_ASYTOP
 10
0.5125000000000001
 20
-0.05
  0
SEQEND
  8
OBS_ASYTOP
  0
POLYLINE
  8
OBS_SSTOP
 66
1
 70
0
 40
0.008
 41
0.008
  0
VERTEX
  8
OBS_SSTOP
 10
0.5125000000000001
 20
  0
  0
VERTEX
  8
OBS_SSTOP
 10
0.55
 20
  0
  0
SEQEND
  8
OBS_SSTOP
  0
POLYLINE
  8
OBS_ASYTOP
 66
1
 70
0
 40
0.008
 41
0.008
  0
VERTEX
  8
OBS_ASYTOP
 10
0.5125000000000001
 20
  0
  0
VERTEX
  8
OBS_ASYTOP
 10
0.55
 20
  0
  0
SEQEND
  8
OBS_ASYTOP
  0
POLYLINE
  8
OBS_SSTOP
 66
1
 70
0
 40
0.008
 41
0.008
  0
VERTEX
  8
OBS_SSTOP
 10
0.05
 20
  0
  0
VERTEX
  8
OBS_SSTOP
 10
0.08750000000000001
 20
  0
  0
SEQEND
  8
OBS_SSTOP
  0
POLYLINE
  8
OBS_ASYTOP
 66
1
 70
0
 40
0.008
 41
0.008
  0
VERTEX
  8
OBS_ASYTOP
 10
0.05
 20
  0
  0
VERTEX
  8
OBS_ASYTOP
 10
0.08750000000000001
 20
  0
  0
SEQEND
  8
OBS_ASYTOP
  0
INSERT
  8
PADSTACKS
  2
padstack_TM_AXIAL_llb_pad1
 10
  0
 20
  0
 30
  0
 50
  0
 41
  1
 42
  1
 43
  1
  0
INSERT
  8
PADSTACKS
  2
padstack_TM_AXIAL_llb_pad1
 10
0.6
 20
  0
 30
  0
 50
  0
 41
  1
 42
  1
 43
  1
  0
ATTDEF
  8
ASYTOP
 70
0
 72
0
  1
AX/.600X.100/.034
  2
SYM_NAME
  3

 10
-18.38307086614173
 20
-13.77822440944882
 30
  0
 40
0.0225
 50
  0
  0
ENDBLK
  0
BLOCK
  8
0
  2
footprint_AX__500X_100__031
 10
0.0
 20
0.0
 30
0.0
 70
2
  0
POLYLINE
  8
OBS_GLOBAL_LAYER
 66
1
 39
0.001
 70
1
 40
3.937007874015748e-006
 41
3.937007874015748e-006
  0
VERTEX
  8
OBS_GLOBAL_LAYER
 10
-0.041
 20
-0.054
  0
VERTEX
  8
OBS_GLOBAL_LAYER
 10
0.541
 20
-0.054
  0
VERTEX
  8
OBS_GLOBAL_LAYER
 10
0.541
 20
0.054
  0
VERTEX
  8
OBS_GLOBAL_LAYER
 10
-0.041
 20
0.054
  0
VERTEX
  8
OBS_GLOBAL_LAYER
 10
-0.041
 20
-0.054
  0
SEQEND
  8
OBS_GLOBAL_LAYER
  0
POLYLINE
  8
OBS_SSTOP
 66
1
 70
0
 40
0.008
 41
0.008
  0
VERTEX
  8
OBS_SSTOP
 10
0.425
 20
-0.05
  0
VERTEX
  8
OBS_SSTOP
 10
0.425
 20
0.05
  0
VERTEX
  8
OBS_SSTOP
 10
0.425
 20
0.05
  0
VERTEX
  8
OBS_SSTOP
 10
0.075
 20
0.05
  0
VERTEX
  8
OBS_SSTOP
 10
0.075
 20
-0.05
  0
VERTEX
  8
OBS_SSTOP
 10
0.425
 20
-0.05
  0
SEQEND
  8
OBS_SSTOP
  0
POLYLINE
  8
OBS_ASYTOP
 66
1
 70
0
 40
0.008
 41
0.008
  0
VERTEX
  8
OBS_ASYTOP
 10
0.425
 20
-0.05
  0
VERTEX
  8
OBS_ASYTOP
 10
0.425
 20
0.05
  0
VERTEX
  8
OBS_ASYTOP
 10
0.425
 20
0.05
  0
VERTEX
  8
OBS_ASYTOP
 10
0.075
 20
0.05
  0
VERTEX
  8
OBS_ASYTOP
 10
0.075
 20
-0.05
  0
VERTEX
  8
OBS_ASYTOP
 10
0.425
 20
-0.05
  0
SEQEND
  8
OBS_ASYTOP
  0
POLYLINE
  8
OBS_SSTOP
 66
1
 70
0
 40
0.008
 41
0.008
  0
VERTEX
  8
OBS_SSTOP
 10
0.425
 20
  0
  0
VERTEX
  8
OBS_SSTOP
 10
0.45
 20
  0
  0
SEQEND
  8
OBS_SSTOP
  0
POLYLINE
  8
OBS_ASYTOP
 66
1
 70
0
 40
0.008
 41
0.008
  0
VERTEX
  8
OBS_ASYTOP
 10
0.425
 20
  0
  0
VERTEX
  8
OBS_ASYTOP
 10
0.45
 20
  0
  0
SEQEND
  8
OBS_ASYTOP
  0
POLYLINE
  8
OBS_SSTOP
 66
1
 70
0
 40
0.008
 41
0.008
  0
VERTEX
  8
OBS_SSTOP
 10
0.075
 20
  0
  0
VERTEX
  8
OBS_SSTOP
 10
0.05
 20
  0
  0
SEQEND
  8
OBS_SSTOP
  0
POLYLINE
  8
OBS_ASYTOP
 66
1
 70
0
 40
0.008
 41
0.008
  0
VERTEX
  8
OBS_ASYTOP
 10
0.075
 20
  0
  0
VERTEX
  8
OBS_ASYTOP
 10
0.05
 20
  0
  0
SEQEND
  8
OBS_ASYTOP
  0
INSERT
  8
PADSTACKS
  2
padstack_TM_AXIAL_llb_pad3
 10
  0
 20
  0
 30
  0
 50
  0
 41
  1
 42
  1
 43
  1
  0
INSERT
  8
PADSTACKS
  2
padstack_TM_AXIAL_llb_pad3
 10
0.5
 20
  0
 30
  0
 50
  0
 41
  1
 42
  1
 43
  1
  0
ATTDEF
  8
ASYTOP
 70
0
 72
0
  1
AX/.500X.100/.031
  2
SYM_NAME
  3

 10
-18.43307086614173
 20
-13.77822440944882
 30
  0
 40
0.0225
 50
  0
  0
ENDBLK
  0
ENDSEC
  0
SECTION
  2
ENTITIES
  0
INSERT
  8
COMPONENTS_TOP
  66
1
  2
footprint_AX__600X_175__037_470
 10
-3.55
 20
0.3683070866141732
 30
  0
 50
180
 41
  1
 42
  1
 43
  1
  0
ATTRIB
  8
ASYTOP
 70
0
 72
0
  1
470R
  2
COMP_NAME
 10
-3.772948818897638
 20
0.3389251968503937
 30
  0
 40
0.0375
 50
180
  0
ATTRIB
  8
ASYTOP
 70
0
 72
0
  1
AX/.600X.175/.037_470R
  2
SYM_NAME
 10
-4.714267716535433
 20
0.1461377952755906
 30
  0
 40
0.0225
 50
180
  0
SEQEND
  8
0
  0
INSERT
  8
COMPONENTS_TOP
  66
1
  2
footprint_RAD__250X_125_LS_200_
 10
-3.808858267716536
 20
0.1423228346456693
 30
  0
 50
270
 41
  1
 42
  1
 43
  1
  0
ATTRIB
  8
ASYTOP
 70
0
 72
0
  1
D1
  2
COMP_NAME
 10
-3.791976377952756
 20
0.09437007874015749
 30
  0
 40
0.0375
 50
270
  0
ATTRIB
  8
ASYTOP
 70
0
 72
0
  1
RAD/.250X.125/LS.200/.031_D1
  2
SYM_NAME
 10
-3.827240157480315
 20
0.248755905511811
 30
  0
 40
0.0225
 50
270
  0
SEQEND
  8
0
  0
INSERT
  8
COMPONENTS_TOP
  66
1
  2
footprint_RAD__250X_125_LS_20_2
 10
-3.55984251968504
 20
-0.0547244094488189
 30
  0
 50
 90
 41
  1
 42
  1
 43
  1
  0
ATTRIB
  8
ASYTOP
 70
0
 72
0
  1
D2
  2
COMP_NAME
 10
-3.576724409448819
 20
-0.006771653543307087
 30
  0
 40
0.0375
 50
 90
  0
ATTRIB
  8
ASYTOP
 70
0
 72
0
  1
RAD/.250X.125/LS.200/.031_D2
  2
SYM_NAME
 10
-3.54146062992126
 20
-0.1611574803149606
 30
  0
 40
0.0225
 50
 90
  0
SEQEND
  8
0
  0
INSERT
  8
COMPONENTS_TOP
  66
1
  2
footprint_DAX2__375X_070__034_D
 10
-2.538779527559055
 20
-0.05708661417322835
 30
  0
 50
  0
 41
  1
 42
  1
 43
  1
  0
ATTRIB
  8
ASYTOP
 70
0
 72
0
  1
D3
  2
COMP_NAME
 10
-2.787728346456693
 20
-0.1402165354330709
 30
  0
 40
0.0375
 50
  0
  0
ATTRIB
  8
ASYTOP
 70
0
 72
0
  1
DAX2/.375X.070/.034_D3
  2
SYM_NAME
 10
-2.882110236220473
 20
-0.07546850393700788
 30
  0
 40
0.0225
 50
  0
  0
SEQEND
  8
0
  0
INSERT
  8
COMPONENTS_TOP
  66
1
  2
footprint_POLCON_100_VH_TM1SQ_2
 10
-4.328543307086615
 20
0.1618110236220473
 30
  0
 50
 90
 41
  1
 42
  1
 43
  1
  0
ATTRIB
  8
ASYTOP
 70
0
 72
0
  1
JP1
  2
COMP_NAME
 10
-4.387925196850394
 20
0.1473622047244095
 30
  0
 40
0.0375
 50
 90
  0
ATTRIB
  8
ASYTOP
 70
0
 72
0
  1
POLCON.100/VH/TM1SQS/W.300/2_JP1
  2
SYM_NAME
 10
-4.205161417322834
 20
-0.01900393700787402
 30
  0
 40
0.0225
 50
 90
  0
SEQEND
  8
0
  0
INSERT
  8
COMPONENTS_TOP
  66
1
  2
footprint_POLCON_100_VH_TM1SQ_3
 10
0.5511811023622047
 20
0.2600393700787402
 30
  0
 50
270
 41
  1
 42
  1
 43
  1
  0
ATTRIB
  8
ASYTOP
 70
0
 72
0
  1
JP2
  2
COMP_NAME
 10
0.6105629921259843
 20
0.2744881889763779
 30
  0
 40
0.0375
 50
270
  0
ATTRIB
  8
ASYTOP
 70
0
 72
0
  1
POLCON.100/VH/TM1SQS/W.300/2_JP2
  2
SYM_NAME
 10
0.4277992125984252
 20
0.4408543307086614
 30
  0
 40
0.0225
 50
270
  0
SEQEND
  8
0
  0
INSERT
  8
COMPONENTS_TOP
  66
1
  2
footprint_TO92_100_Q1
 10
0.1153543307086614
 20
0.05019685039370079
 30
  0
 50
  0
 41
  1
 42
  1
 43
  1
  0
ATTRIB
  8
ASYTOP
 70
0
 72
0
  1
Q1
  2
COMP_NAME
 10
0.1539055118110236
 20
0.1170787401574803
 30
  0
 40
0.0375
 50
  0
  0
ATTRIB
  8
ASYTOP
 70
0
 72
0
  1
TO92/100_Q1
  2
SYM_NAME
 10
0.1536889763779528
 20
0.04431496062992126
 30
  0
 40
0.0225
 50
  0
  0
SEQEND
  8
0
  0
INSERT
  8
COMPONENTS_TOP
  66
1
  2
footprint_AX__500X_100__031_R2
 10
-0.7641732283464567
 20
-0.01161417322834646
 30
  0
 50
 90
 41
  1
 42
  1
 43
  1
  0
ATTRIB
  8
ASYTOP
 70
0
 72
0
  1
R2
  2
COMP_NAME
 10
-0.7935551181102363
 20
0.1738346456692914
 30
  0
 40
0.0375
 50
 90
  0
ATTRIB
  8
ASYTOP
 70
0
 72
0
  1
AX/.500X.100/.031_R2
  2
SYM_NAME
 10
-0.7457913385826772
 20
0.09862204724409449
 30
  0
 40
0.0225
 50
 90
  0
SEQEND
  8
0
  0
INSERT
  8
COMPONENTS_TOP
  66
1
  2
footprint_VRES2_R3
 10
-4.123031496062993
 20
0.1931102362204724
 30
  0
 50
270
 41
  1
 42
  1
 43
  1
  0
ATTRIB
  8
ASYTOP
 70
0
 72
0
  1
R3
  2
COMP_NAME
 10
-4.038649606299213
 20
0.1575590551181103
 30
  0
 40
0.0375
 50
270
  0
ATTRIB
  8
ASYTOP
 70
0
 72
0
  1
VRES2_R3
  2
SYM_NAME
 10
-4.093897637795275
 20
0.1397755905511811
 30
  0
 40
0.0225
 50
270
  0
SEQEND
  8
0
  0
INSERT
  8
COMPONENTS_TOP
  66
1
  2
footprint_AX__500X_100__031_R4
 10
-1.366732283464567
 20
0.01712598425196851
 30
  0
 50
180
 41
  1
 42
  1
 43
  1
  0
ATTRIB
  8
ASYTOP
 70
0
 72
0
  1
AX/.500X.100/.031_R4
  2
SYM_NAME
 10
-1.476968503937008
 20
0.03550787401574803
 30
  0
 40
0.0225
 50
180
  0
ATTRIB
  8
ASYTOP
 70
0
 72
0
  1
R4
  2
COMP_NAME
 10
-1.552181102362205
 20
-0.01225590551181102
 30
  0
 40
0.0375
 50
180
  0
SEQEND
  8
0
  0
INSERT
  8
COMPONENTS_TOP
  66
1
  2
footprint_POLCON_100_VH_TM1SQ_4
 10
0.1982283464566929
 20
0.3448818897637795
 30
  0
 50
270
 41
  1
 42
  1
 43
  1
  0
ATTRIB
  8
ASYTOP
 70
0
 72
0
  1
TP1
  2
COMP_NAME
 10
0.2576102362204725
 20
0.3593307086614174
 30
  0
 40
0.0375
 50
270
  0
ATTRIB
  8
ASYTOP
 70
0
 72
0
  1
POLCON.100/VH/TM1SQS/W.300/2_TP1
  2
SYM_NAME
 10
0.07484645669291339
 20
0.5256968503937008
 30
  0
 40
0.0225
 50
270
  0
SEQEND
  8
0
  0
INSERT
  8
COMPONENTS_TOP
  66
1
  2
footprint_POLCON_100_VH_TM1SQ_5
 10
-3.279527559055118
 20
0.2409448818897638
 30
  0
 50
 90
 41
  1
 42
  1
 43
  1
  0
ATTRIB
  8
ASYTOP
 70
0
 72
0
  1
TP2
  2
COMP_NAME
 10
-3.338909448818898
 20
0.226496062992126
 30
  0
 40
0.0375
 50
 90
  0
ATTRIB
  8
ASYTOP
 70
0
 72
0
  1
POLCON.100/VH/TM1SQS/W.300/2_TP2
  2
SYM_NAME
 10
-3.156145669291339
 20
0.06012992125984253
 30
  0
 40
0.0225
 50
 90
  0
SEQEND
  8
0
  0
POLYLINE
  8
BOTTOM
 66
1
 70
0
 40
0.02952755905511811
 41
0.02952755905511811
  0
VERTEX
  8
BOTTOM
 10
-1.866732283464567
 20
0.01712598425196851
  0
VERTEX
  8
BOTTOM
 10
-2.020866141732284
 20
0.01712598425196851
  0
VERTEX
  8
BOTTOM
 10
-2.086614173228347
 20
-0.05708661417322835
  0
VERTEX
  8
BOTTOM
 10
-2.538779527559055
 20
-0.05708661417322835
  0
SEQEND
  8
BOTTOM
  0
POLYLINE
  8
BOTTOM
 66
1
 70
0
 40
0.02952755905511811
 41
0.02952755905511811
  0
VERTEX
  8
BOTTOM
 10
0.5511811023622047
 20
0.1600393700787402
  0
VERTEX
  8
BOTTOM
 10
0.6261811023622047
 20
0.1600393700787402
  0
VERTEX
  8
BOTTOM
 10
0.65
 20
0.175
  0
VERTEX
  8
BOTTOM
 10
0.65
 20
0.425
  0
VERTEX
  8
BOTTOM
 10
-0.03937007874015748
 20
0.425
  0
VERTEX
  8
BOTTOM
 10
-0.03937007874015748
 20
0.3
  0
VERTEX
  8
BOTTOM
 10
 -1
 20
0.3
  0
VERTEX
  8
BOTTOM
 10
-1.275
 20
0.025
  0
SEQEND
  8
BOTTOM
  0
POLYLINE
  8
GLOBAL_LAYER
 66
1
 70
0
 40
0.0
 41
0.0
  0
VERTEX
  8
GLOBAL_LAYER
 10
-1.275
 20
0.025
  0
VERTEX
  8
GLOBAL_LAYER
 10
-1.270177165354331
 20
0.01712598425196851
  0
SEQEND
  8
GLOBAL_LAYER
  0
POLYLINE
  8
BOTTOM
 66
1
 70
0
 40
0.02952755905511811
 41
0.02952755905511811
  0
VERTEX
  8
BOTTOM
 10
-1.270177165354331
 20
0.01712598425196851
  0
VERTEX
  8
BOTTOM
 10
-1.366732283464567
 20
0.01712598425196851
  0
SEQEND
  8
BOTTOM
  0
POLYLINE
  8
BOTTOM
 66
1
 70
0
 40
0.02952755905511811
 41
0.02952755905511811
  0
VERTEX
  8
BOTTOM
 10
0.1153543307086614
 20
0.05019685039370079
  0
VERTEX
  8
BOTTOM
 10
0.05
 20
0.125
  0
VERTEX
  8
BOTTOM
 10
-1.075
 20
0.125
  0
VERTEX
  8
BOTTOM
 10
-1.186417322834646
 20
0.01023622047244095
  0
VERTEX
  8
BOTTOM
 10
-1.205511811023622
 20
0.01023622047244095
  0
VERTEX
  8
BOTTOM
 10
-1.284251968503937
 20
-0.06850393700787402
  0
VERTEX
  8
BOTTOM
 10
-1.461417322834646
 20
-0.06850393700787402
  0
VERTEX
  8
BOTTOM
 10
-1.625
 20
0.1
  0
VERTEX
  8
BOTTOM
 10
-1.625
 20
0.125
  0
VERTEX
  8
BOTTOM
 10
-1.653543307086614
 20
0.125
  0
VERTEX
  8
BOTTOM
 10
-1.653543307086614
 20
0.2362204724409449
  0
VERTEX
  8
BOTTOM
 10
-3.05
 20
0.2362204724409449
  0
VERTEX
  8
BOTTOM
 10
-3.05
 20
0.01023622047244095
  0
VERTEX
  8
BOTTOM
 10
-3.676771653543307
 20
0.01023622047244095
  0
VERTEX
  8
BOTTOM
 10
-3.808858267716536
 20
0.1423228346456693
  0
SEQEND
  8
BOTTOM
  0
POLYLINE
  8
BOTTOM
 66
1
 70
0
 40
0.02952755905511811
 41
0.02952755905511811
  0
VERTEX
  8
BOTTOM
 10
0.2153543307086614
 20
0.05019685039370079
  0
VERTEX
  8
BOTTOM
 10
0.2153543307086614
 20
0.05019685039370079
  0
SEQEND
  8
BOTTOM
  0
POLYLINE
  8
BOTTOM
 66
1
 70
0
 40
0.02952755905511811
 41
0.02952755905511811
  0
VERTEX
  8
BOTTOM
 10
-4.123031496062993
 20
0.1931102362204724
  0
VERTEX
  8
BOTTOM
 10
-4.123031496062993
 20
0.1181102362204724
  0
VERTEX
  8
BOTTOM
 10
-4.098031496062992
 20
0.09311023622047245
  0
VERTEX
  8
BOTTOM
 10
-4.023031496062992
 20
0.09311023622047245
  0
SEQEND
  8
BOTTOM
  0
POLYLINE
  8
BOTTOM
 66
1
 70
0
 40
0.02952755905511811
 41
0.02952755905511811
  0
VERTEX
  8
BOTTOM
 10
-3.55984251968504
 20
-0.0547244094488189
  0
VERTEX
  8
BOTTOM
 10
-2.947047244094488
 20
-0.0547244094488189
  0
VERTEX
  8
BOTTOM
 10
-2.947047244094488
 20
-0.03051181102362205
  0
VERTEX
  8
BOTTOM
 10
-2.913779527559055
 20
-0.06377952755905512
  0
VERTEX
  8
BOTTOM
 10
-2.913779527559055
 20
-0.05708661417322835
  0
SEQEND
  8
BOTTOM
  0
POLYLINE
  8
BOTTOM
 66
1
 70
0
 40
0.02952755905511811
 41
0.02952755905511811
  0
VERTEX
  8
BOTTOM
 10
0.1982283464566929
 20
0.3448818897637795
  0
VERTEX
  8
BOTTOM
 10
0.310236220472441
 20
0.3448818897637795
  0
VERTEX
  8
BOTTOM
 10
0.3950787401574804
 20
0.2600393700787402
  0
VERTEX
  8
BOTTOM
 10
0.5511811023622047
 20
0.2600393700787402
  0
SEQEND
  8
BOTTOM
  0
POLYLINE
  8
BOTTOM
 66
1
 70
0
 40
0.02952755905511811
 41
0.02952755905511811
  0
VERTEX
  8
BOTTOM
 10
-0.7641732283464567
 20
-0.01161417322834646
  0
VERTEX
  8
BOTTOM
 10
-0.7641732283464567
 20
0.07874015748031496
  0
VERTEX
  8
BOTTOM
 10
-0.03937007874015748
 20
0.07874015748031496
  0
VERTEX
  8
BOTTOM
 10
-0.03937007874015748
 20
-0.075
  0
VERTEX
  8
BOTTOM
 10
0.175
 20
-0.075
  0
VERTEX
  8
BOTTOM
 10
0.2153543307086614
 20
-0.02480314960629921
  0
VERTEX
  8
BOTTOM
 10
0.2153543307086614
 20
0.05019685039370079
  0
SEQEND
  8
BOTTOM
  0
POLYLINE
  8
BOTTOM
 66
1
 70
0
 40
0.02952755905511811
 41
0.02952755905511811
  0
VERTEX
  8
BOTTOM
 10
-4.125
 20
0.3683070866141732
  0
VERTEX
  8
BOTTOM
 10
-4.125
 20
0.2503937007874016
  0
VERTEX
  8
BOTTOM
 10
-4.123031496062993
 20
0.2484251968503937
  0
VERTEX
  8
BOTTOM
 10
-4.123031496062993
 20
0.1931102362204724
  0
SEQEND
  8
BOTTOM
  0
POLYLINE
  8
BOTTOM
 66
1
 70
0
 40
0.02952755905511811
 41
0.02952755905511811
  0
VERTEX
  8
BOTTOM
 10
-4.328543307086615
 20
0.1618110236220473
  0
VERTEX
  8
BOTTOM
 10
-4.228543307086614
 20
0.1618110236220473
  0
VERTEX
  8
BOTTOM
 10
-4.228543307086614
 20
0.4433070866141732
  0
VERTEX
  8
BOTTOM
 10
-4.05984251968504
 20
0.4433070866141732
  0
VERTEX
  8
BOTTOM
 10
-3.862992125984252
 20
0.2464566929133858
  0
VERTEX
  8
BOTTOM
 10
-3.744881889763779
 20
0.2464566929133858
  0
VERTEX
  8
BOTTOM
 10
-3.675
 20
0.2
  0
VERTEX
  8
BOTTOM
 10
-3.675
 20
0.075
  0
VERTEX
  8
BOTTOM
 10
-3.125
 20
0.075
  0
VERTEX
  8
BOTTOM
 10
-3.125
 20
0.3149606299212598
  0
VERTEX
  8
BOTTOM
 10
-1.653543307086614
 20
0.3149606299212598
  0
VERTEX
  8
BOTTOM
 10
-1.366732283464567
 20
0.01712598425196851
  0
SEQEND
  8
BOTTOM
  0
POLYLINE
  8
BOTTOM
 66
1
 70
0
 40
0.02952755905511811
 41
0.02952755905511811
  0
VERTEX
  8
BOTTOM
 10
-4.123031496062993
 20
-0.006889763779527559
  0
VERTEX
  8
BOTTOM
 10
-4.397047244094488
 20
-0.006889763779527559
  0
VERTEX
  8
BOTTOM
 10
-4.492913385826772
 20
0.08897637795275591
  0
VERTEX
  8
BOTTOM
 10
-4.492913385826772
 20
0.5220472440944882
  0
VERTEX
  8
BOTTOM
 10
-4.414173228346457
 20
0.6007874015748032
  0
VERTEX
  8
BOTTOM
 10
-3.878740157480315
 20
0.6007874015748032
  0
VERTEX
  8
BOTTOM
 10
-3.848818897637795
 20
0.5708661417322835
  0
VERTEX
  8
BOTTOM
 10
-3.051181102362205
 20
0.5708661417322835
  0
VERTEX
  8
BOTTOM
 10
-3.051181102362205
 20
0.4527559055118111
  0
VERTEX
  8
BOTTOM
 10
-0.984251968503937
 20
0.4527559055118111
  0
VERTEX
  8
BOTTOM
 10
-0.984251968503937
 20
0.5614173228346457
  0
VERTEX
  8
BOTTOM
 10
-0.6496062992125985
 20
0.5614173228346457
  0
VERTEX
  8
BOTTOM
 10
-0.6496062992125985
 20
0.4330708661417323
  0
VERTEX
  8
BOTTOM
 10
-0.2755905511811024
 20
0.4330708661417323
  0
VERTEX
  8
BOTTOM
 10
-0.2755905511811024
 20
0.531496062992126
  0
VERTEX
  8
BOTTOM
 10
0.715748031496063
 20
0.531496062992126
  0
VERTEX
  8
BOTTOM
 10
0.7826771653543307
 20
0.4645669291338583
  0
VERTEX
  8
BOTTOM
 10
0.7826771653543307
 20
-0.01102362204724409
  0
VERTEX
  8
BOTTOM
 10
0.7371062992125984
 20
-0.05659448818897638
  0
VERTEX
  8
BOTTOM
 10
0.2221456692913386
 20
-0.05659448818897638
  0
VERTEX
  8
BOTTOM
 10
0.2153543307086614
 20
-0.04980314960629922
  0
VERTEX
  8
BOTTOM
 10
0.2153543307086614
 20
0.05019685039370079
  0
SEQEND
  8
BOTTOM
  0
POLYLINE
  8
BOTTOM
 66
1
 70
0
 40
0.02952755905511811
 41
0.02952755905511811
  0
VERTEX
  8
BOTTOM
 10
-3.808858267716536
 20
-0.05767716535433071
  0
VERTEX
  8
BOTTOM
 10
-3.872244094488189
 20
-0.05767716535433071
  0
VERTEX
  8
BOTTOM
 10
-4.023031496062992
 20
0.09311023622047245
  0
SEQEND
  8
BOTTOM
  0
POLYLINE
  8
BOTTOM
 66
1
 70
0
 40
0.02952755905511811
 41
0.02952755905511811
  0
VERTEX
  8
BOTTOM
 10
0.3153543307086614
 20
0.05019685039370079
  0
VERTEX
  8
BOTTOM
 10
0.6864173228346457
 20
0.05019685039370079
  0
VERTEX
  8
BOTTOM
 10
0.7039370078740158
 20
0.06771653543307087
  0
VERTEX
  8
BOTTOM
 10
0.7039370078740158
 20
0.4501968503937008
  0
VERTEX
  8
BOTTOM
 10
0.665748031496063
 20
0.4883858267716535
  0
VERTEX
  8
BOTTOM
 10
-0.1021653543307087
 20
0.4883858267716535
  0
VERTEX
  8
BOTTOM
 10
-0.2362204724409449
 20
0.3543307086614174
  0
VERTEX
  8
BOTTOM
 10
-0.6496062992125985
 20
0.3543307086614174
  0
VERTEX
  8
BOTTOM
 10
-0.7641732283464567
 20
0.4883858267716535
  0
SEQEND
  8
BOTTOM
  0
POLYLINE
  8
BOTTOM
 66
1
 70
0
 40
0.02952755905511811
 41
0.02952755905511811
  0
VERTEX
  8
BOTTOM
 10
-4.123031496062993
 20
0.1931102362204724
  0
VERTEX
  8
BOTTOM
 10
-4.123031496062993
 20
0.075
  0
VERTEX
  8
BOTTOM
 10
-4.360826771653543
 20
0.075
  0
VERTEX
  8
BOTTOM
 10
-4.414173228346457
 20
0.1283464566929134
  0
VERTEX
  8
BOTTOM
 10
-4.414173228346457
 20
0.4866141732283465
  0
VERTEX
  8
BOTTOM
 10
-4.359055118110237
 20
0.5417322834645669
  0
VERTEX
  8
BOTTOM
 10
-3.914173228346457
 20
0.5417322834645669
  0
VERTEX
  8
BOTTOM
 10
-3.855118110236221
 20
0.4826771653543308
  0
VERTEX
  8
BOTTOM
 10
-3.803937007874016
 20
0.4826771653543308
  0
VERTEX
  8
BOTTOM
 10
-3.575
 20
0.2409448818897638
  0
VERTEX
  8
BOTTOM
 10
-3.279527559055118
 20
0.2409448818897638
  0
SEQEND
  8
BOTTOM
  0
POLYLINE
  8
BOTTOM
 66
1
 70
0
 40
0.02952755905511811
 41
0.02952755905511811
  0
VERTEX
  8
BOTTOM
 10
-4.023031496062992
 20
0.09311023622047245
  0
VERTEX
  8
BOTTOM
 10
-4.123031496062993
 20
0.09311023622047245
  0
VERTEX
  8
BOTTOM
 10
-4.123031496062993
 20
0.1931102362204724
  0
SEQEND
  8
BOTTOM
  0
POLYLINE
  8
BOTTOM
 66
1
 70
0
 40
0.02952755905511811
 41
0.02952755905511811
  0
VERTEX
  8
BOTTOM
 10
-3.55
 20
0.3683070866141732
  0
VERTEX
  8
BOTTOM
 10
-3.494685039370079
 20
0.4236220472440945
  0
VERTEX
  8
BOTTOM
 10
-3.185629921259843
 20
0.4236220472440945
  0
VERTEX
  8
BOTTOM
 10
-3.175
 20
0.275
  0
VERTEX
  8
BOTTOM
 10
-3.175
 20
0.125
  0
VERTEX
  8
BOTTOM
 10
-3.25
 20
0.125
  0
VERTEX
  8
BOTTOM
 10
-3.25
 20
0.1452755905511811
  0
VERTEX
  8
BOTTOM
 10
-3.55984251968504
 20
0.1452755905511811
  0
SEQEND
  8
BOTTOM
  0
POLYLINE
  8
BOTTOM
 66
1
 70
0
 40
0.02952755905511811
 41
0.02952755905511811
  0
VERTEX
  8
BOTTOM
 10
-3.55
 20
0.3683070866141732
  0
VERTEX
  8
BOTTOM
 10
-3.494685039370079
 20
0.4236220472440945
  0
VERTEX
  8
BOTTOM
 10
-3.260629921259843
 20
0.4236220472440945
  0
VERTEX
  8
BOTTOM
 10
-3.201574803149606
 20
0.4826771653543308
  0
VERTEX
  8
BOTTOM
 10
-3.110236220472441
 20
0.4826771653543308
  0
VERTEX
  8
BOTTOM
 10
-3.110236220472441
 20
0.3937007874015748
  0
VERTEX
  8
BOTTOM
 10
-0.9261811023622047
 20
0.3937007874015748
  0
VERTEX
  8
BOTTOM
 10
-0.9261811023622047
 20
0.4826771653543308
  0
VERTEX
  8
BOTTOM
 10
-0.8372047244094488
 20
0.4826771653543308
  0
VERTEX
  8
BOTTOM
 10
-0.831496062992126
 20
0.4883858267716535
  0
VERTEX
  8
BOTTOM
 10
-0.7641732283464567
 20
0.4883858267716535
  0
SEQEND
  8
BOTTOM
  0
POLYLINE
  8
BOTTOM
 66
1
 70
0
 40
0.02952755905511811
 41
0.02952755905511811
  0
VERTEX
  8
BOTTOM
 10
-4.328543307086615
 20
0.2618110236220473
  0
VERTEX
  8
BOTTOM
 10
-4.328543307086615
 20
0.4828740157480315
  0
VERTEX
  8
BOTTOM
 10
-4.324803149606299
 20
0.4866141732283465
  0
VERTEX
  8
BOTTOM
 10
-3.961417322834646
 20
0.4866141732283465
  0
VERTEX
  8
BOTTOM
 10
-3.878740157480315
 20
0.4039370078740158
  0
VERTEX
  8
BOTTOM
 10
-3.818503937007874
 20
0.4039370078740158
  0
VERTEX
  8
BOTTOM
 10
-3.55984251968504
 20
0.1452755905511811
  0
SEQEND
  8
BOTTOM
  0
TEXT
  8
TOP
 72
0
 10
-1.996307086614173
 20
-0.498228346456693
 30
  0
 40
0.05625
 50
  0
  1
137.69
  0
TEXT
  8
DRLDWG
 72
0
 10
1.247917322834646
 20
-2.175
 30
  0
 40
0.1125
 50
  0
  1
DRILL CHART
  0
TEXT
  8
DRLDWG
 72
0
 10
-0.05
 20
-2.375
 30
  0
 40
0.1125
 50
  0
  1
SYM
  0
TEXT
  8
DRLDWG
 72
0
 10
0.5154173228346457
 20
-2.375
 30
  0
 40
0.1125
 50
  0
  1
DIAM
  0
TEXT
  8
DRLDWG
 72
0
 10
1.384165354330709
 20
-2.375
 30
  0
 40
0.1125
 50
  0
  1
TOL
  0
TEXT
  8
DRLDWG
 72
0
 10
2.060830708661417
 20
-2.375
 30
  0
 40
0.1125
 50
  0
  1
QTY
  0
TEXT
  8
DRLDWG
 72
0
 10
2.867913385826772
 20
-2.375
 30
  0
 40
0.1125
 50
  0
  1
NOTE
  0
TEXT
  8
DRLDWG
 72
0
 10
0.4886181102362205
 20
-2.525
 30
  0
 40
0.075
 50
  0
  1
0.711 mm
  0
TEXT
  8
DRLDWG
 72
0
 10
2.320830708661418
 20
-2.525
 30
  0
 40
0.075
 50
  0
  1
3
  0
TEXT
  8
DRLDWG
 72
0
 10
0.4663897637795276
 20
-2.675
 30
  0
 40
0.075
 50
  0
  1
0.787 mm
  0
TEXT
  8
DRLDWG
 72
0
 10
2.273059055118111
 20
-2.675
 30
  0
 40
0.075
 50
  0
  1
11
  0
TEXT
  8
DRLDWG
 72
0
 10
0.4663897637795276
 20
-2.825
 30
  0
 40
0.075
 50
  0
  1
0.864 mm
  0
TEXT
  8
DRLDWG
 72
0
 10
2.320830708661418
 20
-2.825
 30
  0
 40
0.075
 50
  0
  1
4
  0
TEXT
  8
DRLDWG
 72
0
 10
0.477503937007874
 20
-2.975
 30
  0
 40
0.075
 50
  0
  1
1.067 mm
  0
TEXT
  8
DRLDWG
 72
0
 10
2.320830708661418
 20
-2.975
 30
  0
 40
0.075
 50
  0
  1
8
  0
TEXT
  8
DRLDWG
 72
0
 10
0.6845826771653544
 20
-3.175
 30
  0
 40
0.1125
 50
  0
  1
TOTAL
  0
TEXT
  8
DRLDWG
 72
0
 10
2.200830708661417
 20
-3.175
 30
  0
 40
0.1125
 50
  0
  1
26
  0
TEXT
  8
TOP
 72
0
 10
-2.926905511811024
 20
0.734251968503937
 30
  0
 40
0.05625
 50
  0
  1
15.09
  0
TEXT
  8
TOP
 72
0
 10
-0.362240157480315
 20
0.7364173228346457
 30
  0
 40
0.05625
 50
  0
  1
14.97
  0
POLYLINE
  8
OBS_ASYTOP
 66
1
 70
0
 40
0.008
 41
0.008
  0
VERTEX
  8
OBS_ASYTOP
 10
0.1232283464566929
 20
0.4073818897637795
  0
VERTEX
  8
OBS_ASYTOP
 10
0.1232283464566929
 20
0.1823818897637795
  0
SEQEND
  8
OBS_ASYTOP
  0
POLYLINE
  8
OBS_SSTOP
 66
1
 70
0
 40
0.008
 41
0.008
  0
VERTEX
  8
OBS_SSTOP
 10
0.04822834645669292
 20
0.1823818897637795
  0
VERTEX
  8
OBS_SSTOP
 10
0.04822834645669292
 20
0.4073818897637795
  0
VERTEX
  8
OBS_SSTOP
 10
0.3482283464566929
 20
0.4073818897637795
  0
VERTEX
  8
OBS_SSTOP
 10
0.3482283464566929
 20
0.1823818897637795
  0
VERTEX
  8
OBS_SSTOP
 10
0.04822834645669292
 20
0.1823818897637795
  0
SEQEND
  8
OBS_SSTOP
  0
POLYLINE
  8
OBS_ASYTOP
 66
1
 70
0
 40
0.008
 41
0.008
  0
VERTEX
  8
OBS_ASYTOP
 10
0.04822834645669292
 20
0.1823818897637795
  0
VERTEX
  8
OBS_ASYTOP
 10
0.04822834645669292
 20
0.4073818897637795
  0
VERTEX
  8
OBS_ASYTOP
 10
0.3482283464566929
 20
0.4073818897637795
  0
VERTEX
  8
OBS_ASYTOP
 10
0.3482283464566929
 20
0.1823818897637795
  0
VERTEX
  8
OBS_ASYTOP
 10
0.04822834645669292
 20
0.1823818897637795
  0
SEQEND
  8
OBS_ASYTOP
  0
POLYLINE
  8
OBS_GLOBAL_LAYER
 66
1
 39
0.001
 70
1
 40
3.937007874015748e-006
 41
3.937007874015748e-006
  0
VERTEX
  8
OBS_GLOBAL_LAYER
 10
-3.119228346456693
 20
0.168244094488189
  0
VERTEX
  8
OBS_GLOBAL_LAYER
 10
-3.119228346456693
 20
0.4074448818897638
  0
VERTEX
  8
OBS_GLOBAL_LAYER
 10
-3.433527559055118
 20
0.4074448818897638
  0
VERTEX
  8
OBS_GLOBAL_LAYER
 10
-3.433527559055118
 20
0.168244094488189
  0
VERTEX
  8
OBS_GLOBAL_LAYER
 10
-3.119228346456693
 20
0.168244094488189
  0
SEQEND
  8
OBS_GLOBAL_LAYER
  0
POLYLINE
  8
OBS_SSTOP
 66
1
 70
0
 40
0.008
 41
0.008
  0
VERTEX
  8
OBS_SSTOP
 10
-3.129527559055118
 20
0.1784448818897638
  0
VERTEX
  8
OBS_SSTOP
 10
-3.129429133858268
 20
0.1784448818897638
  0
VERTEX
  8
OBS_SSTOP
 10
-3.123228346456693
 20
0.172244094488189
  0
SEQEND
  8
OBS_SSTOP
  0
POLYLINE
  8
OBS_ASYTOP
 66
1
 70
0
 40
0.008
 41
0.008
  0
VERTEX
  8
OBS_ASYTOP
 10
-3.129527559055118
 20
0.1784448818897638
  0
VERTEX
  8
OBS_ASYTOP
 10
-3.129429133858268
 20
0.1784448818897638
  0
VERTEX
  8
OBS_ASYTOP
 10
-3.123228346456693
 20
0.172244094488189
  0
SEQEND
  8
OBS_ASYTOP
  0
POLYLINE
  8
OBS_SSTOP
 66
1
 70
0
 40
0.008
 41
0.008
  0
VERTEX
  8
OBS_SSTOP
 10
-3.204527559055118
 20
0.1784448818897638
  0
VERTEX
  8
OBS_SSTOP
 10
-3.204527559055118
 20
0.4034448818897638
  0
SEQEND
  8
OBS_SSTOP
  0
POLYLINE
  8
OBS_ASYTOP
 66
1
 70
0
 40
0.008
 41
0.008
  0
VERTEX
  8
OBS_ASYTOP
 10
-3.204527559055118
 20
0.1784448818897638
  0
VERTEX
  8
OBS_ASYTOP
 10
-3.204527559055118
 20
0.4034448818897638
  0
SEQEND
  8
OBS_ASYTOP
  0
POLYLINE
  8
OBS_SSTOP
 66
1
 70
0
 40
0.008
 41
0.008
  0
VERTEX
  8
OBS_SSTOP
 10
-3.129527559055118
 20
0.4034448818897638
  0
VERTEX
  8
OBS_SSTOP
 10
-3.129527559055118
 20
0.1784448818897638
  0
VERTEX
  8
OBS_SSTOP
 10
-3.429527559055118
 20
0.1784448818897638
  0
VERTEX
  8
OBS_SSTOP
 10
-3.429527559055118
 20
0.4034448818897638
  0
VERTEX
  8
OBS_SSTOP
 10
-3.129527559055118
 20
0.4034448818897638
  0
SEQEND
  8
OBS_SSTOP
  0
POLYLINE
  8
OBS_ASYTOP
 66
1
 70
0
 40
0.008
 41
0.008
  0
VERTEX
  8
OBS_ASYTOP
 10
-3.129527559055118
 20
0.4034448818897638
  0
VERTEX
  8
OBS_ASYTOP
 10
-3.129527559055118
 20
0.1784448818897638
  0
VERTEX
  8
OBS_ASYTOP
 10
-3.429527559055118
 20
0.1784448818897638
  0
VERTEX
  8
OBS_ASYTOP
 10
-3.429527559055118
 20
0.4034448818897638
  0
VERTEX
  8
OBS_ASYTOP
 10
-3.129527559055118
 20
0.4034448818897638
  0
SEQEND
  8
OBS_ASYTOP
  0
POLYLINE
  8
OBS_GLOBAL_LAYER
 66
1
 39
0.001
 70
1
 40
3.937007874015748e-006
 41
3.937007874015748e-006
  0
VERTEX
  8
OBS_GLOBAL_LAYER
 10
-3.5075
 20
0.4598070866141732
  0
VERTEX
  8
OBS_GLOBAL_LAYER
 10
-4.1675
 20
0.4598070866141732
  0
VERTEX
  8
OBS_GLOBAL_LAYER
 10
-4.1675
 20
0.2768070866141733
  0
VERTEX
  8
OBS_GLOBAL_LAYER
 10
-3.5075
 20
0.2768070866141733
  0
VERTEX
  8
OBS_GLOBAL_LAYER
 10
-3.5075
 20
0.4598070866141732
  0
SEQEND
  8
OBS_GLOBAL_LAYER
  0
POLYLINE
  8
OBS_SSTOP
 66
1
 70
0
 40
0.008
 41
0.008
  0
VERTEX
  8
OBS_SSTOP
 10
-3.6
 20
0.3683070866141732
  0
VERTEX
  8
OBS_SSTOP
 10
-3.6375
 20
0.3683070866141732
  0
SEQEND
  8
OBS_SSTOP
  0
POLYLINE
  8
OBS_ASYTOP
 66
1
 70
0
 40
0.008
 41
0.008
  0
VERTEX
  8
OBS_ASYTOP
 10
-3.6
 20
0.3683070866141732
  0
VERTEX
  8
OBS_ASYTOP
 10
-3.6375
 20
0.3683070866141732
  0
SEQEND
  8
OBS_ASYTOP
  0
POLYLINE
  8
OBS_SSTOP
 66
1
 70
0
 40
0.008
 41
0.008
  0
VERTEX
  8
OBS_SSTOP
 10
-3.6375
 20
0.2808070866141733
  0
VERTEX
  8
OBS_SSTOP
 10
-3.6375
 20
0.4558070866141732
  0
VERTEX
  8
OBS_SSTOP
 10
-3.6375
 20
0.4558070866141732
  0
VERTEX
  8
OBS_SSTOP
 10
-4.037500000000001
 20
0.4558070866141732
  0
VERTEX
  8
OBS_SSTOP
 10
-4.037500000000001
 20
0.2808070866141733
  0
VERTEX
  8
OBS_SSTOP
 10
-3.6375
 20
0.2808070866141733
  0
SEQEND
  8
OBS_SSTOP
  0
POLYLINE
  8
OBS_ASYTOP
 66
1
 70
0
 40
0.008
 41
0.008
  0
VERTEX
  8
OBS_ASYTOP
 10
-3.6375
 20
0.2808070866141733
  0
VERTEX
  8
OBS_ASYTOP
 10
-3.6375
 20
0.4558070866141732
  0
VERTEX
  8
OBS_ASYTOP
 10
-3.6375
 20
0.4558070866141732
  0
VERTEX
  8
OBS_ASYTOP
 10
-4.037500000000001
 20
0.4558070866141732
  0
VERTEX
  8
OBS_ASYTOP
 10
-4.037500000000001
 20
0.2808070866141733
  0
VERTEX
  8
OBS_ASYTOP
 10
-3.6375
 20
0.2808070866141733
  0
SEQEND
  8
OBS_ASYTOP
  0
POLYLINE
  8
OBS_SSTOP
 66
1
 70
0
 40
0.008
 41
0.008
  0
VERTEX
  8
OBS_SSTOP
 10
-4.037500000000001
 20
0.3683070866141732
  0
VERTEX
  8
OBS_SSTOP
 10
-4.075
 20
0.3683070866141732
  0
SEQEND
  8
OBS_SSTOP
  0
POLYLINE
  8
OBS_ASYTOP
 66
1
 70
0
 40
0.008
 41
0.008
  0
VERTEX
  8
OBS_ASYTOP
 10
-4.037500000000001
 20
0.3683070866141732
  0
VERTEX
  8
OBS_ASYTOP
 10
-4.075
 20
0.3683070866141732
  0
SEQEND
  8
OBS_ASYTOP
  0
POLYLINE
  8
OBS_GLOBAL_LAYER
 66
1
 39
0.001
 70
1
 40
3.937007874015748e-006
 41
3.937007874015748e-006
  0
VERTEX
  8
OBS_GLOBAL_LAYER
 10
-4.177031496062992
 20
0.2346102362204725
  0
VERTEX
  8
OBS_GLOBAL_LAYER
 10
-4.177031496062992
 20
-0.04838976377952756
  0
VERTEX
  8
OBS_GLOBAL_LAYER
 10
-3.969031496062992
 20
-0.04838976377952756
  0
VERTEX
  8
OBS_GLOBAL_LAYER
 10
-3.969031496062992
 20
0.2346102362204725
  0
VERTEX
  8
OBS_GLOBAL_LAYER
 10
-4.177031496062992
 20
0.2346102362204725
  0
SEQEND
  8
OBS_GLOBAL_LAYER
  0
POLYLINE
  8
OBS_SSTOP
 66
1
 70
0
 40
0.008
 41
0.008
  0
VERTEX
  8
OBS_SSTOP
 10
-4.023031496062992
 20
0.1681102362204724
  0
VERTEX
  8
OBS_SSTOP
 10
-4.023031496062992
 20
0.2181102362204725
  0
SEQEND
  8
OBS_SSTOP
  0
POLYLINE
  8
OBS_ASYTOP
 66
1
 70
0
 40
0.008
 41
0.008
  0
VERTEX
  8
OBS_ASYTOP
 10
-4.023031496062992
 20
0.1681102362204724
  0
VERTEX
  8
OBS_ASYTOP
 10
-4.023031496062992
 20
0.2181102362204725
  0
SEQEND
  8
OBS_ASYTOP
  0
POLYLINE
  8
OBS_SSTOP
 66
1
 70
0
 40
0.008
 41
0.008
  0
VERTEX
  8
OBS_SSTOP
 10
-4.173031496062992
 20
0.2306102362204724
  0
VERTEX
  8
OBS_SSTOP
 10
-4.173031496062992
 20
-0.04438976377952756
  0
SEQEND
  8
OBS_SSTOP
  0
POLYLINE
  8
OBS_ASYTOP
 66
1
 70
0
 40
0.008
 41
0.008
  0
VERTEX
  8
OBS_ASYTOP
 10
-4.173031496062992
 20
0.2306102362204724
  0
VERTEX
  8
OBS_ASYTOP
 10
-4.173031496062992
 20
-0.04438976377952756
  0
SEQEND
  8
OBS_ASYTOP
  0
POLYLINE
  8
OBS_SSTOP
 66
1
 70
0
 40
0.008
 41
0.008
  0
VERTEX
  8
OBS_SSTOP
 10
-4.085531496062992
 20
-0.04438976377952756
  0
VERTEX
  8
OBS_SSTOP
 10
-3.973031496062992
 20
-0.04438976377952756
  0
VERTEX
  8
OBS_SSTOP
 10
-3.973031496062992
 20
0.2306102362204724
  0
VERTEX
  8
OBS_SSTOP
 10
-4.073031496062992
 20
0.2306102362204724
  0
SEQEND
  8
OBS_SSTOP
  0
POLYLINE
  8
OBS_ASYTOP
 66
1
 70
0
 40
0.008
 41
0.008
  0
VERTEX
  8
OBS_ASYTOP
 10
-4.085531496062992
 20
-0.04438976377952756
  0
VERTEX
  8
OBS_ASYTOP
 10
-3.973031496062992
 20
-0.04438976377952756
  0
VERTEX
  8
OBS_ASYTOP
 10
-3.973031496062992
 20
0.2306102362204724
  0
VERTEX
  8
OBS_ASYTOP
 10
-4.073031496062992
 20
0.2306102362204724
  0
SEQEND
  8
OBS_ASYTOP
  0
POLYLINE
  8
OBS_GLOBAL_LAYER
 66
1
 39
0.001
 70
1
 40
3.937007874015748e-006
 41
3.937007874015748e-006
  0
VERTEX
  8
OBS_GLOBAL_LAYER
 10
0.07285433070866142
 20
-0.02880314960629921
  0
VERTEX
  8
OBS_GLOBAL_LAYER
 10
0.3578543307086614
 20
-0.02880314960629921
  0
VERTEX
  8
OBS_GLOBAL_LAYER
 10
0.3578543307086614
 20
0.1590984251968504
  0
VERTEX
  8
OBS_GLOBAL_LAYER
 10
0.07285433070866142
 20
0.1590984251968504
  0
VERTEX
  8
OBS_GLOBAL_LAYER
 10
0.07285433070866142
 20
-0.02880314960629921
  0
SEQEND
  8
OBS_GLOBAL_LAYER
  0
POLYLINE
  8
OBS_SSTOP
 66
1
 70
0
 40
0.008
 41
0.008
  0
VERTEX
  8
OBS_SSTOP
 10
0.1184527559055118
 20
0.0100984251968504
  0
VERTEX
  8
OBS_SSTOP
 10
0.1411535433070866
 20
-0.02400393700787402
  0
VERTEX
  8
OBS_SSTOP
 10
0.1419527559055118
 20
-0.02480314960629921
  0
VERTEX
  8
OBS_SSTOP
 10
0.2903543307086614
 20
-0.02480314960629921
  0
SEQEND
  8
OBS_SSTOP
  0
POLYLINE
  8
OBS_ASYTOP
 66
1
 70
0
 40
0.008
 41
0.008
  0
VERTEX
  8
OBS_ASYTOP
 10
0.1184527559055118
 20
0.0100984251968504
  0
VERTEX
  8
OBS_ASYTOP
 10
0.1411535433070866
 20
-0.02400393700787402
  0
VERTEX
  8
OBS_ASYTOP
 10
0.1419527559055118
 20
-0.02480314960629921
  0
VERTEX
  8
OBS_ASYTOP
 10
0.2903543307086614
 20
-0.02480314960629921
  0
SEQEND
  8
OBS_ASYTOP
  0
POLYLINE
  8
OBS_SSTOP
 66
1
 70
0
 40
0.008
 41
0.008
  0
VERTEX
  8
OBS_SSTOP
 10
0.2895551181102362
 20
-0.02400393700787402
  0
VERTEX
  8
OBS_SSTOP
 10
0.312255905511811
 20
0.0100984251968504
  0
SEQEND
  8
OBS_SSTOP
  0
POLYLINE
  8
OBS_ASYTOP
 66
1
 70
0
 40
0.008
 41
0.008
  0
VERTEX
  8
OBS_ASYTOP
 10
0.2895551181102362
 20
-0.02400393700787402
  0
VERTEX
  8
OBS_ASYTOP
 10
0.312255905511811
 20
0.0100984251968504
  0
SEQEND
  8
OBS_ASYTOP
  0
POLYLINE
  8
OBS_SSTOP
 66
1
 70
0
 40
0.008
 41
0.008
  0
VERTEX
  8
OBS_SSTOP
 10
0.312255905511811
 20
0.09029527559055119
  0
VERTEX
  8
OBS_SSTOP
 10
0.2895551181102362
 20
0.1243976377952756
  0
VERTEX
  8
OBS_SSTOP
 10
0.2554527559055118
 20
0.1470984251968504
  0
VERTEX
  8
OBS_SSTOP
 10
0.2554527559055118
 20
0.1470984251968504
  0
VERTEX
  8
OBS_SSTOP
 10
0.2153543307086614
 20
0.1550984251968504
  0
VERTEX
  8
OBS_SSTOP
 10
0.2153543307086614
 20
0.1550984251968504
  0
VERTEX
  8
OBS_SSTOP
 10
0.175255905511811
 20
0.1470984251968504
  0
VERTEX
  8
OBS_SSTOP
 10
0.1411535433070866
 20
0.1243976377952756
  0
VERTEX
  8
OBS_SSTOP
 10
0.1184527559055118
 20
0.09029527559055119
  0
SEQEND
  8
OBS_SSTOP
  0
POLYLINE
  8
OBS_ASYTOP
 66
1
 70
0
 40
0.008
 41
0.008
  0
VERTEX
  8
OBS_ASYTOP
 10
0.312255905511811
 20
0.09029527559055119
  0
VERTEX
  8
OBS_ASYTOP
 10
0.2895551181102362
 20
0.1243976377952756
  0
VERTEX
  8
OBS_ASYTOP
 10
0.2554527559055118
 20
0.1470984251968504
  0
VERTEX
  8
OBS_ASYTOP
 10
0.2554527559055118
 20
0.1470984251968504
  0
VERTEX
  8
OBS_ASYTOP
 10
0.2153543307086614
 20
0.1550984251968504
  0
VERTEX
  8
OBS_ASYTOP
 10
0.2153543307086614
 20
0.1550984251968504
  0
VERTEX
  8
OBS_ASYTOP
 10
0.175255905511811
 20
0.1470984251968504
  0
VERTEX
  8
OBS_ASYTOP
 10
0.1411535433070866
 20
0.1243976377952756
  0
VERTEX
  8
OBS_ASYTOP
 10
0.1184527559055118
 20
0.09029527559055119
  0
SEQEND
  8
OBS_ASYTOP
  0
POLYLINE
  8
OBS_ASYTOP
 66
1
 70
0
 40
0.008
 41
0.008
  0
VERTEX
  8
OBS_ASYTOP
 10
-3.52234251968504
 20
0.1702755905511811
  0
VERTEX
  8
OBS_ASYTOP
 10
-3.49734251968504
 20
0.1702755905511811
  0
VERTEX
  8
OBS_ASYTOP
 10
-3.49734251968504
 20
-0.0797244094488189
  0
VERTEX
  8
OBS_ASYTOP
 10
-3.52234251968504
 20
-0.0797244094488189
  0
SEQEND
  8
OBS_ASYTOP
  0
POLYLINE
  8
OBS_SSTOP
 66
1
 70
0
 40
0.008
 41
0.008
  0
VERTEX
  8
OBS_SSTOP
 10
-3.59734251968504
 20
-0.0797244094488189
  0
VERTEX
  8
OBS_SSTOP
 10
-3.62234251968504
 20
-0.0797244094488189
  0
VERTEX
  8
OBS_SSTOP
 10
-3.62234251968504
 20
0.1702755905511811
  0
VERTEX
  8
OBS_SSTOP
 10
-3.59734251968504
 20
0.1702755905511811
  0
SEQEND
  8
OBS_SSTOP
  0
POLYLINE
  8
OBS_ASYTOP
 66
1
 70
0
 40
0.008
 41
0.008
  0
VERTEX
  8
OBS_ASYTOP
 10
-3.59734251968504
 20
-0.0797244094488189
  0
VERTEX
  8
OBS_ASYTOP
 10
-3.62234251968504
 20
-0.0797244094488189
  0
VERTEX
  8
OBS_ASYTOP
 10
-3.62234251968504
 20
0.1702755905511811
  0
VERTEX
  8
OBS_ASYTOP
 10
-3.59734251968504
 20
0.1702755905511811
  0
SEQEND
  8
OBS_ASYTOP
  0
POLYLINE
  8
OBS_GLOBAL_LAYER
 66
1
 39
0.001
 70
1
 40
3.937007874015748e-006
 41
3.937007874015748e-006
  0
VERTEX
  8
OBS_GLOBAL_LAYER
 10
-4.168244094488189
 20
0.08911023622047244
  0
VERTEX
  8
OBS_GLOBAL_LAYER
 10
-4.168244094488189
 20
0.3283110236220473
  0
VERTEX
  8
OBS_GLOBAL_LAYER
 10
-4.482543307086615
 20
0.3283110236220473
  0
VERTEX
  8
OBS_GLOBAL_LAYER
 10
-4.482543307086615
 20
0.08911023622047244
  0
VERTEX
  8
OBS_GLOBAL_LAYER
 10
-4.168244094488189
 20
0.08911023622047244
  0
SEQEND
  8
OBS_GLOBAL_LAYER
  0
POLYLINE
  8
OBS_SSTOP
 66
1
 70
0
 40
0.008
 41
0.008
  0
VERTEX
  8
OBS_SSTOP
 10
-4.178543307086614
 20
0.09931102362204725
  0
VERTEX
  8
OBS_SSTOP
 10
-4.178444881889764
 20
0.09931102362204725
  0
VERTEX
  8
OBS_SSTOP
 10
-4.172244094488189
 20
0.09311023622047245
  0
SEQEND
  8
OBS_SSTOP
  0
POLYLINE
  8
OBS_ASYTOP
 66
1
 70
0
 40
0.008
 41
0.008
  0
VERTEX
  8
OBS_ASYTOP
 10
-4.178543307086614
 20
0.09931102362204725
  0
VERTEX
  8
OBS_ASYTOP
 10
-4.178444881889764
 20
0.09931102362204725
  0
VERTEX
  8
OBS_ASYTOP
 10
-4.172244094488189
 20
0.09311023622047245
  0
SEQEND
  8
OBS_ASYTOP
  0
POLYLINE
  8
OBS_SSTOP
 66
1
 70
0
 40
0.008
 41
0.008
  0
VERTEX
  8
OBS_SSTOP
 10
-4.253543307086614
 20
0.09931102362204725
  0
VERTEX
  8
OBS_SSTOP
 10
-4.253543307086614
 20
0.3243110236220473
  0
SEQEND
  8
OBS_SSTOP
  0
POLYLINE
  8
OBS_ASYTOP
 66
1
 70
0
 40
0.008
 41
0.008
  0
VERTEX
  8
OBS_ASYTOP
 10
-4.253543307086614
 20
0.09931102362204725
  0
VERTEX
  8
OBS_ASYTOP
 10
-4.253543307086614
 20
0.3243110236220473
  0
SEQEND
  8
OBS_ASYTOP
  0
POLYLINE
  8
OBS_SSTOP
 66
1
 70
0
 40
0.008
 41
0.008
  0
VERTEX
  8
OBS_SSTOP
 10
-4.178543307086614
 20
0.3243110236220473
  0
VERTEX
  8
OBS_SSTOP
 10
-4.178543307086614
 20
0.09931102362204725
  0
VERTEX
  8
OBS_SSTOP
 10
-4.478543307086614
 20
0.09931102362204725
  0
VERTEX
  8
OBS_SSTOP
 10
-4.478543307086614
 20
0.3243110236220473
  0
VERTEX
  8
OBS_SSTOP
 10
-4.178543307086614
 20
0.3243110236220473
  0
SEQEND
  8
OBS_SSTOP
  0
POLYLINE
  8
OBS_ASYTOP
 66
1
 70
0
 40
0.008
 41
0.008
  0
VERTEX
  8
OBS_ASYTOP
 10
-4.178543307086614
 20
0.3243110236220473
  0
VERTEX
  8
OBS_ASYTOP
 10
-4.178543307086614
 20
0.09931102362204725
  0
VERTEX
  8
OBS_ASYTOP
 10
-4.478543307086614
 20
0.09931102362204725
  0
VERTEX
  8
OBS_ASYTOP
 10
-4.478543307086614
 20
0.3243110236220473
  0
VERTEX
  8
OBS_ASYTOP
 10
-4.178543307086614
 20
0.3243110236220473
  0
SEQEND
  8
OBS_ASYTOP
  0
POLYLINE
  8
OBS_GLOBAL_LAYER
 66
1
 39
0.001
 70
1
 40
3.937007874015748e-006
 41
3.937007874015748e-006
  0
VERTEX
  8
OBS_GLOBAL_LAYER
 10
0.3908818897637795
 20
0.332740157480315
  0
VERTEX
  8
OBS_GLOBAL_LAYER
 10
0.3908818897637795
 20
0.09353937007874016
  0
VERTEX
  8
OBS_GLOBAL_LAYER
 10
0.7051811023622048
 20
0.09353937007874016
  0
VERTEX
  8
OBS_GLOBAL_LAYER
 10
0.7051811023622048
 20
0.332740157480315
  0
VERTEX
  8
OBS_GLOBAL_LAYER
 10
0.3908818897637795
 20
0.332740157480315
  0
SEQEND
  8
OBS_GLOBAL_LAYER
  0
POLYLINE
  8
OBS_SSTOP
 66
1
 70
0
 40
0.008
 41
0.008
  0
VERTEX
  8
OBS_SSTOP
 10
0.4011811023622047
 20
0.3225393700787402
  0
VERTEX
  8
OBS_SSTOP
 10
0.4010826771653543
 20
0.3225393700787402
  0
VERTEX
  8
OBS_SSTOP
 10
0.3948818897637795
 20
0.328740157480315
  0
SEQEND
  8
OBS_SSTOP
  0
POLYLINE
  8
OBS_ASYTOP
 66
1
 70
0
 40
0.008
 41
0.008
  0
VERTEX
  8
OBS_ASYTOP
 10
0.4011811023622047
 20
0.3225393700787402
  0
VERTEX
  8
OBS_ASYTOP
 10
0.4010826771653543
 20
0.3225393700787402
  0
VERTEX
  8
OBS_ASYTOP
 10
0.3948818897637795
 20
0.328740157480315
  0
SEQEND
  8
OBS_ASYTOP
  0
POLYLINE
  8
OBS_SSTOP
 66
1
 70
0
 40
0.008
 41
0.008
  0
VERTEX
  8
OBS_SSTOP
 10
0.4761811023622047
 20
0.3225393700787402
  0
VERTEX
  8
OBS_SSTOP
 10
0.4761811023622047
 20
0.09753937007874017
  0
SEQEND
  8
OBS_SSTOP
  0
POLYLINE
  8
OBS_ASYTOP
 66
1
 70
0
 40
0.008
 41
0.008
  0
VERTEX
  8
OBS_ASYTOP
 10
0.4761811023622047
 20
0.3225393700787402
  0
VERTEX
  8
OBS_ASYTOP
 10
0.4761811023622047
 20
0.09753937007874017
  0
SEQEND
  8
OBS_ASYTOP
  0
POLYLINE
  8
OBS_SSTOP
 66
1
 70
0
 40
0.008
 41
0.008
  0
VERTEX
  8
OBS_SSTOP
 10
0.4011811023622047
 20
0.09753937007874017
  0
VERTEX
  8
OBS_SSTOP
 10
0.4011811023622047
 20
0.3225393700787402
  0
VERTEX
  8
OBS_SSTOP
 10
0.7011811023622048
 20
0.3225393700787402
  0
VERTEX
  8
OBS_SSTOP
 10
0.7011811023622048
 20
0.09753937007874017
  0
VERTEX
  8
OBS_SSTOP
 10
0.4011811023622047
 20
0.09753937007874017
  0
SEQEND
  8
OBS_SSTOP
  0
POLYLINE
  8
OBS_ASYTOP
 66
1
 70
0
 40
0.008
 41
0.008
  0
VERTEX
  8
OBS_ASYTOP
 10
0.4011811023622047
 20
0.09753937007874017
  0
VERTEX
  8
OBS_ASYTOP
 10
0.4011811023622047
 20
0.3225393700787402
  0
VERTEX
  8
OBS_ASYTOP
 10
0.7011811023622048
 20
0.3225393700787402
  0
VERTEX
  8
OBS_ASYTOP
 10
0.7011811023622048
 20
0.09753937007874017
  0
VERTEX
  8
OBS_ASYTOP
 10
0.4011811023622047
 20
0.09753937007874017
  0
SEQEND
  8
OBS_ASYTOP
  0
POLYLINE
  8
OBS_GLOBAL_LAYER
 66
1
 39
0.001
 70
1
 40
3.937007874015748e-006
 41
3.937007874015748e-006
  0
VERTEX
  8
OBS_GLOBAL_LAYER
 10
-0.7101732283464567
 20
-0.05261417322834646
  0
VERTEX
  8
OBS_GLOBAL_LAYER
 10
-0.7101732283464567
 20
0.5293858267716536
  0
VERTEX
  8
OBS_GLOBAL_LAYER
 10
-0.8181732283464567
 20
0.5293858267716536
  0
VERTEX
  8
OBS_GLOBAL_LAYER
 10
-0.8181732283464567
 20
-0.05261417322834646
  0
VERTEX
  8
OBS_GLOBAL_LAYER
 10
-0.7101732283464567
 20
-0.05261417322834646
  0
SEQEND
  8
OBS_GLOBAL_LAYER
  0
POLYLINE
  8
OBS_SSTOP
 66
1
 70
0
 40
0.008
 41
0.008
  0
VERTEX
  8
OBS_SSTOP
 10
-0.7141732283464567
 20
0.4133858267716536
  0
VERTEX
  8
OBS_SSTOP
 10
-0.8141732283464568
 20
0.4133858267716536
  0
VERTEX
  8
OBS_SSTOP
 10
-0.8141732283464568
 20
0.4133858267716536
  0
VERTEX
  8
OBS_SSTOP
 10
-0.8141732283464568
 20
0.06338582677165354
  0
VERTEX
  8
OBS_SSTOP
 10
-0.7141732283464567
 20
0.06338582677165354
  0
VERTEX
  8
OBS_SSTOP
 10
-0.7141732283464567
 20
0.4133858267716536
  0
SEQEND
  8
OBS_SSTOP
  0
POLYLINE
  8
OBS_ASYTOP
 66
1
 70
0
 40
0.008
 41
0.008
  0
VERTEX
  8
OBS_ASYTOP
 10
-0.7141732283464567
 20
0.4133858267716536
  0
VERTEX
  8
OBS_ASYTOP
 10
-0.8141732283464568
 20
0.4133858267716536
  0
VERTEX
  8
OBS_ASYTOP
 10
-0.8141732283464568
 20
0.4133858267716536
  0
VERTEX
  8
OBS_ASYTOP
 10
-0.8141732283464568
 20
0.06338582677165354
  0
VERTEX
  8
OBS_ASYTOP
 10
-0.7141732283464567
 20
0.06338582677165354
  0
VERTEX
  8
OBS_ASYTOP
 10
-0.7141732283464567
 20
0.4133858267716536
  0
SEQEND
  8
OBS_ASYTOP
  0
POLYLINE
  8
OBS_SSTOP
 66
1
 70
0
 40
0.008
 41
0.008
  0
VERTEX
  8
OBS_SSTOP
 10
-0.7641732283464567
 20
0.4133858267716536
  0
VERTEX
  8
OBS_SSTOP
 10
-0.7641732283464567
 20
0.4383858267716536
  0
SEQEND
  8
OBS_SSTOP
  0
POLYLINE
  8
OBS_ASYTOP
 66
1
 70
0
 40
0.008
 41
0.008
  0
VERTEX
  8
OBS_ASYTOP
 10
-0.7641732283464567
 20
0.4133858267716536
  0
VERTEX
  8
OBS_ASYTOP
 10
-0.7641732283464567
 20
0.4383858267716536
  0
SEQEND
  8
OBS_ASYTOP
  0
POLYLINE
  8
OBS_SSTOP
 66
1
 70
0
 40
0.008
 41
0.008
  0
VERTEX
  8
OBS_SSTOP
 10
-0.7641732283464567
 20
0.06338582677165354
  0
VERTEX
  8
OBS_SSTOP
 10
-0.7641732283464567
 20
0.03838582677165355
  0
SEQEND
  8
OBS_SSTOP
  0
POLYLINE
  8
OBS_ASYTOP
 66
1
 70
0
 40
0.008
 41
0.008
  0
VERTEX
  8
OBS_ASYTOP
 10
-0.7641732283464567
 20
0.06338582677165354
  0
VERTEX
  8
OBS_ASYTOP
 10
-0.7641732283464567
 20
0.03838582677165355
  0
SEQEND
  8
OBS_ASYTOP
  0
POLYLINE
  8
OBS_GLOBAL_LAYER
 66
1
 39
0.001
 70
1
 40
3.937007874015748e-006
 41
3.937007874015748e-006
  0
VERTEX
  8
OBS_GLOBAL_LAYER
 10
0.03792913385826772
 20
0.4175826771653544
  0
VERTEX
  8
OBS_GLOBAL_LAYER
 10
0.03792913385826772
 20
0.1783818897637795
  0
VERTEX
  8
OBS_GLOBAL_LAYER
 10
0.3522283464566929
 20
0.1783818897637795
  0
VERTEX
  8
OBS_GLOBAL_LAYER
 10
0.3522283464566929
 20
0.4175826771653544
  0
VERTEX
  8
OBS_GLOBAL_LAYER
 10
0.03792913385826772
 20
0.4175826771653544
  0
SEQEND
  8
OBS_GLOBAL_LAYER
  0
POLYLINE
  8
OBS_SSTOP
 66
1
 70
0
 40
0.008
 41
0.008
  0
VERTEX
  8
OBS_SSTOP
 10
0.04822834645669292
 20
0.4073818897637795
  0
VERTEX
  8
OBS_SSTOP
 10
0.04812992125984252
 20
0.4073818897637795
  0
VERTEX
  8
OBS_SSTOP
 10
0.04192913385826772
 20
0.4135826771653544
  0
SEQEND
  8
OBS_SSTOP
  0
POLYLINE
  8
OBS_ASYTOP
 66
1
 70
0
 40
0.008
 41
0.008
  0
VERTEX
  8
OBS_ASYTOP
 10
0.04822834645669292
 20
0.4073818897637795
  0
VERTEX
  8
OBS_ASYTOP
 10
0.04812992125984252
 20
0.4073818897637795
  0
VERTEX
  8
OBS_ASYTOP
 10
0.04192913385826772
 20
0.4135826771653544
  0
SEQEND
  8
OBS_ASYTOP
  0
POLYLINE
  8
OBS_SSTOP
 66
1
 70
0
 40
0.008
 41
0.008
  0
VERTEX
  8
OBS_SSTOP
 10
0.1232283464566929
 20
0.4073818897637795
  0
VERTEX
  8
OBS_SSTOP
 10
0.1232283464566929
 20
0.1823818897637795
  0
SEQEND
  8
OBS_SSTOP
  0
POLYLINE
  8
OBS_GLOBAL_LAYER
 66
1
 70
0
 40
3.937007874015749e-005
 41
3.937007874015749e-005
  0
VERTEX
  8
OBS_GLOBAL_LAYER
 10
-3.11240157480315
 20
0.4860236220472441
  0
VERTEX
  8
OBS_GLOBAL_LAYER
 10
-3.117913385826772
 20
0.4915354330708662
  0
VERTEX
  8
OBS_GLOBAL_LAYER
 10
0.03700787401574803
 20
0.4915354330708662
  0
VERTEX
  8
OBS_GLOBAL_LAYER
 10
0.03700787401574803
 20
0.1112204724409449
  0
VERTEX
  8
OBS_GLOBAL_LAYER
 10
-3.113582677165355
 20
0.1112204724409449
  0
VERTEX
  8
OBS_GLOBAL_LAYER
 10
-3.11240157480315
 20
0.4860236220472441
  0
SEQEND
  8
OBS_GLOBAL_LAYER
  0
POLYLINE
  8
BOARD_OUTLINE
 66
1
 70
0
 40
0.05
 41
0.05
  0
VERTEX
  8
BOARD_OUTLINE
 10
-4.568307086614174
 20
0.6728346456692914
  0
VERTEX
  8
BOARD_OUTLINE
 10
0.8533464566929134
 20
0.6551181102362205
  0
VERTEX
  8
BOARD_OUTLINE
 10
0.8533464566929134
 20
-0.1307086614173229
  0
VERTEX
  8
BOARD_OUTLINE
 10
0.7503937007874016
 20
-0.1383858267716535
  0
VERTEX
  8
BOARD_OUTLINE
 10
-4.236220472440945
 20
-0.1383858267716535
  0
VERTEX
  8
BOARD_OUTLINE
 10
-4.554724409448819
 20
-0.1322834645669291
  0
VERTEX
  8
BOARD_OUTLINE
 10
-4.554724409448819
 20
-0.1460629921259843
  0
VERTEX
  8
BOARD_OUTLINE
 10
-4.568307086614174
 20
-0.1324803149606299
  0
VERTEX
  8
BOARD_OUTLINE
 10
-4.568307086614174
 20
0.6728346456692914
  0
SEQEND
  8
BOARD_OUTLINE
  0
POLYLINE
  8
OBS_GLOBAL_LAYER
 66
1
 39
0.001
 70
1
 40
3.937007874015748e-006
 41
3.937007874015748e-006
  0
VERTEX
  8
OBS_GLOBAL_LAYER
 10
-3.493338582677166
 20
-0.0957244094488189
  0
VERTEX
  8
OBS_GLOBAL_LAYER
 10
-3.493338582677166
 20
0.1862755905511811
  0
VERTEX
  8
OBS_GLOBAL_LAYER
 10
-3.626338582677166
 20
0.1862755905511811
  0
VERTEX
  8
OBS_GLOBAL_LAYER
 10
-3.626338582677166
 20
-0.0957244094488189
  0
VERTEX
  8
OBS_GLOBAL_LAYER
 10
-3.493338582677166
 20
-0.0957244094488189
  0
SEQEND
  8
OBS_GLOBAL_LAYER
  0
POLYLINE
  8
OBS_SSTOP
 66
1
 70
0
 40
0.008
 41
0.008
  0
VERTEX
  8
OBS_SSTOP
 10
-3.52234251968504
 20
0.1702755905511811
  0
VERTEX
  8
OBS_SSTOP
 10
-3.49734251968504
 20
0.1702755905511811
  0
VERTEX
  8
OBS_SSTOP
 10
-3.49734251968504
 20
-0.0797244094488189
  0
VERTEX
  8
OBS_SSTOP
 10
-3.52234251968504
 20
-0.0797244094488189
  0
SEQEND
  8
OBS_SSTOP
  0
POLYLINE
  8
OBS_SSTOP
 66
1
 70
0
 40
0.008
 41
0.008
  0
VERTEX
  8
OBS_SSTOP
 10
-3.771358267716535
 20
0.1673228346456693
  0
VERTEX
  8
OBS_SSTOP
 10
-3.746358267716536
 20
0.1673228346456693
  0
VERTEX
  8
OBS_SSTOP
 10
-3.746358267716536
 20
-0.08267716535433071
  0
VERTEX
  8
OBS_SSTOP
 10
-3.771358267716535
 20
-0.08267716535433071
  0
SEQEND
  8
OBS_SSTOP
  0
POLYLINE
  8
OBS_ASYTOP
 66
1
 70
0
 40
0.008
 41
0.008
  0
VERTEX
  8
OBS_ASYTOP
 10
-3.771358267716535
 20
0.1673228346456693
  0
VERTEX
  8
OBS_ASYTOP
 10
-3.746358267716536
 20
0.1673228346456693
  0
VERTEX
  8
OBS_ASYTOP
 10
-3.746358267716536
 20
-0.08267716535433071
  0
VERTEX
  8
OBS_ASYTOP
 10
-3.771358267716535
 20
-0.08267716535433071
  0
SEQEND
  8
OBS_ASYTOP
  0
POLYLINE
  8
OBS_GLOBAL_LAYER
 66
1
 39
0.001
 70
1
 40
3.937007874015748e-006
 41
3.937007874015748e-006
  0
VERTEX
  8
OBS_GLOBAL_LAYER
 10
-3.875362204724409
 20
0.1833228346456693
  0
VERTEX
  8
OBS_GLOBAL_LAYER
 10
-3.875362204724409
 20
-0.09867716535433072
  0
VERTEX
  8
OBS_GLOBAL_LAYER
 10
-3.742362204724409
 20
-0.09867716535433072
  0
VERTEX
  8
OBS_GLOBAL_LAYER
 10
-3.742362204724409
 20
0.1833228346456693
  0
VERTEX
  8
OBS_GLOBAL_LAYER
 10
-3.875362204724409
 20
0.1833228346456693
  0
SEQEND
  8
OBS_GLOBAL_LAYER
  0
POLYLINE
  8
OBS_SSTOP
 66
1
 70
0
 40
0.008
 41
0.008
  0
VERTEX
  8
OBS_SSTOP
 10
-3.846358267716536
 20
-0.08267716535433071
  0
VERTEX
  8
OBS_SSTOP
 10
-3.871358267716536
 20
-0.08267716535433071
  0
VERTEX
  8
OBS_SSTOP
 10
-3.871358267716536
 20
0.1673228346456693
  0
VERTEX
  8
OBS_SSTOP
 10
-3.846358267716536
 20
0.1673228346456693
  0
SEQEND
  8
OBS_SSTOP
  0
POLYLINE
  8
OBS_ASYTOP
 66
1
 70
0
 40
0.008
 41
0.008
  0
VERTEX
  8
OBS_ASYTOP
 10
-3.846358267716536
 20
-0.08267716535433071
  0
VERTEX
  8
OBS_ASYTOP
 10
-3.871358267716536
 20
-0.08267716535433071
  0
VERTEX
  8
OBS_ASYTOP
 10
-3.871358267716536
 20
0.1673228346456693
  0
VERTEX
  8
OBS_ASYTOP
 10
-3.846358267716536
 20
0.1673228346456693
  0
SEQEND
  8
OBS_ASYTOP
  0
POLYLINE
  8
OBS_GLOBAL_LAYER
 66
1
 39
0.001
 70
1
 40
3.937007874015748e-006
 41
3.937007874015748e-006
  0
VERTEX
  8
OBS_GLOBAL_LAYER
 10
-2.956279527559055
 20
-0.09958661417322835
  0
VERTEX
  8
OBS_GLOBAL_LAYER
 10
-2.496279527559055
 20
-0.09958661417322835
  0
VERTEX
  8
OBS_GLOBAL_LAYER
 10
-2.496279527559055
 20
-0.01458661417322835
  0
VERTEX
  8
OBS_GLOBAL_LAYER
 10
-2.956279527559055
 20
-0.01458661417322835
  0
VERTEX
  8
OBS_GLOBAL_LAYER
 10
-2.956279527559055
 20
-0.09958661417322835
  0
SEQEND
  8
OBS_GLOBAL_LAYER
  0
POLYLINE
  8
OBS_SSTOP
 66
1
 70
0
 40
0.008
 41
0.008
  0
VERTEX
  8
OBS_SSTOP
 10
-2.788779527559055
 20
-0.09458661417322835
  0
VERTEX
  8
OBS_SSTOP
 10
-2.788779527559055
 20
-0.01958661417322835
  0
VERTEX
  8
OBS_SSTOP
 10
-2.663779527559055
 20
-0.01958661417322835
  0
VERTEX
  8
OBS_SSTOP
 10
-2.663779527559055
 20
-0.09458661417322835
  0
VERTEX
  8
OBS_SSTOP
 10
-2.788779527559055
 20
-0.09458661417322835
  0
SEQEND
  8
OBS_SSTOP
  0
POLYLINE
  8
OBS_ASYTOP
 66
1
 70
0
 40
0.008
 41
0.008
  0
VERTEX
  8
OBS_ASYTOP
 10
-2.788779527559055
 20
-0.09458661417322835
  0
VERTEX
  8
OBS_ASYTOP
 10
-2.788779527559055
 20
-0.01958661417322835
  0
VERTEX
  8
OBS_ASYTOP
 10
-2.663779527559055
 20
-0.01958661417322835
  0
VERTEX
  8
OBS_ASYTOP
 10
-2.663779527559055
 20
-0.09458661417322835
  0
VERTEX
  8
OBS_ASYTOP
 10
-2.788779527559055
 20
-0.09458661417322835
  0
SEQEND
  8
OBS_ASYTOP
  0
POLYLINE
  8
OBS_SSTOP
 66
1
 70
0
 40
0.008
 41
0.008
  0
VERTEX
  8
OBS_SSTOP
 10
-2.763779527559055
 20
-0.09458661417322835
  0
VERTEX
  8
OBS_SSTOP
 10
-2.763779527559055
 20
-0.01958661417322835
  0
SEQEND
  8
OBS_SSTOP
  0
POLYLINE
  8
OBS_ASYTOP
 66
1
 70
0
 40
0.008
 41
0.008
  0
VERTEX
  8
OBS_ASYTOP
 10
-2.763779527559055
 20
-0.09458661417322835
  0
VERTEX
  8
OBS_ASYTOP
 10
-2.763779527559055
 20
-0.01958661417322835
  0
SEQEND
  8
OBS_ASYTOP
  0
POLYLINE
  8
OBS_SSTOP
 66
1
 70
0
 40
0.008
 41
0.008
  0
VERTEX
  8
OBS_SSTOP
 10
-2.663779527559055
 20
-0.05708661417322835
  0
VERTEX
  8
OBS_SSTOP
 10
-2.588779527559055
 20
-0.05708661417322835
  0
SEQEND
  8
OBS_SSTOP
  0
POLYLINE
  8
OBS_ASYTOP
 66
1
 70
0
 40
0.008
 41
0.008
  0
VERTEX
  8
OBS_ASYTOP
 10
-2.663779527559055
 20
-0.05708661417322835
  0
VERTEX
  8
OBS_ASYTOP
 10
-2.588779527559055
 20
-0.05708661417322835
  0
SEQEND
  8
OBS_ASYTOP
  0
POLYLINE
  8
OBS_SSTOP
 66
1
 70
0
 40
0.008
 41
0.008
  0
VERTEX
  8
OBS_SSTOP
 10
-2.788779527559055
 20
-0.05708661417322835
  0
VERTEX
  8
OBS_SSTOP
 10
-2.863779527559055
 20
-0.05708661417322835
  0
SEQEND
  8
OBS_SSTOP
  0
POLYLINE
  8
OBS_ASYTOP
 66
1
 70
0
 40
0.008
 41
0.008
  0
VERTEX
  8
OBS_ASYTOP
 10
-2.788779527559055
 20
-0.05708661417322835
  0
VERTEX
  8
OBS_ASYTOP
 10
-2.863779527559055
 20
-0.05708661417322835
  0
SEQEND
  8
OBS_ASYTOP
  0
POLYLINE
  8
OBS_GLOBAL_LAYER
 66
1
 39
0.001
 70
1
 40
3.937007874015748e-006
 41
3.937007874015748e-006
  0
VERTEX
  8
OBS_GLOBAL_LAYER
 10
-1.325732283464567
 20
0.07112598425196851
  0
VERTEX
  8
OBS_GLOBAL_LAYER
 10
-1.907732283464567
 20
0.07112598425196851
  0
VERTEX
  8
OBS_GLOBAL_LAYER
 10
-1.907732283464567
 20
-0.0368740157480315
  0
VERTEX
  8
OBS_GLOBAL_LAYER
 10
-1.325732283464567
 20
-0.0368740157480315
  0
VERTEX
  8
OBS_GLOBAL_LAYER
 10
-1.325732283464567
 20
0.07112598425196851
  0
SEQEND
  8
OBS_GLOBAL_LAYER
  0
POLYLINE
  8
OBS_SSTOP
 66
1
 70
0
 40
0.008
 41
0.008
  0
VERTEX
  8
OBS_SSTOP
 10
-1.791732283464567
 20
0.0671259842519685
  0
VERTEX
  8
OBS_SSTOP
 10
-1.791732283464567
 20
-0.0328740157480315
  0
VERTEX
  8
OBS_SSTOP
 10
-1.791732283464567
 20
-0.0328740157480315
  0
VERTEX
  8
OBS_SSTOP
 10
-1.441732283464567
 20
-0.0328740157480315
  0
VERTEX
  8
OBS_SSTOP
 10
-1.441732283464567
 20
0.0671259842519685
  0
VERTEX
  8
OBS_SSTOP
 10
-1.791732283464567
 20
0.0671259842519685
  0
SEQEND
  8
OBS_SSTOP
  0
POLYLINE
  8
OBS_ASYTOP
 66
1
 70
0
 40
0.008
 41
0.008
  0
VERTEX
  8
OBS_ASYTOP
 10
-1.791732283464567
 20
0.0671259842519685
  0
VERTEX
  8
OBS_ASYTOP
 10
-1.791732283464567
 20
-0.0328740157480315
  0
VERTEX
  8
OBS_ASYTOP
 10
-1.791732283464567
 20
-0.0328740157480315
  0
VERTEX
  8
OBS_ASYTOP
 10
-1.441732283464567
 20
-0.0328740157480315
  0
VERTEX
  8
OBS_ASYTOP
 10
-1.441732283464567
 20
0.0671259842519685
  0
VERTEX
  8
OBS_ASYTOP
 10
-1.791732283464567
 20
0.0671259842519685
  0
SEQEND
  8
OBS_ASYTOP
  0
POLYLINE
  8
OBS_SSTOP
 66
1
 70
0
 40
0.008
 41
0.008
  0
VERTEX
  8
OBS_SSTOP
 10
-1.791732283464567
 20
0.01712598425196851
  0
VERTEX
  8
OBS_SSTOP
 10
-1.816732283464567
 20
0.01712598425196851
  0
SEQEND
  8
OBS_SSTOP
  0
POLYLINE
  8
OBS_ASYTOP
 66
1
 70
0
 40
0.008
 41
0.008
  0
VERTEX
  8
OBS_ASYTOP
 10
-1.791732283464567
 20
0.01712598425196851
  0
VERTEX
  8
OBS_ASYTOP
 10
-1.816732283464567
 20
0.01712598425196851
  0
SEQEND
  8
OBS_ASYTOP
  0
POLYLINE
  8
OBS_SSTOP
 66
1
 70
0
 40
0.008
 41
0.008
  0
VERTEX
  8
OBS_SSTOP
 10
-1.441732283464567
 20
0.01712598425196851
  0
VERTEX
  8
OBS_SSTOP
 10
-1.416732283464567
 20
0.01712598425196851
  0
SEQEND
  8
OBS_SSTOP
  0
POLYLINE
  8
OBS_ASYTOP
 66
1
 70
0
 40
0.008
 41
0.008
  0
VERTEX
  8
OBS_ASYTOP
 10
-1.441732283464567
 20
0.01712598425196851
  0
VERTEX
  8
OBS_ASYTOP
 10
-1.416732283464567
 20
0.01712598425196851
  0
SEQEND
  8
OBS_ASYTOP
  0
POLYLINE
  8
OBS_TOP
 66
1
 70
0
 40
0.01
 41
0.01
  0
VERTEX
  8
OBS_TOP
 10
-4.562992125984252
 20
-0.4482283464566929
  0
VERTEX
  8
OBS_TOP
 10
-2.052555118110236
 20
-0.4482283464566929
  0
SEQEND
  8
OBS_TOP
  0
POLYLINE
  8
OBS_TOP
 66
1
 70
0
 40
0.01
 41
0.01
  0
VERTEX
  8
OBS_TOP
 10
-4.562992125984252
 20
-0.335732283464567
  0
VERTEX
  8
OBS_TOP
 10
-4.562992125984252
 20
-0.560724409448819
  0
SEQEND
  8
OBS_TOP
  0
POLYLINE
  8
OBS_TOP
 66
1
 70
0
 40
0.01
 41
0.01
  0
VERTEX
  8
OBS_TOP
 10
0.8016259842519685
 20
-0.4669763779527559
  0
VERTEX
  8
OBS_TOP
 10
0.8578740157480316
 20
-0.4482283464566929
  0
VERTEX
  8
OBS_TOP
 10
0.8016259842519685
 20
-0.4294803149606299
  0
SEQEND
  8
OBS_TOP
  0
POLYLINE
  8
OBS_TOP
 66
1
 70
0
 40
0.01
 41
0.01
  0
VERTEX
  8
OBS_TOP
 10
0.8578740157480316
 20
-0.4482283464566929
  0
VERTEX
  8
OBS_TOP
 10
-1.652562992125984
 20
-0.4482283464566929
  0
SEQEND
  8
OBS_TOP
  0
POLYLINE
  8
OBS_TOP
 66
1
 70
0
 40
0.01
 41
0.01
  0
VERTEX
  8
OBS_TOP
 10
0.8578740157480316
 20
-0.335732283464567
  0
VERTEX
  8
OBS_TOP
 10
0.8578740157480316
 20
-0.560724409448819
  0
SEQEND
  8
OBS_TOP
  0
POLYLINE
  8
OBS_TOP
 66
1
 70
0
 40
0.01
 41
0.01
  0
VERTEX
  8
OBS_TOP
 10
-4.506744094488189
 20
-0.4294803149606299
  0
VERTEX
  8
OBS_TOP
 10
-4.562992125984252
 20
-0.4482283464566929
  0
VERTEX
  8
OBS_TOP
 10
-4.506744094488189
 20
-0.4669763779527559
  0
SEQEND
  8
OBS_TOP
  0
POLYLINE
  8
OBS_DRLDWG
 66
1
 70
0
 40
0.01
 41
0.01
  0
VERTEX
  8
OBS_DRLDWG
 10
-0.1
 20
 -2
  0
VERTEX
  8
OBS_DRLDWG
 10
-0.1
 20
-3.2
  0
SEQEND
  8
OBS_DRLDWG
  0
POLYLINE
  8
OBS_DRLDWG
 66
1
 70
0
 40
0.01
 41
0.01
  0
VERTEX
  8
OBS_DRLDWG
 10
-0.105
 20
 -2
  0
VERTEX
  8
OBS_DRLDWG
 10
-0.105
 20
-3.2
  0
SEQEND
  8
OBS_DRLDWG
  0
POLYLINE
  8
OBS_DRLDWG
 66
1
 70
0
 40
0.01
 41
0.01
  0
VERTEX
  8
OBS_DRLDWG
 10
0.265
 20
-2.2
  0
VERTEX
  8
OBS_DRLDWG
 10
0.265
 20
 -3
  0
SEQEND
  8
OBS_DRLDWG
  0
POLYLINE
  8
OBS_DRLDWG
 66
1
 70
0
 40
0.01
 41
0.01
  0
VERTEX
  8
OBS_DRLDWG
 10
0.27
 20
-2.2
  0
VERTEX
  8
OBS_DRLDWG
 10
0.27
 20
 -3
  0
SEQEND
  8
OBS_DRLDWG
  0
POLYLINE
  8
OBS_DRLDWG
 66
1
 70
0
 40
0.01
 41
0.01
  0
VERTEX
  8
OBS_DRLDWG
 10
1.109165354330709
 20
-2.2
  0
VERTEX
  8
OBS_DRLDWG
 10
1.109165354330709
 20
 -3
  0
SEQEND
  8
OBS_DRLDWG
  0
POLYLINE
  8
OBS_DRLDWG
 66
1
 70
0
 40
0.01
 41
0.01
  0
VERTEX
  8
OBS_DRLDWG
 10
1.915830708661418
 20
-2.2
  0
VERTEX
  8
OBS_DRLDWG
 10
1.915830708661418
 20
-3.2
  0
SEQEND
  8
OBS_DRLDWG
  0
POLYLINE
  8
OBS_DRLDWG
 66
1
 70
0
 40
0.01
 41
0.01
  0
VERTEX
  8
OBS_DRLDWG
 10
2.470830708661417
 20
-2.2
  0
VERTEX
  8
OBS_DRLDWG
 10
2.470830708661417
 20
-3.2
  0
SEQEND
  8
OBS_DRLDWG
  0
POLYLINE
  8
OBS_DRLDWG
 66
1
 70
0
 40
0.01
 41
0.01
  0
VERTEX
  8
OBS_DRLDWG
 10
3.624996062992126
 20
 -2
  0
VERTEX
  8
OBS_DRLDWG
 10
3.624996062992126
 20
-3.2
  0
SEQEND
  8
OBS_DRLDWG
  0
POLYLINE
  8
OBS_DRLDWG
 66
1
 70
0
 40
0.01
 41
0.01
  0
VERTEX
  8
OBS_DRLDWG
 10
3.629996062992126
 20
 -2
  0
VERTEX
  8
OBS_DRLDWG
 10
3.629996062992126
 20
-3.2
  0
SEQEND
  8
OBS_DRLDWG
  0
POLYLINE
  8
OBS_DRLDWG
 66
1
 70
0
 40
0.01
 41
0.01
  0
VERTEX
  8
OBS_DRLDWG
 10
-0.105
 20
-1.995
  0
VERTEX
  8
OBS_DRLDWG
 10
3.629996062992126
 20
-1.995
  0
SEQEND
  8
OBS_DRLDWG
  0
POLYLINE
  8
OBS_DRLDWG
 66
1
 70
0
 40
0.01
 41
0.01
  0
VERTEX
  8
OBS_DRLDWG
 10
-0.1
 20
 -2
  0
VERTEX
  8
OBS_DRLDWG
 10
3.624996062992126
 20
 -2
  0
SEQEND
  8
OBS_DRLDWG
  0
POLYLINE
  8
OBS_DRLDWG
 66
1
 70
0
 40
0.01
 41
0.01
  0
VERTEX
  8
OBS_DRLDWG
 10
-0.1
 20
-2.195
  0
VERTEX
  8
OBS_DRLDWG
 10
3.624996062992126
 20
-2.195
  0
SEQEND
  8
OBS_DRLDWG
  0
POLYLINE
  8
OBS_DRLDWG
 66
1
 70
0
 40
0.01
 41
0.01
  0
VERTEX
  8
OBS_DRLDWG
 10
-0.1
 20
-2.2
  0
VERTEX
  8
OBS_DRLDWG
 10
3.624996062992126
 20
-2.2
  0
SEQEND
  8
OBS_DRLDWG
  0
POLYLINE
  8
OBS_DRLDWG
 66
1
 70
0
 40
0.01
 41
0.01
  0
VERTEX
  8
OBS_DRLDWG
 10
-0.1
 20
-2.395
  0
VERTEX
  8
OBS_DRLDWG
 10
3.624996062992126
 20
-2.395
  0
SEQEND
  8
OBS_DRLDWG
  0
POLYLINE
  8
OBS_DRLDWG
 66
1
 70
0
 40
0.01
 41
0.01
  0
VERTEX
  8
OBS_DRLDWG
 10
-0.1
 20
-2.4
  0
VERTEX
  8
OBS_DRLDWG
 10
3.624996062992126
 20
-2.4
  0
SEQEND
  8
OBS_DRLDWG
  0
POLYLINE
  8
OBS_DRLDWG
 66
1
 70
0
 40
0.01
 41
0.01
  0
VERTEX
  8
OBS_DRLDWG
 10
-0.1
 20
-2.55
  0
VERTEX
  8
OBS_DRLDWG
 10
3.624996062992126
 20
-2.55
  0
SEQEND
  8
OBS_DRLDWG
  0
POLYLINE
  8
OBS_DRLDWG
 66
1
 70
0
 40
0.01
 41
0.01
  0
VERTEX
  8
OBS_DRLDWG
 10
-0.1
 20
-2.7
  0
VERTEX
  8
OBS_DRLDWG
 10
3.624996062992126
 20
-2.7
  0
SEQEND
  8
OBS_DRLDWG
  0
POLYLINE
  8
OBS_DRLDWG
 66
1
 70
0
 40
0.01
 41
0.01
  0
VERTEX
  8
OBS_DRLDWG
 10
-0.1
 20
-2.85
  0
VERTEX
  8
OBS_DRLDWG
 10
3.624996062992126
 20
-2.85
  0
SEQEND
  8
OBS_DRLDWG
  0
POLYLINE
  8
OBS_DRLDWG
 66
1
 70
0
 40
0.01
 41
0.01
  0
VERTEX
  8
OBS_DRLDWG
 10
-0.1
 20
 -3
  0
VERTEX
  8
OBS_DRLDWG
 10
3.624996062992126
 20
 -3
  0
SEQEND
  8
OBS_DRLDWG
  0
POLYLINE
  8
OBS_DRLDWG
 66
1
 70
0
 40
0.01
 41
0.01
  0
VERTEX
  8
OBS_DRLDWG
 10
-0.1
 20
-3.2
  0
VERTEX
  8
OBS_DRLDWG
 10
3.624996062992126
 20
-3.2
  0
SEQEND
  8
OBS_DRLDWG
  0
POLYLINE
  8
OBS_DRLDWG
 66
1
 70
0
 40
0.01
 41
0.01
  0
VERTEX
  8
OBS_DRLDWG
 10
-0.105
 20
-3.205
  0
VERTEX
  8
OBS_DRLDWG
 10
3.629996062992126
 20
-3.205
  0
SEQEND
  8
OBS_DRLDWG
  0
POLYLINE
  8
OBS_DRLDWG
 66
1
 70
0
 40
0.01
 41
0.01
  0
VERTEX
  8
OBS_DRLDWG
 10
0.0575
 20
-2.45
  0
VERTEX
  8
OBS_DRLDWG
 10
0.1075
 20
-2.5
  0
SEQEND
  8
OBS_DRLDWG
  0
POLYLINE
  8
OBS_DRLDWG
 66
1
 70
0
 40
0.01
 41
0.01
  0
VERTEX
  8
OBS_DRLDWG
 10
0.0575
 20
-2.5
  0
VERTEX
  8
OBS_DRLDWG
 10
0.1075
 20
-2.45
  0
SEQEND
  8
OBS_DRLDWG
  0
POLYLINE
  8
OBS_DRLDWG
 66
1
 70
0
 40
0.01
 41
0.01
  0
VERTEX
  8
OBS_DRLDWG
 10
0.0825
 20
-2.65
  0
VERTEX
  8
OBS_DRLDWG
 10
0.0825
 20
-2.6
  0
SEQEND
  8
OBS_DRLDWG
  0
POLYLINE
  8
OBS_DRLDWG
 66
1
 70
0
 40
0.01
 41
0.01
  0
VERTEX
  8
OBS_DRLDWG
 10
0.0575
 20
-2.625
  0
VERTEX
  8
OBS_DRLDWG
 10
0.1075
 20
-2.625
  0
SEQEND
  8
OBS_DRLDWG
  0
POLYLINE
  8
OBS_DRLDWG
 66
1
 70
0
 40
0.01
 41
0.01
  0
VERTEX
  8
OBS_DRLDWG
 10
0.0825
 20
-2.8
  0
VERTEX
  8
OBS_DRLDWG
 10
0.0575
 20
-2.775
  0
SEQEND
  8
OBS_DRLDWG
  0
POLYLINE
  8
OBS_DRLDWG
 66
1
 70
0
 40
0.01
 41
0.01
  0
VERTEX
  8
OBS_DRLDWG
 10
0.1075
 20
-2.775
  0
VERTEX
  8
OBS_DRLDWG
 10
0.0825
 20
-2.8
  0
SEQEND
  8
OBS_DRLDWG
  0
POLYLINE
  8
OBS_DRLDWG
 66
1
 70
0
 40
0.01
 41
0.01
  0
VERTEX
  8
OBS_DRLDWG
 10
0.0825
 20
-2.75
  0
VERTEX
  8
OBS_DRLDWG
 10
0.1075
 20
-2.775
  0
SEQEND
  8
OBS_DRLDWG
  0
POLYLINE
  8
OBS_DRLDWG
 66
1
 70
0
 40
0.01
 41
0.01
  0
VERTEX
  8
OBS_DRLDWG
 10
0.0575
 20
-2.775
  0
VERTEX
  8
OBS_DRLDWG
 10
0.0825
 20
-2.75
  0
SEQEND
  8
OBS_DRLDWG
  0
POLYLINE
  8
OBS_DRLDWG
 66
1
 70
0
 40
0.01
 41
0.01
  0
VERTEX
  8
OBS_DRLDWG
 10
0.0575
 20
-2.9
  0
VERTEX
  8
OBS_DRLDWG
 10
0.1075
 20
-2.95
  0
SEQEND
  8
OBS_DRLDWG
  0
POLYLINE
  8
OBS_DRLDWG
 66
1
 70
0
 40
0.01
 41
0.01
  0
VERTEX
  8
OBS_DRLDWG
 10
0.0575
 20
-2.95
  0
VERTEX
  8
OBS_DRLDWG
 10
0.1075
 20
-2.9
  0
SEQEND
  8
OBS_DRLDWG
  0
POLYLINE
  8
OBS_DRLDWG
 66
1
 70
0
 40
0.01
 41
0.01
  0
VERTEX
  8
OBS_DRLDWG
 10
0.1075
 20
-2.95
  0
VERTEX
  8
OBS_DRLDWG
 10
0.0575
 20
-2.95
  0
SEQEND
  8
OBS_DRLDWG
  0
POLYLINE
  8
OBS_DRLDWG
 66
1
 70
0
 40
0.01
 41
0.01
  0
VERTEX
  8
OBS_DRLDWG
 10
0.1075
 20
-2.9
  0
VERTEX
  8
OBS_DRLDWG
 10
0.1075
 20
-2.95
  0
SEQEND
  8
OBS_DRLDWG
  0
POLYLINE
  8
OBS_DRLDWG
 66
1
 70
0
 40
0.01
 41
0.01
  0
VERTEX
  8
OBS_DRLDWG
 10
0.0575
 20
-2.9
  0
VERTEX
  8
OBS_DRLDWG
 10
0.1075
 20
-2.9
  0
SEQEND
  8
OBS_DRLDWG
  0
POLYLINE
  8
OBS_DRLDWG
 66
1
 70
0
 40
0.01
 41
0.01
  0
VERTEX
  8
OBS_DRLDWG
 10
0.0575
 20
-2.95
  0
VERTEX
  8
OBS_DRLDWG
 10
0.0575
 20
-2.9
  0
SEQEND
  8
OBS_DRLDWG
  0
POLYLINE
  8
OBS_TOP
 66
1
 70
0
 40
0.01
 41
0.01
  0
VERTEX
  8
OBS_TOP
 10
-3.052610236220473
 20
0.8030000000000001
  0
VERTEX
  8
OBS_TOP
 10
-3.108858267716536
 20
0.7842519685039371
  0
VERTEX
  8
OBS_TOP
 10
-3.052610236220473
 20
0.765503937007874
  0
SEQEND
  8
OBS_TOP
  0
POLYLINE
  8
OBS_TOP
 66
1
 70
0
 40
0.01
 41
0.01
  0
VERTEX
  8
OBS_TOP
 10
-3.108858267716536
 20
0.7842519685039371
  0
VERTEX
  8
OBS_TOP
 10
-2.983153543307087
 20
0.7842519685039371
  0
SEQEND
  8
OBS_TOP
  0
POLYLINE
  8
OBS_TOP
 66
1
 70
0
 40
0.01
 41
0.01
  0
VERTEX
  8
OBS_TOP
 10
-3.108858267716536
 20
0.8967480314960631
  0
VERTEX
  8
OBS_TOP
 10
-3.108858267716536
 20
0.6717559055118111
  0
SEQEND
  8
OBS_TOP
  0
POLYLINE
  8
OBS_TOP
 66
1
 70
0
 40
0.01
 41
0.01
  0
VERTEX
  8
OBS_TOP
 10
-2.571208661417323
 20
0.765503937007874
  0
VERTEX
  8
OBS_TOP
 10
-2.51496062992126
 20
0.7842519685039371
  0
VERTEX
  8
OBS_TOP
 10
-2.571208661417323
 20
0.8030000000000001
  0
SEQEND
  8
OBS_TOP
  0
POLYLINE
  8
OBS_TOP
 66
1
 70
0
 40
0.01
 41
0.01
  0
VERTEX
  8
OBS_TOP
 10
-2.51496062992126
 20
0.7842519685039371
  0
VERTEX
  8
OBS_TOP
 10
-2.640665354330709
 20
0.7842519685039371
  0
SEQEND
  8
OBS_TOP
  0
POLYLINE
  8
OBS_TOP
 66
1
 70
0
 40
0.01
 41
0.01
  0
VERTEX
  8
OBS_TOP
 10
-2.51496062992126
 20
0.8967480314960631
  0
VERTEX
  8
OBS_TOP
 10
-2.51496062992126
 20
0.6717559055118111
  0
SEQEND
  8
OBS_TOP
  0
POLYLINE
  8
OBS_TOP
 66
1
 70
0
 40
0.01
 41
0.01
  0
VERTEX
  8
OBS_TOP
 10
-0.008807086614173228
 20
0.7676692913385828
  0
VERTEX
  8
OBS_TOP
 10
0.04744094488188977
 20
0.7864173228346457
  0
VERTEX
  8
OBS_TOP
 10
-0.008807086614173228
 20
0.8051653543307087
  0
SEQEND
  8
OBS_TOP
  0
POLYLINE
  8
OBS_TOP
 66
1
 70
0
 40
0.01
 41
0.01
  0
VERTEX
  8
OBS_TOP
 10
0.04744094488188977
 20
0.7864173228346457
  0
VERTEX
  8
OBS_TOP
 10
-0.076
 20
0.7864173228346457
  0
SEQEND
  8
OBS_TOP
  0
POLYLINE
  8
OBS_TOP
 66
1
 70
0
 40
0.01
 41
0.01
  0
VERTEX
  8
OBS_TOP
 10
0.04744094488188977
 20
0.6739212598425197
  0
VERTEX
  8
OBS_TOP
 10
0.04744094488188977
 20
0.8989133858267717
  0
SEQEND
  8
OBS_TOP
  0
POLYLINE
  8
OBS_TOP
 66
1
 70
0
 40
0.01
 41
0.01
  0
VERTEX
  8
OBS_TOP
 10
-0.4856811023622047
 20
0.8051653543307087
  0
VERTEX
  8
OBS_TOP
 10
-0.5419291338582677
 20
0.7864173228346457
  0
VERTEX
  8
OBS_TOP
 10
-0.4856811023622047
 20
0.7676692913385828
  0
SEQEND
  8
OBS_TOP
  0
POLYLINE
  8
OBS_TOP
 66
1
 70
0
 40
0.01
 41
0.01
  0
VERTEX
  8
OBS_TOP
 10
-0.5419291338582677
 20
0.7864173228346457
  0
VERTEX
  8
OBS_TOP
 10
-0.418488188976378
 20
0.7864173228346457
  0
SEQEND
  8
OBS_TOP
  0
POLYLINE
  8
OBS_TOP
 66
1
 70
0
 40
0.01
 41
0.01
  0
VERTEX
  8
OBS_TOP
 10
-0.5419291338582677
 20
0.6739212598425197
  0
VERTEX
  8
OBS_TOP
 10
-0.5419291338582677
 20
0.8989133858267717
  0
SEQEND
  8
OBS_TOP
  0
ENDSEC
  0
EOF
